<mxfile host="drawio-plugin" agent="Mozilla/5.0 (Macintosh; Intel Mac OS X 10_15_7) AppleWebKit/537.36 (KHTML, like Gecko) Chrome/122.0.0.0 Safari/537.36" modified="2024-10-06T02:25:01.788Z" version="22.1.22" etag="fq5PTq8xQwF4yt-CpgxX" type="embed">
  <diagram name="Page-1" id="Os78CzmkWLpRDU42QAEH">
    <mxGraphModel dx="1591" dy="912" grid="1" gridSize="10" guides="1" tooltips="1" connect="1" arrows="1" fold="1" page="1" pageScale="1" pageWidth="1169" pageHeight="827" background="#000033" math="0" shadow="0">
      <root>
        <mxCell id="0" />
        <mxCell id="1" parent="0" />
        <mxCell id="ByunUOgoxLHvKFPXcoli-10" style="edgeStyle=orthogonalEdgeStyle;rounded=0;orthogonalLoop=1;jettySize=auto;html=1;entryX=0;entryY=0.5;entryDx=0;entryDy=0;" parent="1" source="ByunUOgoxLHvKFPXcoli-8" target="0s4_oxN7NKguhPvinldg-6" edge="1">
          <mxGeometry relative="1" as="geometry">
            <mxPoint x="140" y="222.69" as="targetPoint" />
          </mxGeometry>
        </mxCell>
        <mxCell id="ByunUOgoxLHvKFPXcoli-8" value="GraphQL Client" style="rounded=1;whiteSpace=wrap;html=1;" parent="1" vertex="1">
          <mxGeometry x="20" y="352.69" width="100" height="60" as="geometry" />
        </mxCell>
        <mxCell id="0s4_oxN7NKguhPvinldg-19" style="edgeStyle=orthogonalEdgeStyle;rounded=0;orthogonalLoop=1;jettySize=auto;html=1;entryX=0;entryY=0.5;entryDx=0;entryDy=0;" parent="1" source="0s4_oxN7NKguhPvinldg-6" target="0s4_oxN7NKguhPvinldg-8" edge="1">
          <mxGeometry relative="1" as="geometry" />
        </mxCell>
        <mxCell id="0s4_oxN7NKguhPvinldg-28" style="edgeStyle=orthogonalEdgeStyle;rounded=0;orthogonalLoop=1;jettySize=auto;html=1;" parent="1" source="0s4_oxN7NKguhPvinldg-6" target="0s4_oxN7NKguhPvinldg-7" edge="1">
          <mxGeometry relative="1" as="geometry" />
        </mxCell>
        <mxCell id="0s4_oxN7NKguhPvinldg-33" style="edgeStyle=orthogonalEdgeStyle;rounded=0;orthogonalLoop=1;jettySize=auto;html=1;entryX=0;entryY=0.5;entryDx=0;entryDy=0;exitX=1;exitY=0.5;exitDx=0;exitDy=0;" parent="1" source="0s4_oxN7NKguhPvinldg-6" target="0s4_oxN7NKguhPvinldg-31" edge="1">
          <mxGeometry relative="1" as="geometry">
            <Array as="points">
              <mxPoint x="635" y="383" />
              <mxPoint x="635" y="620" />
            </Array>
          </mxGeometry>
        </mxCell>
        <mxCell id="0s4_oxN7NKguhPvinldg-6" value="GraphQL Server&#xa;(Customer Context)Â " style="shape=image;verticalLabelPosition=bottom;labelBackgroundColor=default;verticalAlign=top;aspect=fixed;imageAspect=0;image=data:image/png,iVBORw0KGgoAAAANSUhEUgAAAWQAAAGRCAYAAABSRMmKAAAAAXNSR0IArs4c6QAAAERlWElmTU0AKgAAAAgAAYdpAAQAAAABAAAAGgAAAAAAA6ABAAMAAAABAAEAAKACAAQAAAABAAABZKADAAQAAAABAAABkQAAAACLYWQoAABAAElEQVR4Aex9CWBkVZX226qSqiTdwNBCJ90quPwIOkonoIJIuzsgLnQnLeiM4jIK44gOCiJLd7O4gOCG4sa4gyTdyIjDiA7S4rAMnTSDI4zjAoPdCa2NQHf2qrf833de3cpLOst7laqkKnUfdF699+763XvPPffcc88xDH1pBDQCGgGNQFUgYFZFKXQhNAIRBIK1dzjGij2B2dPlqde7//q2Jq/hiYOMwD4iCIwXGIb1gsDwn2UZxrLAsJabht9iWKZlBMaoEQRPBqY5YBn+w75v/ca0rO122vzdIYE7aN7TNarSlHxOXOubm01fvdN3jcBiIqAJ8mKir/OehECwMbCixHH3sd2H+Z71wsAMXmKYwYmBbx7TaKdsN/BAdw3849+JuzzgDzu1WfiP71KmbYx4+X1mENyHdO40fP9uywoeaO07/XF+Z77GZiNAnDBBvtSXRmARENAEeRFA11lOIACiKn1QEUM8WwMv2nJK4JgnmYH/ipZU03MsBBkNxo1c4JIEg5sN40ykMtcvExTXtNKmY2StRmOfO2K4vrs9sKxtSG7L6t6u+1QKLI8qi3qn7xqBhUJAE+SFQlrnsx8CQWe3rcQSwZHd6f4m43QQ3zN9Izj6QKclNeKPGfnAzTMiqLBNQgxiCTY2IDcbq++qsLwjum9BtuFDxpG1G2wHnPOgO/xU4Bt3Gqb9uVV96+5QhZzKrav3+q4RqCQCsTp1JQug065PBILOAMTY9EglH2vvOQ2c78cdyzmKRHI8IA0O8iSckCKAhoZEmEjFJcRTURWCXIgfEmfDs5CsbdopB7R+NMj5lm/8mx9Yl63ase5exqeM2dz2CndqWvpZI1ApBDRBrhSyOt1pESABBlEVWe3AsVs6At+/uNFKn0KpcC7I472S4ybnhqfNcMrL/QhzIT8MBCtjNRgj7hgIsPUlp8H6xKF3n/pnzSlPAVA/VhQBbFLrSyOwMAgIcVPEuL3nfN/zf77Mbjpl1M+5kA8XNB1IiMEZF65SOWIVf+qd6UXTDPPCtiFEGiPeuIec7eVO5mx33N/2WHv3yWqTUTb+piamnzUCZUZAc8hlBlQnNz0CSkSxp33ryjHD+zJkuG8ON+n8PKS7KapGkChGieX0KVXmrcqbd8hJ3LSZSo35eUwfwcbWvs5LUa4gKvOuTCl0qvWOgCbI9d4DFqD+ipDt7Og+1gqM7zU72ecMeqOiYwx21SYRZDEWixgrCKJEOdwANO0sxBhD7mhP1jDee1Bf115VFxVH3zUC5URAE+RyoqnT2g8BRcD6O7pfA6r7fchpV0BE4YHhLMtm3X4ZzvNFdHKQ39DMaLIb7SFv9J7GwF63om/dY6pO88xKR9cI7IeAJsj7QaJflAsBpaUwsKbnVM/yv5u2Utm873lRrph5LTZnPLW++xNlw8vajc6oN/bfhumd3Lb9tJ2aKE9FTT+XAwFNkMuBok5jPwQUwSJnDL3im0Ni7LrYUnOUaGC/SFX2QpUz5JRJlBscbPztcNLO34gGBg6xYDLRx66rrN1quTiaINdy61Vp2QNjIwjVZp9qbb7v3wpivCLnu8IZs8iK0FVp8ScVS5U1JMqmzwMlI97Y7W0p4xTaxcB7am2IDHxSRP2gESgBAaeEODqKRmBGBAoEyt993E1Pc3PudzM2ZMZebpKYotpEFDNWBh9Y1iJRhtybqnHNduZV/fnxz+Hz+0iMNVGeDUH9LQkCRX3PJJF0WI3AdAhECZM77l4DwnXEqDcOMUWoSUHiVkvEWNUxSpRJoYf8MT9rpf5+V3v3mYUweqWpwNL3eSGgO9K84NORowiAIItMddeang9lnYbPwhaFCwJm1yIRjtZL/S5yyrD7aZum5QX+kGlYL2/rXX9/dDJS4fVdI5AUAc0hJ0VMh58WgQJB8nd33PR8rOIvCe1RmJNU26aNWEMvi5wyqLAXBB7EMc1+4H8+egKxhqqji1qFCGiCXIWNUotFArGSjS3XcDc3O5kWL/AoqsA5kPDQRy3WaaYyS50gTx71x4OMnT6h/5YtH2RYMXg/UyT9XiMQAwFNkGOApIPMjgC1KhhiV3tPJ6y1nUoZa1S9bamILFhH1kX942k+qPThpXl2/zE3rKZlOG3zgijpq1QENEEuFTkdL4LAJuGOIZ/4SApG4HktRc44UuGwfuCSXdhrXpbKPDPwrffK94d69L5MFCj9OxECuvMkgksHnopA8TRee/fpvmV8j9yjIsZLiTPer94FQ0gQyHhwEUW3UgO2Fbzs0Pu6HkH9ZXNzahz9rBGYCwHNIc+FkP4+IwIgPKYs09t7U2CR/67FysLrUuAuZUKswFATD1X6PMPLL7Ozra5nvKXwXVYMKqy+awTiIqAJclykdLj9EejsCWXH5iPHw27mawb9Efj4MGUjr56IMuTIzog/TgHzewfab8mi7pog799b9JsYCGiCHAMkHWQGBHo6xY6D7QevPshp4TI9DxlY3fUpTj55ww1wRPyIwBw9nmhx9TADavq1RmBGBOpu8MyIhP6QCAERV4ATHGi//mDDst66zxsBETJqxnBQosrOEpjEGFig6qZQYGzu/a0E3wh+WV8agYQIaIKcEDAdfDICvtHwggYr9SwXzpzBF9Y1EQJxptjiBBFbbNZW4Cb3FP0UBwFNkOOgpMPshwCIT0FO6r4CHGLxOznG4kNd/QjMfAD/qGawwghGX86q0wRpXUGgKztvBDRBnjeE9Z0ADkfDE8gEQa5nNHicGuY5m6D09hLB4eHD9fiq5w5RQt11hykBNB0lREDkx4FxhJxWowpcnXLHqt7Y1fTThsMNvecLQoc/rI3X68GSCAFNkBPBpQMTARCcUCzhNxyJnw0wsKOBAQI+nGZD2wJqJubqR1/24wPNni6viJVGSCMQAwFNkGOApINMQaCgQQBTDs8KzKAx5JCnhKnLR6i/QY4MuryyYSzXJhBobYu67AmlVloT5FKRq+d4DxVUukzzudCw4O5e3bPIIrbAHxyhxqLBP9j3goOki2jbFvU8UhLXXRPkxJDpCMaebSKyME2vFdbdRIahUSECIMWwbYFJKhME/oGCyZ4Vdap1ontEKQhoglwKavUeZ7BFiIxvmM2WHMxbejaPS21i7Gx6TVbGMC2/pdQ0dLz6RUAT5Ppt+9Jr3jIoem6QVTRhA6v0dJZYTBFbQKCesmzwylbjEquers4CIKAJ8gKAvOSyWLEnJMim0aDO5uHgcN1TZmhUwLiSAbEFfoEuS7uvWKuVtJfcAKhchTRBrhy2dZJySG+gbVH3hGfaSakgb6+TzqCrOU8ENEGeJ4B1Gb2wUQXVCi80qQMUNIcMCCYmJeAyVpd9Q1d6Xghogjwv+Oo0cmFTD+RnEEQoBCFCjOoUFak25DZmzs/jdzBSzzjoupeGgCbIpeFW37HUpp5p/Zl6tzgxrfsRewTmJhqrpylSEOa90km0DLm+x0rC2uuBlBAwHRwIFDb1jMDblfdBkLFYr3tcuFCAaWTbsE0Q5ic8y3gixKSn7qHRAMRHQBPk+FjpkAqBIztFTgHG+Hf5wAPtgVmdOr9EfkzVChyUCQzzT7Zn/0kg6XmwINOpc4B09WMhoAlyLJh0oEkIbObi3DDADf4atzGtiwzmWCzdBXDj5OAh2LXyjafuDDHbpAlyCIT+GwMBTZBjgKSDTEYAxEeIzCGHuf9DWSn8mk4OUIdP1EG2ILKwAmJhPmLCY0gAb9wKqzqERFe5BAT0SCoBNB0lRKBgXvJeEB28UOoW9YsOZqnUXm8YAAQ7BIXC5mf9IqJrnhQBTZCTIqbDQ14xsYkHjvAXWmTBTmEGoaGl4C+G5d0h3eTEtbA1NIGV7joagbkQ0AR5LoT09yICQSeUCHBxGf67Z9/asKu9+58Cwz93PBC92zrf2BOfepBbGAcZrv21XWu2voRiC2JF33qaMBe7kf4xCwJ1PohmQUZ/KiIgxGTtNtvc9gp48TSMx9q7T8Ypvcsb7fQL4W3agFF2sIHalgVwAj02zbSZMsaCvG/5xtcsO7ji0Pu6HiFuwdo7HIUhn/WlEZiKgCbIUxHRz5MQCIyN0GnbLAbo+9u3rgHDd27asjcw0Hjgynt0IovEqJ6Jsqo/7xRfEJMmGHwb8kb34PeVdm75lw/91euG8V3GHDnnSUDrB40AEJDOoZHQCExFINgIpQEsufmezkx9M/Vx0Jr3tDjZlkFv1CvoeQkhVnHrnSArHIp3GKtPWY7TAI55yB29HyT40207um5U36MYq3f6Xt8IaIJc3+2/X+0p7zR6OkPZ55Hd6V1N1jsgBb0wY6WfzmPS+C/P48Ekvoor3C+ROn8Rcskia6eFDxxlDIKs1eCM+DlKlG+D9frz23rX30+YtBijzjvLlOprgjwFkHp+JDGmKhsx6O/ofg3W1BszVsPxLmgKTuTRlyltunGDSpbb9cwRx+knasISvECYTdN0Gq20Me7lMKkZ11ie9fnW+9c9yrQ0txwH0aUfRhPkpd/Gs9aQNJYBlExzd8dNz8/7/rnYjPpbEGNjxBuHeEJOO4iUQhGZWRPVH4sICDEmvpjKQvOcoXx5mZU19rqj/wdzRF9sMw7/otnXQVWVwpyn5cvEoh4vTZDrsdULdaYam9ljCkf8RHv38lHTPB8U4b3NTuagQX8EGm1Q27I0R1yuLqImM96hjeFCG0O8ioy5ue2mYV3atmP9LcwL301jI2RCBRl+ufLX6VQ/ApogV38blb2E1JwwOo8y5aQdVLEeG9pzGk4wbIIa2+Ee1Ni8gHJimi3T2hPlBr/IMVMGT/kyliYZM22NQb4cBEGPYzqXHNp7Km2EaPlyucGvgfQ0Qa6BRipnEUEQoMYWak/sOvqGVxm2c17WTr8GMuJQTiyZUVSsN+3KiXs0rUlEWeTxFFEEcOGdMYe8sWHLDz4Hq3FfWtG37jHGI8esRErRdPTvpYeAJshLr033qxEHNF5yUIsa28413c+G6cwLTNM/vdnOpge9ERecGjjikAirBPisfut7+RFQhJkpC/bgmDFb2mgTY587/Fu8vXpVb+dXVc56408hsXTvesAt3baVmkXlxLv/+rYmL/XUB+Aa+cNNTuMho/44wgR5sGciyySB0ER4cTqEwh5t4cOegUf5MsVHOc/9pe3bF0Ib406WTI6v90C6rw+WLE5DVThXTZArDPBiJh/VcR1Y03MqdvkvzjqNL8z5LsUT+x3uKAcx3o/ro1cjXOhoxUMk5chnIXGdIJbhKTyKF1gHVddy1WdSPgE2VMEt81BJaCvE/4bp21e19q3/DeseVVFcSCx0XpVFQBPkyuK74KljUEubgkiIrnD/MT3H+X7w0YydfjO+FY47F8MIUakIQSnknzZtCx5FYNshh/mAdGzBISlLhiSW9IyiCCSUsjHRlJ8wMx8WmG0S/g7bEWpy1qA7/Be8+3zWML9wUF+X+OzDM0GVOGWpqE5kURHQ1t4WFf7yZi5cEwYnB+ie9q0r+9u3fBk797ctTzW9eczPe7Q9QU5V5coBz4Gvnku9Mx2VFpfcoPteyrCtZqvRynvuA2Nu/hcpwxE9XIYrNZ/FilesW+Dnxv3xW/3AH81aaW6OQlMiEINL8rsMdWM60bTYXvy3zxt2bcv+qyYne8moYdw10N59OvFAWMFTTlguFkA637IhMO/BWLaS6IRKRkAGY+G4s8iJ03vPAKm9MOukDxmHeAIKxZOOOzMjDvqSM4xEVARWiAiIE0+j0ajOsDv2BPL9kmVkP2UYg2Dq0vfCvdGzaAWNBCaSRNX/RHnzy6ym1JPeyHWre9e/Z+DYLR1YdXzCMa3XpEwHqw45eVdUE2SFKoMv1ORA9HHaz6F8GQ5mfwb8L1zd23Uf84yKqPisr9pDoCyDsvaqvXRKHJUl9q/ZcoppBRdm7cZjqdcK05gVkd8qIjwJRcg8m+wGe9gfhyKz+X3DcS9bdd9boSlA40Tdp/tm8D1odsgyvFzEalL+FXwg1+8YluX5wU7b9k9U5jSFSzWNjzTZ2aNH/DHob0N3sEKnGotcOrnwiHwZ7Qxogy/ZtvlZVa6ohb4KwqKTrgACmiBXANRKJ8kRyTxA2GS5uuvYm15o+O5FtmmvS4Njg/aEqLFFy1EuIqiIMdMjoWIe0JmFhQbmO7YN7z7R1tv1M5X33pd2HzSUN7Zl7cwLhr1R4aDVt1q6UzSx3G5yBt2Rr7T2dZ6pVNAefdmPD3TGRt6DJvkYNFcOGgZhBskUwhxiFIpoyoH/JKIs4LEJAnOZ3WQO5of70SE+P/JU8xee8/uTqD6DldGE6dRawrqey6oJco21fnRZSrOYnpE6zzSC9+G4c8uQP4oxGxqxiRLOclQxmh5/8+gvNrlSMC9pjLi5P4Iz35hvGv7BYdvOGCOxMn6xzaIxdmh3fLw5nb18yBsR9TrGLQdxKked4qahyiwYhNzpy9u2d94dwBqe+VBXjuns7thyOIxRfNw0/HdkbbHsBll6AE0JzJC4VBr8XY5Lpcc72yJVOIad83IP4Bj2Jmhj3Mx88N3CMWxDH8MuB+qVT0MT5MpjXJYcMLCK9g3oPim7bPh0MKmbG+3UanjsMGAaE1wxZAKQz3KQMtNyED6mpTg9uQv3Z4Arw66/N/IkRvzXmlPBFcvv6XqCeUbl2TyAAhWL7fBKfYAX+FAHCDUHylEu5rVQl8ITiAY85owVyO2rerterdrE2CxYy2rhj0ff+HLbsTZi1fBK27AL8uUJc6WqzOXAQJUr2i4NpgNHJQH1l2+GGZJL2/rWicPV6ESuyqDv1YeAJsjV1yb7lYgDH4NOiOzAmu7XY0vsvIydWZvz80begFlMuSZUsMo+2IXAI3/812ilbBBXyqevx/NninZ9I2VU5e1vv/F7GafxbbADLBt5eF9z3LFqDJZd/XZwqNHz/He17ej8piJ0rDO/q3aC+dJ3A58PtzhNR2HlQtUTtBPChE1ZtgmTeSpcwzKGYowmHMOGiAgKGeZXGlPBVQff09VfCFvsS3zWV3UhUFO73dUFXWVLwwEuS39kw0G+69gfPLe/Y8sPQNlugTx2LeWxefDF5IhloCOcGpjzLVk4sCVfjm7QEtOnnBhLcRsaBffmgvzJbdvXv43EmASJ+SlCJJuMLO8xPa8yLasL6nYsGal5ImKsysA7yxB9TlK/MH5ITOeblkx0WCFAW4TrkA9TZESxDNKlChzrh4wgIsAFOfp1kFy8ErrDG6EmN0Q1OfrbAxaT1ORYpiT1mS4syzWRTjgxs39gZZJpcTIfHstZ/7FrTc+HVDmZhqxkpktMv1tUBDSHvKjwT5959LhzuClmfhAUCcedG5ZRewLDaZIamxCK6ZNK/JYDWw1wyibxO9WALbtRN7cTpjCuyDUPf4NyYiYc1fCQ5yL7F1jQ+Ph5NtVw4ogLe8qWEKzYfS1aBpbFxpxDkQwkHj7IMwieEDYUT00aU4hakQslncJ/rBPjGkGK3C0M7uMnBSj4UqhvHKAkbBgv32xlU/vcoYtX9W24VBIDMY6moThnvuNkCisVl+HnW5qcjDMCYhmgDsi/Isb+VZ04kQGs4jHsvOtuhznVC9Smq0ym29Z6wHhS2aP10L8XFoHYg2Rhi1W/uSkix0H+WHvPaeCIL2qyG48YB6fpBv7CHXdGAZbbWXuvNwLHnMa3Mqngk8VlLzbtptskUhMJl+tpK/0NlLmobRC3RUlMGJan+sBXB1Zgungz2JzKHEQNEk5IlJnTOh2CgrDNdFGgbtrUE2Y8eur4i7sPgoPgCZD0AxB5Ut8n4Z8pJfU+Suhs+GEC5/tUYPkvpnof22sqYZuq5UC1RISHdT14YYEEAyKn/bRhmFecsqgyTXcvYog6yW+scACo1Qh/2MQO2nnfsYzUlUUznzO053Rp63eVRWDOTljZ7HXqRICDmXc1oHd29Ky1guBjDXb6dXzPU3YcUIUw4SALw8+r/fYbuAVOCQSMy2sDhtN/ZFr2FW296+5i3krVi7+nXqwDy89lfGA4d6Pszxnz8p4ycB+XyLBMDIuK5VvAhT7ljeBwiXkdhBYvwtvng0s/AmT62SjNatjlyEA/uICeIs0hiqMk3Ib7JAjw/4E0Qx86+A0o/H9hn22X7/lfg4ra0cPemKjhqTyn1mm6ZxUWnDr0rhstyMevp/hG1X+6OHynsKNmRn/GeDfgPa/ZzjxjBAaelHyZ9Vbpz5ROkvdMi+HV5MZffF6OY9iwJvcXPH0ln81e9Yz/eMOTfD9XHRhGX5VFYF4DurJFq4/Uo0vb/mNuWA1isxkD560tdjYj3p0BA6hTxZe2GLt+2ko5JMTw+fYgiNjGlb3rbiJ5i2NhTA3mXe03XoKNrIto0hME1ElCYFRYkBHIaW0bx677bds4QR14YI8YaL8lmzJyy8ftfIthpDOQPhyEEjaDm24ER4wlhDcK2elTdmDvw4p9xA9y+1a2rHyKsl7VowY6uv8WIoPvoKoisuB7EkP1fa47y8kwwMrE0RvPCvyTW3dsuE2tbmaKr1YQ/M6j7Xkj+AjSOhOOATKw9YFUwb6irctNmJlfEVvkgnKLyiLtckBv+rd49Ym2voe+axqbZYN4rnowPX1VBoHYnbAy2ddvqrJht5nMnRnQfdKIQa7JPB/G4g+meAIDqKJyYiIvAz963Nkb3Q3TnNe0pfyrzXu6sEOPgRxxfMrn2a6B9i1H4NhYL3a4msD1hdxZAkLHtIXYYYkNL832aDD+Uej7foZqfs9elfGMecg7WQ9jzwrTWLE2oNuqXR09P4XGyGtKPcpdLCc2Oke8sbvaDjNOFA8shZXCTDghnml09ljKmSwP9ZieexnengyO24RKXR6iEIcCF8kDCSWZLGbKl++j6XHS47sGy7F5z/v5bYZnbyya+cRmbXQSYxh9VR4BTZArj/F+OajlKz/sau/pxEL1XHCVHdgZxyihehQGISgjZajyOyFRY5yp16TBWCCWoA1cdtvDLk7QGeY3bdP81KG96x9mXBIOThZT05nuWdVnV3t3d8Zu6BwNkqu5qfKxTBkrbY/5472tKePlnBiiZeHviTJswu9N05SR73mF36L1UGmJPQrPvwd0T7j4MHwy4idlRnlJ1GAz5P00Jh9d8ag0p7ureqiyqX4A4/QdtFMd7hdMFlMhbKTu06U69zspM4IxrfB32MbAvOBGyvwaFNk/WzTzmaAfzJ27DjEXAvNu4Lky0N9DBKYOwJ0d3cdiq+UC27bf2GClICcGZ2Qs3AGCollMN/fvVmBfWuSMEnDErJkiQOGGVXAzxAY8mCA6t0kIiCIUTBNaFSZSeAtPmyXh0Bk3yQU96S+0pJr/sZRThCyvEDWILHA4xx7zcg+nLeP4p23vwioj/pHlsF9sAqXd7O85/l9a8mP5M7DKuEitlJR9jAkCmmzSmAmPYvlVPQoHfihf3uuO/AniHhqGgv3lU7B4Qzvrjb+ZoCzre02Qywrn9IkposWvj7+0u208F5wH7Yl3gxvKDkeOO/O7Gij8XY5Lpcc7ZYcOFA9on3jcc3+LY76bV/Z1/gCDHSphG3HEdlOiI7ZIU7hoynV9c/Sn4LaPn99GmeFR1xmW4m5e3df1FpV+OXCIpqEI5sDRW58RWN5dKdtpy/meh8qIrD7uRKKwxSDK4yBGasgd+1Rb3/rzo3nF/T21j+TywUWBaZ2RsRrS2PijBEiOYTNPphm3jHPlH02Pv9lHYBOF6oHGqJf/H4ifLlp58rofUqtGxGzMG7/nSld/Lw0BTZBLwy1WLHTw4nFnMYvpPPVOrBTPzzqZNi5LoVRbVAuLDoxYic8SSKXFIMJZwQ4mfhjKyDkWqV9JZRo+veKuNw0yTKncD/LhgQgf8tj3NduNXxmCfi3yEZmkypv32S6WVcpYuKOk44FtQ5Xs1AfwTQj+bPFL/aY22CBm+Sdoa1w14kFfGposSQjdVJxR9lEQs2OVOlnSsrG+jIMyCNGlcwF0kosxYbxOjPz7uUmbfoWwZRnDqi6ikQHdZRZCadtgk/fHQWBfvmrHunuZZyVXLUy/nq+yNGY9Azhd3fcbWC/qeROM75zblMoeV0n5IMvCgaUIHIY2BnZgUv8UBysM1w++BRu+VymCwXKqwT9dPWZ7p+KGHL/xn47ltPEYNzqU2NJgGWaLr76xvCwGKKGoue1zR4XLVOmrcOW+q/SDl3ZnBvLGnZB9d4x4uUnqhXHyZPlDvA1f7Fy44z9ataPrTYoLj5PGdGGQrkx2/EYzn8jkY7Dq9oLB4jFsEu4Qa4aJizfDznSxLvwW1oftwkdL9hlwmIVqIF/F45Vt20/byXAIUHL/YXx97Y+A6Lbu/1q/KQUBdlDhHkAI0amDx17cfeSuju4tgRP8MJNqPA7iCZwE8MVXWjT9cg0mjqBwMFG11fTJ4ZAY87iz6+Zevapv/RkkxlweM3+WMVqOZL83CcHFsdyPgsNso48+RSDi1keVF/l6OMCRgprfHwwr/2Upx0YUr4IX6y5thU1DeK/7JPWWQV2K3H3crEO8SbkC4Ixj4pZxCv0XUiascI6bVjQc0i2KCFr7uq5vThlrcTLwY1CN28sNOIgWoKpe3mPYrAv/FcsRPtk8ho0pM93sZP/R8O17uKqg5gvCSv8hjsU4+se8EJgAf17J6MjRZdzu4256mj/mfhD8wz9Rx5QDFapMk5abkzr+POGLEDZSsTzNYvK4M+S51JjAwY7130B+ouYULWep2SI/4d5Czxn+nbSZ4KOGTC9JvVhuVQboxJo5N/eBth0bvhS096bMvg4awaj4hTKQ7AQ727t/iKPpby7FEJLCnwQSzgGcMW/8PphhegU3xFT6pVaE8Y2122ylgrb72O7DXNfabNrBBnhmSYuYiIQ0ofw7TnlYL4Zjm+KHyLGpq06ikfPyD4Cbu2BlX9e/MoxMPvNQS2Qa+iLWi3RJR0uYNwdOwigLElwtT9kpBwYffyfqdn6Lkz0cHDF6Mf8XoMtuFjNMN6K+hIyXOVl7X354EBtCX7GD3BWtfac/znDEu1z4qbQG2nt+3Og0nKzkr6o8vM91IY1CW+JEh5myyMW3bu88HmVc0A0jVZeCkf97QNkyLFtIhMJ7/LogJLQVcALPgQ2Ps6El8oVS5fNT82Q5+U61IY6nvwaaKOfCXsirKY7ipiSGx6TTnKzD1HRKeY7igRJIu9HMJ9Ma9/I9lm1d0Xrf+l4+I2xR1MLnarkUfknLo/BOGq/U8AsisiDBUju0qqCsaNJ/Ki7vTE/+FTpq9NtC/JY6FQfJZp8DZNfgnp+DI/56g506nCfVyFKgpBwVRblqOQaJGiCCg1LwxwCBFTJ7b37kBiwvT4Tvt3NJjNVyslwdi5MO0+rv6HmrZVknw3UR6uhzEJLgJyIAYfjAzNG+gmFeiGcaAEqUxnzbGnmikQKTm4jQ17saG588gVc81RcnfVVvuQN8roggMTqf8nXRTihDnVhO/pM2h4iABoLazMNPggbGGa7v/6HFzuBQI5oBGbNBWBb2E/6LU4fZwqi0wjBhf6bDXOhee8tS2U7PC27f1b7lc2L9rjChTh3vs6Vf7m9sT9XvVdoKv6R3FV+lybt6V4l7RROXZcyJa/2omswja7/Z2DDY0Gz4DUf6tv88WGhZDfieCcHqCgii0uAn0+hXDojZIEbpE/B+8Dh62U7wKr+2Hf/Xdqrh8YPv2jGsjnkSlIVeLglRKhzFpacIL/AuAUHZAPsIzjB363GBNJX9uLMaXOEACS15OZC9goDwuPMD0F/9+OreDbcKJp2BbfTIwJz3gGR6vNgZ2aGffNEPDxhx8j/L2I3YCJuXPQiX3CT88Ik9iDCXhf9L4sE+WtigvCMNOxw0jKTakHjHKRXbR9oGk6T4F3Rzn4fcnmYvBbc4acQNM6kPQkTmjfsfhjLNP0Ce38KNYxRYPLQwPVWuuGnPFU6lx7uoyRl2CuZZDUwOj2Jldvmqpr/6phKxlENENld51PeQCHcaPImp3lHW/bQVQ0378sazwX2+AAw87KB4q0lvMH0tw6zVgAEC83/GOL7v9QPrz3jcCX363/mW86us5/7fgcbhI1ERmtCbFXtw4rOrmI/Kb773WB0taSYCTMELMuPSRoPp2Ud5lvVKnBl4CcZ0O2RRWX5DBy78x6fJV0hJ0Ox4zbkeRBqaAv4fwSv8AiLR22HM61etI/6Dyo1OpRufXDFPf6HEAc1iDufM9+HhPFgSWw4bwWjVysiJ2fEVMsibLJ0QC3JzsMb2R0xY17SOGJ+vNA4ohxAW2tZdls58FvLLxG6ZWBepA7g4cHRwHOoNYlI5TjYbF3G5qwhc/5ob/yHlpK9Bewrm6GsorkJ/7rtqK8jxyaHmMG2+lF47FHZzpxA/BNOEeyb4jQnFPLs7bno+fMdsRgpvBsdswU7Fwh02QqZcoZE5gEW+uxzP3Hjo/Z23szYKW/6uxKW48SIOmKDc8eAow3BfBnRORJ4vBr1pJg0BocXjzE0KTEN6I3+RgufBE05wNzrDHVAFurfZCX4z2TvOg2iEzWUTsyXoanNDObXT9UPdy0j5b8AQfFmTnTnChumvcTGfSCfm4SZQmGq4FJs+B9Q3ctGeLU+20ZziE7nBUXz8OXTm/82w/R9F1XEYBbAXCVkkicQ/peNH0qNxGrTAuTAA9Hw6tcREgcewnCGxCYlO4oymREC+IVEgEZbfYX2wmWNhw47r4i87tv95ZXxnKv5TkivLY2gAydmBY9bw5we3TIWy8R4nA1Un9HeRtQ65I5fCpvDFlZ5M45SNYTjpPrbmqF+mnfRxtHMRbdc4aUzUD0fA7bQ97o3f2trbdXKl2yaaPsdd4AQfxerjeJorVd7HWZek7TVbnVVdVZoYcXhlBDzcM+qRS/cnm/kM8y/LmAzbavLKg+6z4BThFIyWV2JTew3UEA0c48dSAQjEpjeScrEvUwxEE644oGNADGlAVH83QtxhONbNSm4+XVn4rpSrmHEpkVWc6GCSU1vG6DtAe/8O3EX7AU5zikQLS8BQLgcZm3QMrPExmpM3TkiiKLQkRU+BKNIwCk4Vuf9nmd5t0IT9zOodXb9n2aIcrSprkjs7OcKzE8sMSEX9wAs247jzqxfjuDM0ESCLhvsk373V9+1Li4r6C2AIRrXxzo4t32iy0+/m6TGAU5SNx8W1wOt7dAUFYvFbK3CPF1n3InLHquzsL+R2dh/d8yrPNv6dtkTIIcs95oQzkVY4KZNjxAGg09p6O39QcU6R/bXAMRfHoWleCOaldcLvYvmtySnCzLoLcea+BjYYl1tN5l5veA+Msnw11Zi+ongQKeHxfIWpuisRk3rmBOQ7wVmYDl56YKqlhZMQ1Bg90ggMXEhCJyYiFSfOvTjRQC6v0mqyYLkESe5zR54AI3YnJJNfWNW37g6V3tSyqfdx7/MiyEKwCparKKtpWj60zjesC1O29TzOKrDPQIqbwyCEPW/ZfRVOjxWNW8Cp4VTjh2CFclRQZvCMKZgtFNvBezGCYD/X/ALsMzzK+IqYTE1rtufo4OERW8N2z4d87Azo9aZhhQzFCL07S/qFZfhs6SX5xjqqzoB7HlimuboYc8cfRL6Xtu3ourGQb3EAJkk/aViFH3B4OQys/wRLt3mpuZHIsT6e77+3ra/zG1Gsk5atUuEHOm78dtbO/h3VyrBdWaIZ0cDFgRMH3OIOrzH7atod5phBmwpbUamyR/GkCmY+510M3ucd4Jibh/wxMIsoBDygRsdSucoS7bsiXy4cw4Zt7PCofsuKbsqX2aeMnk72c2F24uYfrRvthiP2JtTk5Vlo3NPHJCoHa3ncl52gN0yb4yluHtFwRYwKEzPHPcQeAY+Xi9wch4mA7a2oxGWre7vuY9xoGaNpxfldUiEl00jH4kA1bG8zNnnWcibGrjn7HY/rEgXhohinVFCmq0gRKGQhvwv50ZMDlxewYPYX9PpPtI0a11C2qojKdGlF37HgLCo7Co87u6m978Pjuc1O4yHQKCBbLrM/6xItQzSNUn6rtCbictAGJrmMfd7IAMQyX5lk7GWBOErigboKAelv7/5Js5N5HQ5wFI9Ix21T1i/EzPCp5jbq5X4JexUvn6hvdfxS9X0cpkTHzeBe6Fgvh2gm8WpA1RedSU4g7nWHz1nV13W1Sr/StWU+zEO1neiMu/5FKcd5I+yZYEU5PqkNWd5CeIk3n/KpujNJ9B4huPTJSM8tI+7YbdhQ+9Tq3s5tzCPuuJSwhb5Ib+ZYaF9gW+Y7SRRFq0XGJaobhpGxyYmfb8p1qXqFWDELyQzS+gZuaGIuML/YmPavpGedUjnlkoqrlnacCQaGHr8QBTsXGgaZ6WwZqEqUC5Tp0lF58C7fQZxxRBj+HNIGjnxuw27ph6jWxG8hhiGBiaal6qTe9a/p3oDEzoHroGNEDifukxZAz1MmlgA+gxtMcuI4jvU13wquppugQvmxekrGVag6lXJXA2ZgzY1vTzkN3426ZVK4z5VusV1UQACLpd4J9EQyU3uooItxV4MJE9DFzans5sH8iAueS06jcVKJUyaFDe+UQ4IpfRJm4Y9Wq7Y4aZQrjKoP0xvo2LIOk/tFsKfyQvZrTjZ8j0qVlXGars2RjQcRowMv3HAM6X8HTgQ+OWHudWLDnOWJXtHywwHCO9AGly9zmtr2wv9AGK44+YSEOGYbRfNI8jvatmE80pPAPMBqNmEp77eQdJ3fuqPzJn6bSlfmyidW54omogYoZym04j/jdNMJyqA6SpUKCxFyQ9F4C/V7AiwuzMTNDpxKju/F04fptl3KV1BzKpTVjJ6EgmfnoyF6ugwt/TfYiITBcO5UU+6WXF46V51Vp+Ugxw4wO5ePScQRuxOe/wtsUMAhZcF90gLIiaeWF+UT7vjRl/34QGd05Jdwy3QU3UnhZclW0WDhLjWUH/lKa1/nmVPzq5Zn1FsmPerVQgvzzkbbeZ6qd5IyRvsiDO5jIzZ3HfTD3xMlMEnSm09YNW6ZBs18jo+Nvxfd7nxsPB6cg3IQ9iYmaWTEnXjilEnhwLAYRzyBmYKIwYB1vD9hrH3Wzh9wzaG/et0wvyujT/zNSz1zteqnn7rKsVLvA52BRpNXsfJKxjH/qLrxThFNykylKDrB9enW5oMvDMUzkHBEVPFmSzoRQVYdiS7eQT7+ucVpfHrIFdM2THln2NkKPds3AsPvQuT4G0sZyGAd9gTP86/G6alz+J11kXAFlSFqD/i+80EQm7PRSVPkHkAkJx13lvBlmH2jZZSyIB8sIx1y9MPuOF3qfEpNHvJ9npsgTKOUC+UUgkxOEd6SN89Pnkq3TI6NDdjd4MlO4MZrlEiUUr5KxlFywF3HdL8TmzjfBCfJ1VWxb8XNW8URNbjAz8Hkx0mr7j/t9sWoO9sz6q1E+nyQwqmt4O1Y4TYMeWMQx0kHL3LLrGc5iLPCIRyXIbPEPg91NKxix34Nx+QXrexb9y/4HijsFUZyXNw3vkutEXDXrIbYg4mmGbc9KhGO5VAYkWZwzwGaUBSb/hhbCO8+9O5T/6zqMlf+sQmyYr3DJYN1LU6jZUC0JhEsVai5Ml2I70WQMISAFrjPwARIJmzt9kCu/Paizi6cTj6Wsd7vm/4/HWA3P2OvP4yBF4YPO0/yQThT/aIdKPwdLnWaIaCAAZen0JhfbEmbnyvqOaLM7KAzpVfJ9yif5M2VECzZbLdM+wD4qyuWJW5bqzojOfEEMurnL1zVu/5yNegqWYdypQ01xzvgRXutcvfEOiWvPw+L4BCMN3p728kPvtbcDONDi9S+zJfYqL5FdTHHNs9rtBtOkmPYgSfjpRCmrGIAhR3vKIH0J2XmE/sKN2O77NNKe4j5y5F2z70JB14OV0f0iX0YvzyTBfOZ7xUtj/xGf4dJWhtMzA5YyDtNPJPjsNZcnHIsgqw44/41PWdAqHkdZjaYc/SLS1dWJm4HnW/Fk8SfCSTIlW81gkynEYy+HAK+jY1mw0vIAbmBO2kZVM56sSzFjlSQEzcUzGLi6Ol37ZT/qZX/2fUQ84w7mybBImlYVYad7T3XQyx1mmxaTAzkWP1G6lIYeGKvws/9N9wyvXiqW6akZVuo8GgzmZR2rdn6Egyqe8i8qbyT9nc1SKmbPJbPvYsrIIWxSnMx7qoMFA0M/KFnPfbEL4G3kudyowyHsDzqK6Cxixxz0npPVyc1LvktHBPkmI2Ax7+xYTyMzbjvuJnGC5yxsWeCSfk3eGQ5hMyf0nZRaZajLCqtctwn1QtdB88FY1O5P5i2/0aObyWCmSm/OQeWIsZyGCIw/hn2CxwaVkcrJZIjzlSAhXhPoMKGD2fllGFb0AZ5FOorrY1WQ0pmXhRE1YllKldjq0aS/NG7kKebhpwJp/qgsO/eC3XsC1dtL5xoElWg8p78KQVfxb0OrOl+PeZ0LiPTGDE4mc3hGT/FCdwN38GpPAzwrlV9nT2qT8VPafFDwpDStdjgfT84ntJPJ0J8Bv11+N/L/cZJOyfKUnaRuOQooqq9+Y4Od+Hd9myMgLPBlR6EPRTqUQsx5HfVpvxdjkulxztlsLRUmIKmL1xiDeBVgH2LNkWMmZ8KX468K5WGKqOqEw6ppMbc/G9h8fFkEdVBXKpOFU4tw6zDSw0cGs4BtfoxdovTUc64XERraqEq8RwFCZ0toE851IWdrWJqbEKE1WSAwUiCL8ed3eGH8fuzrYcZ16rz8ArrStQ9SZrACUUDKwgTmAPWIz+BOOWVtOMM1jClMIyTngqLKVDsOox6Y3JiLU7cagqj2kVUrSzjbsg8V2ATLDFDMoFH4MISoDPkjm7GYZFNCu/FrjPLAbMAaPvN3FyGUfwtR6DpLoTC8mlwzYUNyQlVx2hZy0EDiA3TDMcLxYXobBifoMdyyhAFk/0ehSG/V/ulyip1A5A0yzqSH9ve0mC8niJJvJdxNrUeMxJkFYHGc/JBcEfGTj1d7TRLJkipHI0xtUCVfGa5w0YPO4DKS70rR32i2IS/KScLTCqugyhB3cf8bEMq+CJ1FZk/wkzbMKpsC30v7hVgMwsy92/SRx4aumiAPA5GEzjTuBGWuwEN3QQvo+J8tdU3Dr6Kg9zVseUCjIPLIOuUSZxx4+DBcMSEd17c4PP8YJ9pe8eIbLHa+kCEg+MqCQU+L2tn1nKju1LHsInLRL+ZwEqNTX6PizXDVsOl2lzqAKJckClvXdXbtZ7lm24syMwztfAqIN3b5AP/WzgUAWJMGc6EmKLWwGEdVZl5j/6LfpuKRZLnqQ2AHMXWrw2tOTruDCznWHBFHxPFcaixFfItDtQkeVUqLDkkGk5Cb9lEs5iAiipgMnGre6y8MabQuTyuCEBvvlyrxFjqCsPrvDu5ls/xtCRPhbJtY+FQCBTFjuKfrJNeBm35S+QzTrsmSavSYbmcRl8W87atO7p+sjJlnAQO+T2YRHZSfY/iJ4oX2N9ZL95V359P2RRGvKt/TC/6ez7pL3RcVW7BBicHqcWCjd111FqSsuCY+9QyTd8RCh1kV868BCezTlDLFdUAUxPRzxOzO7EAyvm0ZeMET9rK+bn7oeH5ZnpRVo47ZRlcMN9ZTdixXCzPvrz1MRz5fQbcMiU+ocb47IiQjYtbJtgyeNTyzc/yPe0syL3G/qA+AbGhrizqtZmnUTnL8CRYEkJEXFTVaWQLR25Pfay9+2SKrciFq2/VcEdZxWyurA7g5gr2l68zjdyaMTd3NXSAn2q2sjhzAFzA+al6JcGiGuq4kGUoYGTytC9m8ot2HX3Dq2TiK4w5VZZiB1Ev1K4rVWFsy/qJBbsFHjd0CjutCnwVvp7vqgPKwJQdeHJNxRM7O9GnvwitgmuoVUCcEJ4zfyLOaqHwlUkCnBHVjKAre2fKspa5BTW3JG2uMGG5xS2Tnz8Xg/lKtexfqPpUMh9scP9ro914EjeD0aCJNreJD/HEeMo3WZkUjNT8cmxv82ue8/uTaCClKvsHy0U8Vd/lMWxsv3wEFv820GYNDfmgW8tkzrqpPpCk31SyvRY77SgenMDAqNlw8/VAurHhBGVwSZVxEocsHYKzNUQVlm1+gseh8S6vibGCK7wTYP5THQ4UVrgEeh1G3w2eckc+j6N9a0mIRMWrMAuqDj05tSp52syJG5fvXgwR1TLoo4bW+RIUbwITMyAxhnuf+1uDwz/HJJTB8gTJVV1Q1E8IEw5DX8T9gCgxZt3jFphhIbZw6FWmBSvQzAHD7wzjbpL046azUOHYb1Xf5cRKs5Pw0/hWqGu+cdQd3w41ORuEGQz/hLcSli0JJgtVl8XIZ4JOgGZgAucEhoNWLxwfG/toAaciHS7+iBZ0l2u9HTqBx4O9Try7Hk1nKf8myBiC1J/EDiqMsYF/ANA/Qyd8Kb1E8Iw+Oy+eiwbEqxUP4V4x6GjGEMZ0TsXJKVDQCdlx4nKj0lTrw9x0IT0tEIPEaVRhBBIl1iU0OG9+iaZf8S6RM1b2G1ZN7sCY+r4gdxfQKpvScKjCqheLVLTUhjdtO9bf0tZgnAiVrrNd3xugHWQ6HUAFBRPWEXjFnqiKmSzBH8SiiAdWE+LVxbQ+SG0WvJdDQqz2JIKMDwHPjMO32EegUUFqU1VyrcVsJ3Ys9Y/lwBOOO1sWJi4HXMIDOJf9t6t6O19bNMEHrpidl5guZrnnypsEhuVku2P1+XFsWJGzQbmT2e4gNtLhgAsdrXpBcKNyJ1XtGMyF0aTvBTm45Vmf3+cOP4qVQBodQ1ZIxGBS2BkeBCfBy7DysHiecdKr3Zz3MQanlssM0arm9SRVTYjj6Mw1HVgdo27uWqiSDuOIMzrRBLdMXNS/qqnEIhcE4wOMXMNy3/TOlaJ0hrS42PiUHfMDzU2mbfu5OKcjnUsNtEUu/6JlrzoSB1FYCFm+mdQlxbJ+D7QnPp4xjBNbd2z4HsKSIwg5oIKNjEUreMKMPeepd0JX8ljIRYsnoibqPHtiqo+gw/iwc+yAUA0BhisYS20Uzp5C7XyVjRgu22FrGzzPNTQujDm3eJItbk0UUWbc0DiX8feU35NLrhXM1OEGTiIr+tY91ta3/iywx6+Fo92bqYnCI9HsEwSIuBTrHBekJRiOGMi4wh8adcIi6c2UyfNINWlwkSDLTi9kx6Am75LjWDzeWwBxCeISq0qK0MimHTg/RuIRYMz3/j537Dqsyo+D1bJPHtTXtVct+4GzdL5YGVRBIJZ3T/vWlTgAcBFELhw1iTapVBWIFf6HvYoGcHnWtbKsp1GkGpuYVH1muyt5eGvTwZ/L+24vj8CT6HCgCQ6zRY58Y3g+QrzDwzNNENtvks9Kni8P1f9HJhEyIzh+3ba9825qFOXc/Lqc5/0PxwsPYVG0R+KsMEqCU/UjkKyErDs6ioVN89wBdtOBkMVvkBR6Hgx3RklM+GIgb74JC9jnwYgK+1dR/zRZdksjtIDGAYYLwyYP/UuYjLNxuCP3S8uzX0EzispiGcLKsr/Was4BxDLDrt1FsLFwSGiIXa0EktYGpx+tFE+gPdxg+ldLbHSwpKnUSnjV5mBbLoINlJKLLUQZf7Bfg1Pq5psH1vScikexeFZyoosQkWUOubywT9EesGU0dIz57oXgBPdAjOGA+yMzQzGeTEQcY4tQ1EXPUuoPBFB72IYeg6zC3CCOoLE6CjnkbduEG4Z22xtAsUUoz0j1CFi0zpzRscll0oYvjOv8Bl5F/55eLrBcvZOtKoMSWinsjIveygkLoIyciJ9A039nqFsrdRJOL25yghenLE5KYK/Rba542vau3aI+WTiGGzetWgqn2pwHJ1w/uAEHYIrEJtqH5qoTwwI14SBhbY3HMc4XeT7dHAHTueJX23chyuSW8a+175QRWvbDQZKXDHrj1/l+4OIYtgNCJAdtFI1Jgle11bfU8ki7m4ZFu87Lnexq07dPYFpCkLnkoAtxcNGvhr1RCn1KWraWWrhqiqc6Ce882AGDIEOD7shmOOM8YfX29V9nR+M/llkNymoqf5yysPzFgeMF50FbgD7y8qhYOEHHSQRhpFOR24F5U/gaNHGa8562w9Z/g9HVxk/MpGoymJL1mrb9aXiK2Ef5OSdx1YfiVkpwhA1daLe4mPw7/NTgu+PGrcZwHBdqbHBipsYRV5SWb78Kp9V+Sot3MPDFcSSMDPGqxnpUskyqj5DW0jM2RszpzK84AD3fPeoAp+kQDkxyO5UsTDWnrToJu8qIO34z9HheTCMw4hkZop1oZ6vmesxatoKmwGMdW09tdNJvhMlDGMANHEw1HEiJ2l7hxWW76XkXKUI/a/5L5KNs8IHg8AQmlp1fphcM0BiqMMVeMRFvNTgpv8dKDBTdv5Byffa1WodK9qagccTJiyvLPwVPvmHcHX8bToE+SpserF8SvGodj/3LH+AMOqTJpv8Kqj4WCTKwOQEdgdbPpIMkHZj7Z1Sjb7CZCfOYkNeYOzOGdb6yYcoOpTZzarRmxWKTkNCND2jHRRgM8j5pe3MQMQ5tGizHct0PvO/QEwYTWwqEpAjWXD8KcnK7wfrskDvyO5hadMDPiAgwKaEhnpTjY2N0BZROL2bWSvtprmJU83f2NzV5dfS9L9/a13U9lOKuZJmT9rtqrmfSsqm68zADvFhnYbPqlUKQaQMVnedV4S67mViFJ2lBqjo8NjNpXhHLqtU5w18jZX24b0b7pVVdl2kKh3aWNs+NjZ1FR5fj8zIlaXh0h47jv09YRkoG2FIgINPANuMr0TDA5qjYNjbNq8jvgbGdYHRmjDn5AwenIuCU58P49Dso3xcOs7D5OjlG7T1JXWDWlSUH23ciRIJcS4g8ufZqU74So8f49J6NrhMSZFhMWQGj0EegI+Bb/YorCDE4Y64hPWhV8Ol5Avsb2pdEp8GA5+rHp48y/DqHBm5IPBQhkLrG/CNxkBg2bJBEcO2hvaf+WlT/sMkZM4klE4xiGlam7eRffx06xXdRni49KUJkY1eW6lDQf4NWQgbL1fOlzaijugTGpdSFJzdBlAHQcxUmilNUz3V3BzDwwsQuc7TM5NiMeD5AERwITj0DRDkqLmsMgnZwKc8L4HOPy60l0UkKVvygFXARdrtX0NmAqlfyNg+N/MOzw+8aTUO4Y6NgplKlWU93ITbiJ8+8EPJRqTrehfKgBEBg8GFgGvDFNuZh6+sN/e1bxHYunZMmSKY6gxb2Lv5k/vH/oYAHi2YPOl4pOFVnBZOXSsYd/kBUjGa3DgwbOfA7oE0gqdUzOBNwmiY7C3rKsx/LuMv4ngNu4nvt/VLc6672ra8AU3x64RCITL5JiDH7hwqPDsRpfJMcjMFpLbxPTIBqD8npS6zqvrq3c5sbBNdRrk75OrGKO6ZUWN7DXPALZx2ffNEPD1gSWisPsbvgIIzvH4ZZ5yB67Kn3S/UN8Woe+I1CkAHLC/BBsJnoDPUJldQff+h9F51mtWWmhSDXMhpoWzm4Ei4VvfPgGw7ymAkrfnHrxs5DfDCOKNLhkd+frex78AeMT1lq3HSWajglP3ds/+q93sjjlK9TRiqYxeSWVViQZPjey9Mq2FGjlnsWMasFOxeztu2ebUKQISRrpdd6cZ8WitEKE9CssZfkR7Y3xcQhQwxN20ItV9YtazNtMwcQCgZ+yrYPgmYgXF7w2lTzneYx4+HOjNPwOuhVu6LmFuF2wzrO/LdIjKlna0E9y4UtYMPaLJta0ECZOWb9fJFNK6hGUjMHneVLONnJmSo2h6yQUkQZMWEVDOcoreCj4tMPkx4nVxWu5u6DLWHZA/9pEJmRFBVFZjVXlzIXGO3Klm0IB5Jp/BXnX32FCMisBZ2wrNkIO4JugSDXLjqkCVRzo4t3kW+WaFqTRBkdBr7BoBBo+t9o6113F7vRkpGxl6OJC3L0dEP6KphY/C0N7IAqy+AifkmzoJ2LjN14ACa/iyVuLcuSWwYLOFjLoIMsnR7QDgAAQABJREFU1eEmelJMlmJ4AgPxVEpQASaHJO4pSxGVQp3UwMEds7jZEr7eVJMQqWV0fnT8PCwTn1WyWyYOHKysYIg8BX3b3WCSxZpbrbplqlT35eSHfmPREwTUV7CCCC+Z5BNkyvASB3/oXNSygrfS+7viwhMkVT1BV+yRMQTZepNYyUPJuIlePQVcvJKQ1kAgGFp7Q8fRdo+naQsuDsEoU/+tJi8SYw5gORZvGu+HEXGpB5s+SYUYXgYOiAPjQc3/i8oAv+aO90cSMIk8fWVf5w2wK/7TLI7gA/FEsmSmKkNUTtMGeTjHTKHRzvvds29t4AElfFO0fv8CVOubns5Cv8OpUACCCtReHSqJLWaqwrrBgIsIfU2HgM3ji7V69XRK2V3fP7fZyf4VNEdgliwcyMJ9xahXSBTIHQcGl985L//g+LIhsea2VE4uxoAhcRDgJlonFgQ6IziCBQRhHwbyd3C+xDROgios5f109wRR0asyBw6dFiduVYbZGJYKi61Y9a/KOlSyUOgWocii4HKlknnVUtqKWLHb+KY9XktlV2UV7hjLZy5zDct/+6A/QvkLiURsrkQRjpB8WDANiNiBefFh284Yw7fY6agy1dMdSMkGHO0DYwX6dbp7wmDjAY/ExEjaDG1Hd0+w/HXR3pd2H8SWqDk8H+qRPoPZPU+BDCpQe3WoJOhwCRdyyEGwT4+uCaTVoMEy3bDsYDD8sqmmIBJZIw61gCpcBM6KvR9L5mRumVhvEgNQ8fwyJ2PDFvTNtHNbeK8HU9gxZv5b2IADl3wlNFsGKH/HPCZc8syRJn8h/uyPbDvK/+F4+PChnBU6x4RIanLoKn96+PCQ3hjGkNrUq/ISL1jx0M78Lx8CZBqP8FFfEQSwxIQVNPA0xlDkbU38VNxrf9Y8A367TuCpL3AkdLiKgR2PQ1ZhQXVJQFJ73dFhM7A/TQDURmFNgLGIhVQbcJS3g6peIzNY4ag68Y1bNLaZCk93T5hW3yfunughvhZVDgP/SXhaIcXRRKfQCbj6hHyxQJAN6w+aIEeHhwnvrnAkHRgDIEegyrw2xR5AYfjF+4u2DAbarz8Y4oULYNgP3T60V8GBnaRUQgTwp1HsehjfWrVj3b1qozBJOvUcVsnZx1uGPpuH/J2WBLlQT9oWIYY01ei5TVbjgabvny/vNjO1GrmU2ptl/knZXa+Rkle2mOwPGJqYdseFQzYD72GVo5qJ1XO93RURwvKShOyP+aaGfbWEgXLH5RvpCxvt1Gouc5OWf6IP0C2TjUMgo/3Y4/+kpFPYKEyaZj2HB54m5e7QJb5QxKYFhpc4T2A9N0JCxCFBAjFjvA2PtXefjHdBzaxYCmpvhuvthMbPoC1KBaImWDuTytzNlCiEtD/6Q0GEMyIEGUP2HrE2hMYtbeZOVIaqDsz6Q2YKm8gOu/pvn/4fJz/FArPjV3XBUThxywSVKHqxRUOfIdxxWHaZf5OUX/UDG6fNIOj4zMH3dPWLTegawCFJPRcirOo7rX3rb4Zp15ta7AzEymZeYRynDAzLwYsljrh7glNUCj0+/sjabzZSNBInjUUPU7Ad7dipR1CNvzhkeuJLbha9+JUogOoDMPAGLKyQIDuW9xBMMT5FNTih2JXIuUbSZP1BeQPHAiEyzF9zMClnoNVcBZRb3DKxjL7vfwybcMvor4sDOEmbMqwMfmwC0mPwqDu+fXRf07VMV+scE4XSLsXFWpb1SWzwDYFbpl5xSWpw3A8YhrunTKrxuNRg0xksEdu/tJItXCw5Zo9yikzd8neLDeA6n+Anxib1sv0/Coe8Mu0MYwLeQa4QeCVyQbNwzVn5nEJwZAmV+kt+L2zoBA9KrgWjKJUvwXxy2CQDsn/NllPSlrNOuWVKkqLqHOqOY7u0o7DpOb8/abzmDdskAaICYWWDD1oRrfet78XU9vVGGGfH3Ff6WAuND2EQGxfIfkGtELa120QzBKPsATAMsvSsANw1lmRgYuXESfWuUIZ8T9do4Pvb6BOMy3XFRtdYreZdXKk3UMmYDejn5v/CXsN/S6LKK/e8c6hcAuQ+uHyF+uul4L6kowunW+B44+bMOFgpucvtrJ3zvRtW9264lXG1Nbe4CM4SriB/T5vBFcPe6KMNVko2KmaJsd8n1ab8AL8iPjxVt8EB0MV8roWVnFEYS35g3T4a5Kl3KzSI5a/Xi20q5jdN87YiGIFp/fIpb6jocVpxSfUCEusb1jkIwpWC8d9t20/bKXLZKjctqZbDWL6e1WinX4gDBJhUS9M55jIaGwypff7Ik7Ztyok8lX699IVK1RMDTzbgnra9azfa5zMqnyiRVe9muzM8dnuQBPSk6O7JsN6xs6P7WHEwW+XuntTE3uQ5P8MZWIhJQxJUb/SGbafqbAMDtOcfxp5qhrPcwmUH+V/7nr+9CXZuEVLO3atv9XBnJ2c9KZ/b64/4eLqtFupNUQKXw/3H3LAaZf4ohycvNraqU5x6MLzqIHDnBd7LuI7La2XYPk4aOszcCKgNuNbDOq/NBfl7KadPKktmLrQtwkmXXuKXpTLL8Ps8vq8Vr98H/tdbnkJ/u10pE7Ds9XbJ+AStxVkBjtctFA0KQeagEzf3pvkLGNUWXKIDtB6ACokR3RJRjm7syrqpray38pdWtRh0HiUTCdwknp+1Gw/N+x4Ec8k2eMK6hzXERos16o0/uiwdqrkpPdqqrX8NFgx4hxuwgXFx6AghnEBZlWhbxKma2LlwR720lTq1/0U9b5I4Gylart6L9WfpQGm+LfRGXhR0Aau32GUtGds5bGvTxAlYygR/xAxCDrmgH4gl6o2D+ZEnwCEllm2VtbQLnBiBUdwk7hgUxi2FGby6O3bBmlt/x9bjMZTfRTONKD4Y5ZDbTwKjxMGGrqj7wWn78nu6npBxkiQRHTYWAsAaXQxOUXu7fub57vej7p5iJYBAbK9iv8UDT3rBfNHm4KXdmVrRhsllsncPu+P/g01oG9QpsTW8uFhVW7hiu6HOzXajjbMCEN80/hfLKQQ5ugOMZr1HPB1UWy0qXR4ZIoE55uU9dI8vMzs1cCqddanpq3aDDfNzYeOgAQ1dVHPjgI2TruocmK9dLJ1gr2JsW27Z0A2MW+31j1O/ag1TlMub9lX73OG/UG4PopRoQ51tHLafAae8eW7wvbA/Z5zJOlfzkWr2K5bvGf/xhidN0/8mTh6yt8JJT7W2VvnLxXZjqtzMQyN2t/adMkJJRVGGbKgTWIH/RXpcxmgOxRmFiOUvUnWkWCRIRuAus7OotvlduuCpjtLNXAqUWwjuY38w35RJNbyR9irQwtBtneD2Z44dflFhEQ8yc9MZ8aBs43mXiTW3WjNcM1dlq+y7TKYYgG296+8HNfoG5fYcdGwT/otbXEWUGT48CGSeK/sJ8JSOdKSPxE1rMcLBIvuWJ/PD/9dgptKodF1wyWwzNI0PBsgZc8cfyHrOFsEe3maKBJmzFl+27thwm+EHP86InmRomSpJB1mMRi01T9Yr7NAhQYLCfg44ySGIauYwWF+210D7LVlQ0stCfc7S/NpJ20IfthlcihHY3151/2m3q43CUnHV8eIhoOTzbmPm0ziA83C64DCCsZOPucDk/kGT03CIH6Q2Sgmq2N0TxSrkCA+9r+sR0OHvoj9LkZPXW6LVzB/WT+qI09IQVXAgf0PEo8CCY7pIkFkjBBRU0C9gVHucvDQ8HfgFohV/1q4ZdMI6i5+4ZfBligp/fXVv131CkNBhqrUe7Mgsm2+MnNNoO8/LBXAggYsNzQmGv+NfJhx5Oc6QO/oXw3ZDexUbN8WPrkPOCwGOOS7dsR69lOpP5JySt6FM0KRpobsnw//bPx5948tDkVZQvSY6C/4Hm7z01bBi94cGyJJRk2JfnhewVRh5YnyaQaOZNvOuu53aNiyqmpwnEWS0p4BBdSf8vpZLeMu06C5G3ldhHedfJOgPQfUmBbftf4QC0lWSYBUTJMoe2Xi7jv3BcyFmOIsyKNWJ0WaxifFE5zDgv4vjwLxm1X1v/a3oXVfxZDT/Bq+uFNSYa/MP/z7kwD+HjQpscAUu2zLuuFNh0fg8Jk93T2nHNs8L2ntT1awGx7qjvBY5RLAXmxUlZn2qq5XmXxrVlupO/XHsxF4wtX0mEWRmq5bqdtq+ZJ878huYC4RR7aUl2yEoChj0CbQ+/wsu4fKp6glSQdZvevZHWpymQ2mvgmxVki7DurPTYwDAaaltjXnjv6OXZKZR9Wp+SSpaI2E55sy+jnzgW5cN+3DGMk93T9xPgMnUkwaCh0+tdgjQD2Ul2trb9d1xL38zHSFEJ6TiOK32isxSPlUHjjmegl0G41JuEHyJWjaMhvdFhnc/glyU7dx96p/hBOwjcNKI49QWjJuHO8Aq8Vnyr+pPqvwEhxNNs5WBZoV7A8C5Dt+KBnqqsRIycNF4A0dvfTlWtu/Z5w1DoORT9hSbIKv6yx1/UrTmZpgX0Esy61+N9V7qZZIxB+xX9a27Iwisf26xsLlcop0L6QuUT2L/3rSsy/cc/y8t0QFfjVgqOykp0zoHarf9PFKuiHI1lreUMrFdMLjymChTqOODy1LBxUxH1V2luR9B5gcuiTn4V/Z1/avlB5cDIMbkf6TmsZdSKpNquaMCMhNJHbAshIEXZ8gb/U2qwf5QtZRxtnLIwMXRWN/2LsayVHZqaSyU9WKdZosb/cawnKmpAznmj9/a1nLwD6Pf9e9FQKCwAQcm6DNwaLoH9rgTnwVQY5N32sHGuH3W+NhY6O6psO+wCDWbM0uxAgdRnFiBM62zx2Fop5RVwpwZLUIANTYLDG0Ke3PDpm+fJXr+GMvqKLkq2rQEmR85+Hlv3dF1IXaAe5oweJE4TRLVJFGeTIwND3JjBwcpYLzDPuNQrAZENhtZOrDu1XSpmbT/4e63YyJ51bA3XvBknJwYh53DSmEyGoVhmk/IBFzY5a2mOtdTWZQaHGwm/wYz7DU0/6ou1XfV82x3RZQZRk4BmtaZj7dvOULauIpVGaX+YAJbe9dvpZYyDJ1xBVsULfJnEhxmw2ghvqnyTrQHrAWBDUI1Ptp6/7o7hd70wKbQlGtWrgqJ0kuxz2XP+Oj47S2pzDGQceV5XFNlxPuUNKvuUTVkWGaQYCzmsNTHxGKtZwcQufE04FRLRVB+gGwG9DY8lDPuTdmp50CzAhNmKGKI2wYKB0SjDqQ96o9+o237hveGnaNGjJxXS6NUsBy7//q2Jje9txfaL0eQ08UAE5vWydvZ8ODt2hl0x761qm/9GaofVbDoZUu6v73na82pzHsHcSwcXZ90qLgyj4tD2QqTMCE1zibKbAZQK7VG8qOXk8GdrR1m5JBZBiToc7BSvtjYYLwFqlEPUAaCmUvcmU9kmLDECxh8Ejgod8FtDCXi7xJizEmniomxQFWwIbsvb32s0WkoiRhHIXdMyx7xxvYAhEvkvToUFA2kfy8KAhysh/7qdcO4XSxuxMD9qD6cpEAh0QrsQX8EHTx4565jel6Fd3JCLkk6ixW29fDgzKH88PdpBjakN+Ee1mKVJ2m+IW2EChSYH5xEtIbdkS+SGDMdtsNM6c1KkCVywbMtXfikLOP1GMg74FbeqSWiLOBAZkxC5KN7w6rdu9p2dH5T9I0Lu7wzAbTY74V7hUy/v2PL0VAKfzd8kYk8n3VKUjYOaomDDsJTYdhiuELMi4aroBk7SJI8dNj5I6AGK+X6o+7Yj5udRhxmM0tTg6MzMjAhMMnKM7oX/e7ZtzYoUeT8S1q5FGRcgu60Gs86Y29+9LsFeoORW/2KBWqcobBi5CsDdbUREOO2vg0fJGKccGdDbk6CzMiymQT5Du24pk3jZCwjfolNJdl0UCAxXCkzOeOV+2I51D9qtXHHlju3nu+P4hTiW0NiTDHAZpGTlzv/cqZH2ZqkF3jnLHOyB3kG3DKJWlR82TGxIDFmJ2m0UjaPa8KYibLXUfUYlBPPWkhLRGiYhD0/uBKG7HNou3m5exrxcl7WaTgxu2z4dNYf/WFWorDYGMkmH83KQhWwbce6dwx6Y1+iiC0U3UwQZfbrxS6ryr9IbwrjjMwfPdeP58cvjxJjNeGqeFPvsQgyI0WJstsy/NpRb+SrtOXqGBYYt8kijMUEinmT+IQVBQ2CBxTOsNBxfBgE+fVtO7puLHDGVdOYUxtFPaMuUo/+ju7X2JbzNtpppvw+Cb4KDxVHjJkY1iYxZoJJVuWl79WDgBwWgKjw6fdvuDMwrG+F7p5IfZITIIkjanDYjzfNi7kPQaKA9zVAlMO9k9W9nR+A0atzSWdg80LoDaHgOGf9SsGlXK2t8g9pDnm/0EiXG/jDOCPwHiWmYH7Efa58Ew1IIcroKDQ+09q74f3j7vgHmDHsXsiWMAELC7bw3HIUGHLtXObx0EPGTFvg6G82LW+tdHCUvxY4Y9WAIrIwzMtCQ97SqDKQFM5zNbB8ByDEA96O7Zzn3kzvx/J+M5glfVUnAuoAkJm/DKpSA+jLxWPFcQsc7SPcHMzaqWfuy5nnS/zCvkTctBYjHAkYxjWJrolzAldC/vI3ed/9AzW+qO6JgYBDUeGYUON/ocqp8lMYsywYYxZskjsQNT0ACvTq8GzDRm7Ixp78EhFkqTxlypA78nfbjg1fAlv+khF//Kc8mx2eRTdglHdhQSI4BEaJJzAdmM1WNuX67u4xd+wDq/u63hK6YwIxViIAFrKKLxJiFm/gEeNMx3KOpXlFtGqi3XZVPYAjbplgPGnQDOxP832B0GuCrECqsrsQI6xgpN/6xpVKDY79nP09bnFlXBRWjNDMobWMd/W3b11T7Wpwqn7Egb9J1HiyzUpbx8GG8rfAifpQjcO2lolDbwvLCCr8pS2QNwrnNVkZWlrMjbqjX0w3Npywase6e/EMIf5m2iZJ0F6q5iXcwwxDfeX+NTf+Q2DaHzkwlX0m7EJwe7GolsWkpfCFjsTfJWRXjEJAoumFH8JKw0iQhSPfHhY734IZjiton4HfEQeZxgemmNki/AhFKpv9Pe1bV46b3j2Qfz9jvKDmlgQ74hQW34Tj1rQFvWsc1+z8gBDjGpmYFgH+qsuSRudh5/gubM4djZOzifXP1XghF4dTgPCXOHp92/b1b6u6is5RoOgYpncUCO8+ipO2x+dheBSHSaAeh/8K3GiUPiQZM9MVQY0jYfjItMsV0hKKbWkUaiQY/zmG26c4afBztKxh+Hh/E3PI0WRR0aLNVXLLlm+ufTI/eDE0GR7PYiqD9wmoQnOnF+E4k0QIoqpkNL3ZfjN8NI6kV5gZoR5kEhiwjyDGwz2+779yde/694TGckJOE2WNPUvNVo4F+VZwyzRu+h+F/PsZsISFo0vxlz0sI7FSHZFyfhDjAdon4bdaWSWwrPV+yXF5eIXHcuki+M8Tzka1bXQ8zIUTw3L/AcySBx2b0wfWdL+ecfB+XszRXPmW87saw2Qo2v6r81+sIPPaoWD0jJyXfyBrNdgNJtaS2EgjnaEsdz70poBNhGaI+ETSZB7MKwsmZ9zP9UK+/baRJ5tOIjFWK1tV1qT1L1tj0CQkl0EsADm7nOW/DaC8F5Kew7i0QMMbEG3gL3dJky+92aFIYNSdroZ4pBunzaA4EezB6uBfMVV9aeV96/oIBrlMY+Om4onDpMAsVngZgDglOXDslg7ssm9zTLMJa6LEmCmc2DG5qQkd8rNW9XVdi/c1s1JYrDaopnyj7bWrvbu7JZXthOZFHuOoZGcEZF5ISFqDw4+jJkM11TduWSbRGxxcy4/nX+sF/tno3EdjE7SZOtyjoDcw2l9kTOKmrcJNjCGe7LVgEqhBvHyPeblBsJl9sMn3OdNu/Bk3yBknWiaVRtJ72QiyFCiULRMAmVlQIWtgzdaT8eJUiDGPxox1BPQyGnKGKwQmaWEjAGGyN/+INH+NRcptdtrp5vFnld5SWJLv6ujeCkJ6KiYcF9Jx0azghKTqONt9AqeQGOOE0N2GmXmNaFZogjwbdFX5TfVnyn6xKP05NniXw3hQ4jFU7BdgikiUx9z8h1ft6PycSr8qKz9LoVAfjgcyGEXVzQJGXfj2Mnz6fxABHOwXxAxxx080S2IGzQ4TIpHHQXL/Fworvwxs6wer7jv1ARWOTJSBDXJF99T7Uu6xBngpCROsaAEH2q8/2PXtI7E5elmLkzlBEZq4aRMYAso7tqi+YFr5q7jhoeJPzU+9r6W7qkP/mi2npBzrR7nIsVnWI06HmsCJ61tpA3grM9/YtmP9LdV+RLyW2mqhy6rablf7ls9l7NTZo0GuuEcTp1+wvDJ2pOAmiIwDLtn9I9aux/HQl9q3WOh6lSs/jh2mpWgOn3d19ByDSn+mwXZOUGMpSX4Ui9I+NbRcPh1Y9g1tf/OW/1YHa6bmlyTd2cLOS4Y8W8JFYDB7kJVf2XfaX6h2BvsRO8j6g+srzmqzpRP9JoiLLDq4S3afj+xOs6MyjMovGr7WfrMOPE2FCR+eO1BbSCo4iPCek1vsyZNx8D/cMmVM2OfsEWLMHd9qPyJeaw22gOVVbWcZucvgiHcnVTpV9tLe6mGW+0QfCsDx5Wnt7+njueA8iVLYt5glelV/4tjhP2BhiugAv+n9BxtL/2vTAUMJF8QSPrhjKLOZWxRHzLSZh8qvhGRnjVJs1FlDzeMjZxSRLbf3idsh7PBluTkBShObwKjsQwk71duMZnl3VKenOqoKU6t3NjTLnl0++KG0nTpKjAfFp8H7VduGNTsYgnrSsJ3L5ePG/YLoFzWGAAlBa9/pj0OH8VKxc1HY1E5aDSHMUOSljBVyj3fv7Og+VqytFVQtk6ZXTeGFUNJ8MLCScvlGBr9LKiL2pkQbIfD9AyWBh3pM0jLmUVKCMSJVnCAXy9AC++e4wBgLZwy4Sq5UAJ8CYbo9xeRr+YfI8NDQu4/tPgzTsZx55/qSA4f/4tYNUSQOUA7opNb0gi9zZlcbhXHT0eGqEwFFCFYN+98edsd+yc1abtqyj7Dt45RahUWnok57frnTlEVfk8MiS0n7RmHlw3x4HFymCwOFBLDCVBIrrOZ7HoyF8XRpxX23cAQ5bonqMVzhVBa2ac6BucRW+NvizjftT8fuAIoYI4K4ZYLc6w/5bDZ0y4RVSj3CuhTrLJP3Q105dI5PDPljtCGLnxP2HeLWmf0F8VL7YN6y0U69eaBjyzrGxfvYDEDcvHS4+Ahoghwfq4qE5ADgbL5rzdaXYIS8f59Pt0ywN41hQW4mSaYcZPjfp0ogxuhmejMW9b8kieiwVY2AiBag0gkbCT+BYvGN3Cdgm0vbxyw5+9VE38IeD+IhgUt5AIV9MWYyOlgFENAEuQKgJklSDQDT9DZlHNgEgdgKwyX2EpR5cTBygPEYKZexw/mxfx9+qrk7LMcmPcCSNEgthIV+PS9s7H0Coosn6P2GYiq+S0KYJSymfO5XNNj28/pzwUckjcJ+Bn/ra2ER0AR5YfGelJvoL+JNf0fPW1O28zpsspBdFlHFBAczKcq0DwyL0Yj9GRNumcbyoMxXPOf3J42r3eZpI+mXNYuAMvJ1aO+pv4ZewbVp+rzElaTPqPASB5RZnk3zrJ1rup9dK3YuWOaldmmCvEgtijFgcmDRPRb424sxMFASUdtJxNGSyxFOB7E5MC3DpwdtOcKpTk4uUhV1thVEQG3AZfzUZ3By7A9UgytMyolXV+h2FvctWpzsofBULU5RDe1FpoKtN3PSmiDPjE1lvxTMH8Ir8IeyTup5YhylsKGSlNNhQemaCvYqnrQMe7MUXA+oyrZfFaTOSf3A/3rLU9wvSBmQWiSUJasqsL/Bx6SzzxuBMmrwnv6OrcfjHSd6TR8USAt014AvENDRbJSa22Mv7j4SY+EfYatWPiclxOSMJQ7kzrAXwgOkV9KVOgcqB1Q0T/176SKwMjj8BzBwcxs8yjjcR2CfYN+IU2MVlvaF0W18qEsiCf+S8OSe1s6Jg2E5w2iCXE40Y6allpu+a37oALt5BTwLzNst05A78mDGc66NWQQdbAkgwElX9glgIMj2zSth7xq2yCfcPcWt4gRRNuCJPMfTaa98bM2Robsn7VUmLoxlCacJcllgjJ8IuVeG3tW+9RUQG7/3KX+46JaJAyNOSoozFi6Io5J7MlBb4vJVuG/NHceBcUmECTfgAvvQ+ztvDwLr+qi7J+kfMWupiDKDw3IX11gXP9HevVw2EAt9NmZSOtg8ENAEeR7glRKV9JPdHcfoLqX5UF4cDEnTksGGo7PNcDGe9/O30legpKFlx0mhrP3wPTQkZRiO7V8C90F/sWEqUlUqCVEO4wRmDsbeG52G54wZpqjBGTXg7knVt9bvmiAvYAsqexX97T3vh0bE8WNBjqytyPuSE2UTp0dsB1bzRsHNiL0KzR0vYGNWUVZqkj/0vq5H0J+uhLF2diuqQSae6FUc16dnIuOs3R03PV+rwS1cY2uCvEBYg1Ox2LH/fEz3oRglH8bOSUmDhhyPGjQ0MGMZwXfatnfeLcRYu2VaoNasvmxIlFmqjGF+BfsJDzRaKVp8EafDcblk9ivpX9CF9wwvD2P4B8GJ8TlMV+178Le+KoeAJsiVw3ZyyhvDx7xvnd3sZJ+TC/J5jCEaeCkS2MkRZn5iHKq54SDJnlTgbGZIPWBmxqtevnBSPqivay80Ji6lHJhX0v6liDLdPUENzrct852y3xGmlZjjlkLoP7ER0AQ5NlSlBxQVIhwC2XXsTS9ERz9rxB+j0A/Ov+IvKTmwioMLnA/V3KzAumxF37rH8F4PlNKbZ+nELOwftPau35pz8z+CvWMcxYcPo0LfSVJR1TchFkPv8i4Xi4F6szgJhCWF1QS5JNiSRaIrcMaA5dHzlzmZZfD9BV3R5H4FhXuBucUmuxGy45HeVGPqm8lKokMvZQTQPwLlsAHz/ScHvZGRqJ2LuHWXfgYiTpnaOPY5sPn80v4f97yP8dU+SNy0dLhkCGiCnAyvxKEV97qz48aTwA9vGPRHaTwokY88ZhoOEtirQFyY1sSz9akVd71pUNurSNwkSzoCHTZQdLFqx7p7rcD+thiyL/YfEtl4F/ubhJTNQXAPpnWO7H+Ext813YgHY+JQGtjEkCWLoLgWbOJtDs1ihnK9ZKkU4oC60/0Vnm7hspTEXturSIrk0g+v9hNSFtTgvNyfbAOOjITjLaHu2Oegu6cmp/FZ+cD8kKTQ2aNFZCVAGSeKJshxUCoxjFre9T/cc3bKSnWMBXmILkJ5b5EDmSNtDiQ1mGzTtOECHi7HrY1htE16YMyBX71+5mT9tO1du+FU8dJQDW5C40L1pzjYSD/FLuGwN8YNwn/o79hyNAm+slQYJw0dJj4CmiDHxypRSNkEwfKu/5gbVoOA/mOo5kZqHH8jT2UocbB05CksiCq+2ta7/n4OOCWbVuH0XSMwFQHbPeBbQ/7IvVnsO2BqFzsXU8PM9Mx+R+LN/Q4YH3JhK6MZ9otCd0/aC81MsM3rvSbI84Jv5sg8csqvpp/60HIn88zxIJ8DBU1k6zgcDKGt45RlgzseezRtBldIunrHe2bw9RfuOYidi0N/9bphw7M+IfsOsncRunuKC1GRKCPuPm/Ud0ynk/shjE+mIG46Olw8BDRBjodTolCqo3J5B8b2A/v8EXbe8Jx0zJRIjBlU7gW3TIFpXc5lqF4uxgSxzoPJCTu4e2rbsf4W9KSbCqILEYGp/pUUItviWs+8NDiyO02inzS+Dj87Apogz45PSV9VRzUN/7KM3ZBGr5VjrBwE5DjiJiphaa8CbpmG4GV47MnsdyTuZtBpfWkEYiGwSUI5hrMRK6whJ2LnIlZ0BGI/DAl4UQ1uzUAm+DDjq32SuGnpcLMjoAny7Pgk/kqVI0ba1d7TicN0J8GcIZ5Ks1fBQQBX5A4OkvBU36e0W6bEzVH3EUBM6QDVorunwLBCd08FOxchkY0PUcgghKI437Bg52LL4cKFaxOd8UGcI6QmyHMAlOQzOrjJHejdf31bE6x9X9AAWxNYH4r1eenMMRObGChm0GCmyVfftLp3w61irwIbhTGT0cE0AoIAiTJ/2EHuihHuQ2A/IrpqiwMT+y/7JZZ3Npyi5g5wsk+HHW9Rg1P7JXHS0WFmR0AT5NnxSfa1E7Z+cHmppz6QcRpeOOrnPXC2iTCeIMbY2gaLPeLl9gWWe7EURJvWTNYeOnQRAfQrq7Xv9MdhA26zHBaJuHuK9rlihJl+gCIjfGqvPwxewzxzZ0f3sQyKd7FFcTMlrd9zzOurLAiImhtOSXEZh6Xhh2ElS9JNwhmrgjAOiLEL2TGtuV216r63/pYdHu+17FiBpO9JEZC+0zoWfB/unrZxX4J9LEn/ZFgSb4kDsUfWaYQjP+NSFkT3zaTNMX14TZCnxyXxW7VsgxXZf2pxMoe48OJbspobxBxpM5Xa5w7/xm5wvpK4MDqCRmAKAiSYcsz+oa4c+uiVw/5Y0d3TlKCzPhaJMlQ4sbcBm9zWawfau7W7p1lRi/9RE+T4WM0YUi3XuHwDG3LmoD8C/jgo0V4FV4JkhXHzzSsOvfvUP2t7FTNCrz8kQEA24LDpzP0ILLh+2GhOaGKS842blCLK4IsDij8Q8eOybwLdezUW4qalw01GQBPkyXjM6wkaEZ+EYXBgaiZSb2OmHBAyKLAUbLIaaD/g9tYd678lBdq2NnRLLQ/6j0ZgHggU9iF8379wGPsTtKutUktClMM4gTmGfRK4ezrKTQ+Gdi60uycFZ0n3YmOUFFtHEj1MMrT9a3rOsAzrlTiRB1RKU3MjnHDGDs+/43kjsC9nuqJZgbuGWiNQDgSkT6F/rt7R9XvuT9CuNrgB8SySNH1yyowDc7JII/jHXcf+4LlaDS4pipPDa4I8GY9ET+AoxC3TQPv1B4NmnkNrbkntBTBDciZh5zaDRlhzg92A763qW3dHuFHYpbnjRK2iA8dFwDTcLw+6Y/8DGymwczFhfChOfPZX6bdgILhfsiyVOcT0bHGKqvZT4qSjw0xGQBPkyXgke9oYBvcN+0z4HzsKxrxxgKNgr4JKETEuRYx5L7hletKxzHDnWhtwiYGgDpIUAeGSIUumGhz420+j70kS0b4YN03GKbh7wsl+4739HVuPZ1y8j9X/4+ZTL+E0QS6xpdnhyAkMtG85AmpuH6F5QizcJtwyJeiO7NRUQWqCmht+fpLeg3WHLrFhdLR4CBRkyav6NnwbcuCfRt09xUsgPFLNsGp1B80grO68TxbeaTFbXCAj4TRBjoBRyk9sK3+82WmEW6YAcrhkbplIiKUzY7nYYKVT+/LD9zenjOvCcmxKQNJLKbmOU88IKC6ZGNieffmwOzYKryDUK050sf+yH4OTgLunvAGrhCf0t/e8h4loOxeJoJTAmiAnx4zLMey9mcHuo3teZdj+24f9UQooEpnWZLaqM9MtU953eUrnM8vv6XoiVHML/fCVUDwdRSMQCwFlaL71/nV3IsL3MrC3rTSEQiIbKxnpx9KXwViETlGDj3JfRW/wxcMvGkoT5CgaMX+j8/nccPPN4JKM2QBOFtoQwiXETADBGD6Mw428tOH53m2tfV3X4512yxQfRh1ynggUN+As99Jhb/xx7mOwXypmIW7y0pdhJiAX5PMtTva52Ff5YNy4OtwEApogT2AR65dahg3c0n1mykkfNxrkqPMDBhl8bkENKFZChUAUc4x7ubxpWxcmiafDagTKhQCZgLbtp+20AvNS7mNwP6OUtNn/uY8CA0aIbn7osRd3H0mCz/RLSa8e42iCnKDV0bFEze3xl3a3oe+dLVGxxVwKNyHEG0u8JuiBYp/6K633re9lx8V7vRmSoE100PIh0Gj4396XG96OFVtKqW+iT8bqj2oMkMHgfgqcorb4vnUBS6f7dPw20gQ5PlbsWGAADCM3bpy53Gl+Th7Ls6SyY3Zw6byB4acsh4bn/wSPZVcmKIYOqhEoKwIkmFz5HdTXtRcE9SqcEuV6D7rJvvTVuJlJv2b/xn4KbGXQzOHpu47BPguuAJ5L4qZTz+E0SDFbn9wrg+7uuOn56HH/BPODUHODvQqKj2NeitsI74HfQFsCgfEpLhf1ibyYIOpgFUFANuDE3VPXjThW/eNwgw++TUFgVb+Nm3EYPrRzAbvgl4V9W29Sx8FPE+Q4KDHMRjDIuFzD3QxbxxlQYXHLxHfkDHiPc0lYiCroBXjYG+113GVfl3ja1nEc+HSYiiKwqcBc2BvhFBVqcIZ4v0mSJft3OB5g5yLIBdBNfsnAI8aZTKO3/asT1oySJFpHYTVBjtHYQWdgFw6BvBn97c2wNYFYpdmrIPcQumUa92HN7ZP0ChyquWnZcYym0EEqiAAIKblhs61v3Q4rsK4N7Vygl6LTJ+GSGVaIMgxlsbimYX2o/5gbVnf0vS+vHfTO3oCaIM+OD9XT4JbJ9B5Z+81GKLqdB8+9FnptSW6ZQs6h4JbJD37UuqPzJklfu2WaoxX054VGIJ32rx52R/tx0KN0d0/gsPO0c2Fnn4Udk7NYh6Ka3UJXqEby0wR5robq7BGMGgZb/h4cw0ug0uOCkUiEm+IueEdECxz2qOMYegd6Luz19wVHQLhk6NgffE9XP+QXl4f7HNjdK3C9qi/HKRjDcp+F+y1YUX64v2PL0YyH97FFfHHyWUphEhGWpVTxOHVhx+FpJi630Dk/kg/IGCsZWZwUJsKQO1ZumUDPP7/yP7semviqf2kEqgiBzaCZuNrSxrdG8qN3c78DbxJZHQxXg+H+ChLzG+10A26bq6iWVVkUTZBnaRZyC/wc+KlzmlONq3N+3i1dzS1w6ZZpMD/225Tlf17ShV7zLNnrTxqBRUFAuGSowZn3dI2iv38Cq0Kfdi6ScMcsOIlyGEc2+MiSnLKrvadT0oe1uUWpXJVnqgnCDA2kllUDx27pwPmjM4e8UfYwsVcxQ5QZX0unRG/E8g08d3D107Z37S5s5Mmmx4wR9QeNwCIhEKrBBdbKvq5/RRFuFtEFGJQJIpusYNx3abCgZGEGHxN3T1h5qjGWLKWlHVoT5P/f3rcAyFWU6Z5XP2cmCY9IMhOePi4+djWZSZbHqnFZZS/qiiQzPPaqF5+ou+pFQF4xCS9hEUEePtdl170rZCbBZRWuiOzmgoCGmURWYb3ogpjMEAlKkpnpnu4+p879vjpdPacnk0l3T0/S3acOZM7p7jp1qr5T9dVff/31/wd4v74nroHT+DinXUzKBsl/B7it/GesNsOu04KE/WjX4C+kmRsbfHki/Ukj0FgIoJ3LNg+LiysQ0DQDspB+LqopZamvQE+X9XJwMZtc5sX3yAU+o7g+U01+rZ5WE/I0b1iZocloupZ5Ouwpkar6hQgpGeNOqjmybp7uOdebxnrpmGiax+qvNAINhwCl2M6h1b+E7uGmNivwc0GSVW270gIHxGyaeZ9yiPmZnT0bT5De5vQOvjIINSGXwcEV4LXSX8WuU+/tgHhwEczcsFbsu6WRfkr6/X1kg5X3yKCljFtmfqdrsO9BNnBt+rM/1PT3jYfAOjkbdBKx28fczK/ot1v1h0pJWRE4BRPP9+gNrtMz/AtZVwoojVfnQ1ciTcj7YL9OLuTlc7kL0HCWyoCjVeqOFRlTzWGbpo0debsNx71mn0fpLzQCDY6AnNFhgW/RY2e9KCzrRsR75JSv5KKzmuKzX9AMbq83zv3YF+xYtukk3k8hpZp8WjmtJuTQ22XDwGju71zRfzxayecy2JGH5lcKy1SNlIwGR4fzXjumecjr5iVbznlG5R96pL7UCDQ+AptXSpO3JWf8/FsTXuGRtBlHwGrpVlMKL5VUQPWd4Awf4HbMhl84LaRMAU8T8hRA+NEV/pqUkzwC4c1rD8tk+K4My+SOP8XovsXHaElgGrz1V42NAIUUGQF9/Xps9/fWZ0Tew/Z/abZGqZf/KqkByThIG/i5gCndaTu6N3xA5g8pvJI8Wj2NJuTiG5YNDg3vt0s3vAVzsvdNCCzkYWWYDSgY1StvCrLRQc3BsExQkt3M6L7azK1y/HTKxkNAOZpfsu3ch0xf3M0oN5SSq+0brJm8B2ZwzAM2S599/k+/f5jyNtd4NT+4JdKEDLxBoKWFNgduhFJ2whFwsl3tq5gkb0zJzDjmdN5mLOR9S+avzdyqhVOnb1AE4CV5HdZWXub6CNdJSLBSCKmgvKW0EFgmRI4LfH8Uy2SlN7gKbm/5JJqQ+YpXbpbTr+FlA+c7VmxlViAsE6RjNh45mlfTDOTkDVMykcc8zr6ymlt1Wo1AIyOAvkD1hHn01r5fG0LcgC3Vcp2kUjIO1439iusz4wj35NvGRduX9b9KLiAi/3C6qF1HnpCV9LrzlHteAQXFJfA3AZHZr2rUZ6Nho2Qjw9mdb7VhGdr8etfgqkf5Gxsyz/rQCDQ/AuskYbqptm+MFTJPYtNUDI0fay3VS8nISIZ7gmnpYXDR+fnmx2b2NYg8ISsIsYnogvl224mQbOGvAuFrKlyo4P0lMkbDRBh0Z4+b+R3iit0U/KZD1yiM9bn5EVBmcMf++F0vY/p4U7DWUr1LgRKBcwcf/Ytb/nk7uje9jcJLlH0mR56Q2QB2rLj7NdAiX7JXZCjOSn8VbDD8V0kXYrqAwH1fLlQY4mZO63TomkrQ02maDQG1ANc52PdPsET6YcpMoJ8Es8BqBBnVv+Db04NrAfQ7bz2xiPLGqUgTcmkk9qxr0CDa1AJFNR2EDVA2Qqw4g4wdOPV+Mp5MBmZuOixTNVDqtE2FwDqphjOFvTYn8gWqH1TxqyZlSsl+XiRs583bl2/8CPOhVZLKL0rnEohRqjTrKs3Q1ptie8+GMyAVr8r5BX4rJV01cleDCWRpRkeA+sK8duGj7xmVYZ+07rgaCHXaJkIAfUQS8pKtq36CJZevdVhp6u6kLrmaapC8ZX9DJjZC+FlCXMz1HOVtrpq8WiFtJAkZjcDkC2dYJlxeCg9UCK8ravdXgcYJMzc0LXH/kqHeAZk/wj61QgPRddAI7A8BtnP+ZtvmzaNeZiRmOQ6mi7Ut8GHdJufnCx2x9KvdXOGvi8+M3GJ4JAlZRZCOjbV/oM1JvhmmNwjLNKk73l8DnO57jvCUrOnzwvftNdOl0d9pBFoRAUrJXCdZtKXvOSjubkIABlSz8p17ChNKyOxH9HMxCr/joPnPvtS98UQlhat0UThHjpCl9ApVxYvL+xdROnYDd4AVL+DJRkEKRgNiQ2JYJpq54dOXGa2Xv0exIUWhs+g6ToNAcZ3EKcz/esbLDqaxqQr9CibGQR+Z5o79fhUQsyEQuzI9YYirgjyiZaUUOUJWraHgm5/pcJLH5YXnUf+rCFb9PtMZmmZJxpyexRCWaY83/rxlubfKBoQAkTPdq3/TCLQSAhQ+uF6y6D9OH4ct8fUTokDbpKrDMwVkHMw25XqOZaweXrbx3crMrpUwm6kukSIPKR2jAe1Ycc8bIeT+9biYoLXObPxVQIfmw4TS+lLXE+duVwuFMwGuf9MItBoCJtZL6Ee8c3D1Jigevsf1FHasSZKtvMa8h+s52CwCWheX+yf3p4oLfFJfXXlOzZkyUoSsdMe+567D1KqtFn8Vk6+ZC3kxhmUaXNxxhDRzY8OZ/F1faQSihMA6uQDnW84aRNjJ0wyOs86qEKD3Wx6g4gx2aqWt1EkjBeND8ruIhHuKDCEr6XWkZ+MqbPk4U+4O4nCM/+VJvvUD/5GqDdlwfJNmbliIWBuM4NHSdR0YKZ0iSgigD0nyXbLlrCcxabx5HszguL7CvlUpMZOOZf9it8S/PE1RfePSl07u7wrCPUHobvEjEoSMlyzN3BiWCesNF7XDKQrWgtFYqhvFVWOh7rjNSpqeEANHD559P9sIdV0t3lZ09TQCMyJQ2mhlunfsccefjZkOwj3VagYn3de67bF010TB/OyMD26hHyNByOp9ISzTB9rt9EmIoFtQ/ioqlY5LZMywTBbDMk2MOaZzFfMm4atn6LNGIKoISJ/J2GHH9RTIuDdLHKTojEVwpY6oAJySVA3VxRjM4EzD/+Rw96ZlzKrV+1okCJkvktMeNIsrEYrcgO64pm2ZJGUA5mEjCXYUGV9eNHjWLygVyDZXQUPTSTQCLY9AMdxTZ/vCr+W9wk+5zsIFPlomsf9UW3/cIJJ2Im6a3tXBvetaWvhpeUJW06h8wV+TdhJHQesrIB1LvRZH4kobiEwLfQfDMo0WMr+yko40c6v0fp1OIxAFBCicgHhl5HaItmvyWGeharDaurO/Bf1T+hYHp1tnjHT3n9fqZnBVA1UtsIcyvfS2hk0gwz2bTsU+5vfBCQqKU72/Co7scnSHiRzDMmH2dROj8KqFwkNZR/1sjUCjIQAilespiJbzoCf8u1JWgt2udh/jWO+hF0VkEAr31JpqwpYlZBCoyZVZ2Vh9b02HnU7DVWBNZmnBSB2EZSr43uNLBnu/zny1mVujUYEuT6MgwP7HssC7xTUZrLfMJtwTMnIY7mmek15mZzPnN0od56IcLUvIRtFucWTZhv8Rs2Onj4kJhGUy7IBcK4NSScZSOsYtOexCsj37Ut6tGlxlOelUGoFoIYB+JlUXi3/a9zSub5pNuCdqFiFyy3BPuL5sZOmmY5l/KyLakoRMsqR0/PKbvrsAV5fa8DgBrUNpylQNKTNt4K8iDUN3cWfntlUPsyG0aoNoxUau63SIEFgbPNf0C7ePuplfcv0Fkkxt3uCgh/YMX2BB/UjP9qUTL/TzluOvlqtQuOllbffjbU7q9bCsKIVlqpSMKRUzLYZ5D35a6a9iF9wMfpH5q4XC8LP0tUZAI1COgDKD6xw67yWIMLdgVyslGek3pjzlzJ9kP5QWGtKrIjYP+Of9dumGt+B7wXWime9url9bkpDxonxOa7B8d0lxR15VzoP4CjEhKu0wilsOJeKvcPqlF/Kaq4Hr0h5aBNQ6C9ddXCEegZ8LqISr93NBUmZN6O4A1lIp0zav4OfSOhE/tMDRcoSsRkzfcq+F/eICTnOqfU+UjiEeQ0eFhTwrZo+7+f9M+X5g6F60s6w2T51eIxBVBKhCZN0ty7wUfi7QrwJLJ37HvsZzJYckZVg6jYsczE+dd4z09L+P99HbXCX3N0OaliJkKb1Cd7xj6V2n4e33yikS3gJ3CakRttKXEqT34cZKGJYpvnD4UN8eaUZHwVkfGgGNQMUIoC/JPtP1RO9jUPt+c56dlusy1fZJpUYEh8twT6Dyz+05uf/wwNtcQPoVF6pBE7YMIXMUlk5+ugdjiClzGXxNxPGdDL7IXUKV4q9eOnXHsJ80C577I0bX5f2tNj2qFBOdTiMwWwTUuosvxI17C9nfcV2GfYykzD5XSf4qLcQrGe6p3Um/fjTvf7KSe5slTcsQMgCX06Jh47/OQ8SB07AH3mVImEpfNl+YSivPmBplvLwPXdXa4m8yf17rQyOgEagOAbnAB9XC0Vv7fg0Ovg3x95BBrdupg3BP8EmDPmtdtLNn4wlKCq+uVI2XumUIGS9EcPoCc8V1roH9H7BW44hKyNW5Evip3lBhmQDOV+Q0K8ijolG8kmfoNBqBSCIwQHNi7PLId9ySdSeexAy0FO6pUjxUX+aZ60NpJz6v4PvX8H4lhVeaVyOmawlCVi9iPGdciBcUhGUqutZUL/BA4FMqZlqwrgcvbrG97viwb3lBWKYWM605EBb6d43AXCCA/hUERUW4J3S162WoJsxE+Sw1O63kuUE/DdQc3KxlWcYqbAA7XZnZVZJHo6ZpekJm6Bi+iBf+pP91CI73N9JfBV6yIthqgFeqCkjI/O+OJVvOeUYtFFaTj06rEdAITI8A12HQz8yuwd67oU9+AOpFzGKrN4Nj7rjREkK4XC/C0vtlPtaPgmARzbvA19yEvGuhaaxdJ9+85xrr2p3EPA92ivKLKv5MkrfpJ8yYmfPyT+Y6xqSZm7KjrCI7nVQjoBGoAAHTtq6EnwvoFycdfkmhqIJ7mUSmtaTPZDcdS7x1xHz2/fLWteTq5jyampB/vSNrUzqW0WlNszcjckWFcfVmbur1wfAcb9pac/zm8yc4kqvv9VkjoBGoDwJUXTCnzi2rB9Fhb1tgtdMsFdv4Kj+QXvZNecayjws5DN7Kr9x5yj2vkKqLJu27TU3Ir/71Gbmdf/xAmzDFxQhayjXbWYRl8t12K2khTt6mrq2rv8emoRpO5c1Ep9QIaAQqQUCt+ziWf9tuN/ObuOnEazaDg+oiL1zs4IsfV8h5FwfPX9eUwlRTEzKB92J7z+1wUm9GSCUGVJRmbmr0PFDDUKoKDNfCMi0HpnJZy7Ku532qwRwoD/27RkAjUD0CagFu0Za+50xTfAV9tigBVWaTrJ7Ivi5VF1g3CtaPxCd29tzzBhXj0ragsm6i46AQspz6v7greBbX22o81JBnYvWOWezq3rQY1Llugo7n4bSE77TaQ75MmDViYQBOS6yvchpFMmaDqTYvnV4joBGoHAG1PtOZMb6MPrwV6zfgCCzwwfRU9svKs5IpuX7UZqfSmOUWwz1B0hLwuDvbwy26UV+5cs75ck4fwK3Garux+XQfw3XM6lBMjuADkizzprgi5SS6ZFim4khZqXRcKogMyxRzRr3M8/G4+FLpe32hEdAIzDkC0koK3GAKa50IzJQpXFV1sM/Lfo8/dCZmmeaZI90bz2QmsFaePcdZMOJgXpvfJpmZllcYMGafLzOdclRZ9Sl37+ejnO4/PVCK2MENG3sLxqts3zoJ+t5Pwi/qa2A/SDm3YqcgasS06FnCE/+Kl/YDbP241jHswwqGB8AwrAL+/RRpn69VfvyBlhUFz/t059DqW6WZWxH4fW7SX2gENAJzhsCO7v7+difVy1223B7NPlppn1ZpuY4EZ/hOVkz8BCR/F4S4TyJK/Gtcw6s4L1VB3Csotefc/L+Ca+5K+ObPjsiKZ5VwSa4w4GwMZVSyorq15nPFBFbJEwCKzE8VcHtP/wrY9J6B8p4eM2InJe24ATMX7KOrHhz1fAJPF350iTmGvDCqSqDVC1HpZjqrtAHgDhYECoOdxxsnaV8VM6Gmf9MIzA0C6I/cVSt2rLjnjb4oPGabdhpuDxBQAlrEWkgZRBqDTV0KcfgyiDI/W75JgG9SZtx42RvNgOJ+iHL90BL2/QhW8TwRQRkpDNaFlCWBzhbmqTrX7T0bzkBIw4/BD8SbF9jth8HlnpH18rAPhsK+GEapGqCLlZYVRsVZc7wvuGEL5cU0/O1AdeFzJ9OYfgz7fGAy8w4GZKwnsJPP0FcaAY3AgRBQHDLcM3B9h5P+3JiXKdAXDe+rpF8znerb++OISvNhXjwURym+odTeYafok9kYc7PPgob/j4ndvNxAVkwv+QfPCXGMzKriP7PWg8gpfnEBjF78d/T0/whmgd9rj6X+0jasw3Z7Y/msCzLGKigrpEpWLThMr+5BrWVek58nf1P5z3TmffRX0YEx1BXuP5OMmR7f1wzkTM/Tv2kENAKVIZCI+beB7P4rBvcFEDyrWlhnv57khH05orISTKZiXgHJSwkYKhRDQJ1SgFOjQsqOn5C24p/0PfuJ4e4Nt6o4f+QQ5ZN9MqfKrw4oUc6UlZIoh5ffdbTvx67EeuZHAaSR97HMxgjP5L1AnJcVU2DNlOdc/lYa8eD2L2bZNsh4t285K5dsOetJufioolTPZSF03hoBjcC0CKj1G+iSPx63Y1+BtUSZ1DvtTQfxyxJ/cJZdHCwQr9NGEAtj3Mu9hJgW62Ex8g3qmGvlk5oIWRExsaDXfuyQubYjljx6r5ctjmglXXJxhKl82jGX+BJQmT/AxOhmZ0X+Buypv1Q1hLl8ts5bI6ARqAwB9FNrZPnAo1gpOgkOiKrWJVf2lNpSKQ6ZlJ6RD/iExOEqG6IAADs8SURBVJy2EsaYyP4bdjVc3DW0ait5kk+h1Fzp06pWWSgztpHu76WHl2/4pmna307YztEU5aUqAeqEYiFUYUrTiEoLNbfpTB8LgjaU/c+6ydQN8lk6LNPcQq5z1whUiABJDASGCbZ9uSsCtzSKBCvMYk6TkYj5L/wQfLI9WDzDdJaOjv7MML2Hti/f+BESMf9Jq7PwDTNcV0XISgynQ2hhZn/YZqU/zILAqNvFEBAjcPw3tcAzPP+g/hSUCz7nMWYAqmuO/fG7XpaLCVWMYAe1wPphGoGIIUACY5WXDK36d2z0+IcFVhu8a5rchVtGgo0AC8vEfwHnkVQMm/plWIksSJnON3Z0b7zFf11/XO5KrNCFb8WELIkLOtaRFRt7XF882G6nTqW9oNQRh2wGGxE49fIwWgiazOVE7v6urb138nu9I0+ho88agcZAgIIfSwJDqmv3uJntIDgZ7qkxSrdvKSZJWVqAxbhRbQKqFqhxPz2cNu56+U3fXSDdjlZAyhURspSMYUmBlcS3CM//ftpJnqCMtyVwSje7b1kb65viGAt7uRhVLsWyN9zI21ig6dJoBA4NApZlHwX1bJLzbipiD00pKnuqIuVAvULdsW+Ouhm3w06flXUK3x3p/s6RlZDyAQlZqSkoGfu2uCtpx46aELkChHW5k4bFZWH4r7KiH7pUKKDFkavNTrzdM7L/LOtGHQ+c3B+6UuknawQ0AgoBxTfD3ZuWwRjqu0krvhAzcuyGC9amVLpGPId5UPIhVBjjIltI26mVvhXb8Ifu/vnKQf/+yj8jicp95sZ6IXXG2J0CMn4l9MUFpS9uBhIOVzwYvfANht02O2mPe5k7lwye/UGmwW8cVKT+KnyPvtYIaAQODgJqcwj5BtP+fwMZHztRdLEQ6GkbX+hTSKnySs7ByAJJmf5yNnW1LzxH+cRQacPnGQmZCTm198zsj+bZqZPHobAmGfN79UBeN8uhyowpEOdAAlsrbexTv6Jza+91+E0TcrO8SF3OlkMA/U9un5b+zZ09P0zGkqfAEkpuKFOVbUYBkGUm71AInOek7LHCxJfgM+ez++Ob/U7VeQOBEGbmdmwXPHkUC3hKMuYDmg0c1kWBAwULLg0zhy3dwvavkVu9pepibjw48dn60AhoBGZEQM5ORXz3TW2xNMgYoZ24u7eoClXnGXNosB9ZZnKlLBbqwn0aMdu+cHjZwPn4DTv6/H2cq01LyHKjBG4Y7h74MCIwnz8GwzYQmK0yb0Zw1LtSIFEnJTCViMPTGwbnr764vH8RfsNXwUCk0uuzRkAjMLcIsM+RoEa6+89LWImPjQpuMPOx8VeZlOHnJj1YBxZdnlFRDy54UNUbpRP9AdObaqO8DyFLpTrcT25f1v8qUPs12IESKFjDGTcpOKrYpReNQYahX9qcxDEIJn5T8femffmqfvqsEWgmBNAf/ZdO7u+CKHRToRijGF4Xiva9zUvG4XdAYRY1seGdstDupI/wfPeL/tq1+wTC2IeQlQtK2/LXzHPSR2E/OSwqJqXj8ENa4hqtQTq1NozzRno2rsJHwRlCS9RNV0Ij0OAIKAkRpgLXwY/xoiDYRHVuNxu8ioF0jEKSlKn2hfrXS9nJ00e+/4YPsuycIag6lC7UDxytdi4dOM10rB8VYG6Cj5K08X1ZWpVBM5/lqMVpUdGpdaYw8USbiL3jsJ+9dzdBIhbNXD9ddo1AIyOgTNzIN4jrcR+E4gT9m7PMrcg3rBc5h2c4YTPznvdb2yh0dw6d9xK/41EmIZOASETYp7gGu2OKqLQeEQdVD6onSRk21bStnhdPLx+Leb3qd33WCGgE5g4BNRvHwvqFiBSSoIdIxtObuyc2Ts5QzYiUHTvGN+KfZanUrLxEyCRi/jCybNO7bNt6K7wsMVlL6XFYv/0dULXbcKKPIUlctOvUezu0dLw/pPT3GoHZI0DpmLm80N3/TkxSzwgW8moLVDz70hy8HCj5S+kfhMunwhruXOlLGet2VN+UCNlYi1kCD9v/TBw+jZG66EpTftuyfwiOlJIxW2BsPhijvyY3MXEWK6wGqZatvK6YRuAQIVDcsWYJ03pfh5XmVB0xNlVfbG0pmXxDVXDeLxSwTnesb7nnyNeAOKSSkKUuB74qGPHDF/5yOobmUWJz+al1/yhSZg05cFmm9YnWra2umUbg0CKgBJ3f9Xz3dfD31btHZBBG3peuGKT0eGiLN+dPV7wKbblFqxKw89nK10UgIe9aKKVjx7LfM99p66BphlJXzHnpGuoBPgwDhQEvrK+nIyUAV5Uv04aqii6MRqBBEWC/YtE8w1sNFwZWMBVtbal46qtQUnLWy7nwnLkU41EP00hC5t7qnafc8wphipWYtjOIX6DnmJpLBD7TkUm7nWzDNGK1rO73h/bZTRMBGHQVNQJzigAICUTsn8dwb5y+k6CiIB2HQQ3qayIeNHaoWZbkm5K9rZvN/VHMSSwL9o8HdsdRAkjVNWgYhM1cwcU9o/PZjG8MxoyOUTmqhwHV1xoBjUCVCIx2mOZQT2Gk556ToTI+DpYVMgPV/6rMrWmTs76BlGxYOSgkTEP8Jf14lAjZMp0/gehs7PHGoNqgzVv0jgAg08qIHFY/zTcUCoX/hsWHQSARxJKJHiS6xhqBOUJAvB1uGWJY2IqsoKNIGSpi2l4s9OJ7TpGE/NzKO5P+qP8WuNakWTbjG0Vu+jDZ6mCIghkEIsm2AY/LdiwbeARj2TzftDQpT4KkrzQCNSEAs1Ib7LIXws/ZgVkX9cmTO9VqyrTJb6IgyI0irhB/JjHhCp9vOr/C/vEFrb5TptJ3h1Yi4OXOYiRZ6NQrvU2n0whoBA6AgIUVqt3umJHzXRlR+gDJW/pnOSuHBAyescbdiUcClYUdPy5u2AskQFJCDsaulkZiP5ULAJImfxZDsIz5WY9zhv0k119rBDQC1SIAGzfIxDHwslzM4+1R0yEryAK1BexMaPxmGkdJQhbC7xaARpq6wRkl2CeyBBRuGNDrOECipGdXIOqzRkAjMAsEYNulCCbc32aRY9PeWpSQDemW0zBhA8jDN18r/RA1bbV0wTUCGgGNQLMigHUrCsmGn5KEjN0yx4KpZW2iPmI16yvV5dYIaASaDwHFt1yngh4nIQkZfxYHdNx8FdIl1ghoBDQCzY4ABWLwcEwSMjbsHUalsj40AhoBjYBG4FAgAEo2fUcSMjQYCU3Hh+Il6GdqBDQCGoGiOAxDi6KErCHRCGgENAIagUONgCLknDJDOdQF0s/XCGgENAJRQ4D8ixBWQhIyNi++PGkZGDUodH01AhoBjcChRQDWFrCy8BFaEAd2ggxrCfnQvhD9dI2ARiC6CJCQ8V9eErLlW7/hRx60hosuLLrmGgGNgEbgYCPA0K6UkI0JuS0YVhZPc5ewtnybHJAwQAX+Sg/2u9HP0whEBIFwH+N1RKpdVs1AADYR3dUyCobIFhf1rK0WzZIZWiUiYbjLUJnyQTeUKYDojxqBOUCAZBRVIlZwyvoDCMTx5FdZKSGbfn57Tohdtmkt9OANmDqLqAKlyJhnjlpF/U0kR2/VaPRZI1BvBMBBcMte3DAcUemYmHJQQvUpCSO4snhOEvL4ngWj6QVjP4lbsXdnvTzc1yPeVUQPCRDqTgZ2Pf+fLNMYhL/6lGFpB/URbRK62vVEQMBBvWHuRf/6WNyOvREx9RAPAt9EmJRBy2ZBILagb/5YEvKrf31Gbnj5wMNtZvLdE2YecalNG9v4Ijqd4GhkWr7ws5Zj3Nq5ZTVDOOlDI6ARqCMCI90bY4in92WyUB2zbaqsJoU/00RoaQTOMx+UhMxaeK7Y8pK/m5v34AM4ypYW0hUe5w8J3zO+Pbxs4Maurb13EiO/t982nj3BMk54NojMyC/1oRHQCMyMwOt6feNpCMFPDdjm0315mViYP/MsATMvK66iFM2cSev+StWo63vPdI77/1Eanf7Q3T8/Yxr3IdDpqWNe1pXO2VsXgxlrxpGLU6ikGTcQhJHOox8yhH3lkq2rfsIb/ZX/7hibV3pIo00EZ0RS/6gRKAoyA70I1wRJ7+T+1HDBfD+u1mBnWheDhxCjqKosUHsPoeLsMXfi+q6h1ZdJXTEJ5vChvj2WMDYDGNmGSEpKpI5So1JkzHNW5D1MJfyUnTjNsLxHhrs33LqzZ+MJ5ua3ubJxYXE0StjoumoEqkWAs0pEbpfCy8iyDafvyBsPtFmJrzm2E2kyDvMr1u0oAt5LbCX7+mthdbHeFMM9G5cavngQYB1R8D1My2kDFz37wNJAJKvPEZySsG8usNrN3d74b2HCfXtmd/ut1L0TRKQnTlpaJhj6iDwC7A8EQfWJnT33vAHWW5eh35yXtOJGxsM6FZZqFLewv6nrKICn6ot1KrfDSTtjbuaBzrjxXvPxvsAOmWTMkaxrcPU2sDAin9pRwGW/dWTjkP+KCh2cpCS8V4wXEpZzDBrV36bmjz0+/KaB9zATpAVrr7U4sO03U/2DRiACCHC2zf7Af1SDDndv/IJnuI+0W4nzqJ7IeDmoQwOCITEREva1CEBTVkVZd9CM60vrig0k4wC7YjIkkFLeyNJNbxGO+HeSUJQBC6MXxgFNCKM7ohGaMQuKeCrjNyF47rUczHiPBBUqjfD9+loj0OoIkD+M3gGL6gm/ezD2gv9fZwvTvjppO8cxgGfBd13wLqRizSuYUvN/L20n7Iw7sS2RTLx14aPvGQ04eJqWsr27/7ttTvJMjGYeRzMSUhRHsTA0ZaQsR/ZARdFuJa1xdyIrTPN2yyzc1vXEudt5XwCuVmOEMdTXrYkAZ4emsV5aHu1YetdpsN+6NO0k/7xguCBiqj55BOrPqHOJ4hEiEjMc2h9/YslQ31eVIFc2VVAkMrJiY4/wxOMYzxwwOVZHg1Et6qQsm1VxcFINixIzB615VtrY444/i+ubO483vkpJQaYv6ud5rQ+NQKsgQK4w1kLmhbqTddq5ov94Ifx1sJs9p91Ox0e9DGeJNmblkEoC1QTTRZlDSpwBTk1ghp1z8090bX3qJDWYBfjwb+gg0ADNh+H2Te2x1IVjXqYA3U/JXjnKgIZgogRc0n9x0ILy2IuZToxpMOptEZ57+ZJt5z7Ez36vbxsDHNi0xEw89NHcCLA9mwPYy4Bj16n3duRyhU+ZvvhfKSd5xISgmbEvOYNcoUiouWs8+9IrvghyMn3bx9ZfU/z5kid6H1Kcy9/2XYTCqCd/SFg37HXHfxk3YzGwD81WyqTpIOPo/iUekw3OgMWg7+SE6+X8gh+znBWOE//RjmUbv80VZjZepPXlxpLoQqZr3gIIBGZsARnv6B7ozU/kHk/b8Wtsyz6CKk70A2yFxmy8eGjekOrLkvCGXcBuh5UCX4g7SMaEidwwiZe6Cp2VPuOF7v53Qqz7PnTx2Njna9VFCKPwpRr9FEEDYgkwgccmmz2wYbm9LWF8af7jfX/gfeERMZyPvtYINCICbK8slyKO3y7d8BbbMi+O2/F38YcJUZBmbMU0UipW1zxH/SA/SG6AmRvW5hws5D3VHjfeQj7AbzT/K+rZp5OQgR43PtCEa/FQ333YHnJ10sKAx1xVxsXpetSBVvUn2Pw3+Rkbr4HtuMgW4EFvfiqWvGIsb/wE27DPZxqklYStJWaFmD43KgJSPYH2yjb70sn9XcPdA9+wbOv+DqftXTkQMckYLb/MTnZqf6ikbuQWSTFIjAuP/3if+q6SPBoxTYkz4dwOswhn3JvImsL+hCRjqn5CZMzyl0hkf5VBhhamJpvandSZ46Et1epB+7uvEb9XZeaZahhwaMkMh42oXmWW+SMz5hk0LN9PWDEukBp51/2/cKry+WO2nf0wn6dmI7zWh0agURCQNvXrKRqbvtQTZ/MfQoOG9UT8KBAxibJuemL2F9lXcOaU3jHtmA2OzwraLNOwoDmtvFS5eeZ7xRqT6Qr3b7oG+24PVD/Bwn/4nc9IQmoH38tv+u6CcafwUJuVXDYuJmBPiNVTkk2TAKUAUWUGVfqoi5XDAoTri32mW0wXBqnWa4VP8HxKxT79Y5hs0GjR38RzvtQ5tPqXzD9sOlTr8/R9GoF6IKD6PfMa6dm4Cq3zkjY7uSKD/gJXAnJ6jdZs0SMk09TSX6brk8zrMLvdetkdfR7574bp3BvHi6a3/C18Dz836hEup7yGvzJsF7fHvNwXjx7qvXimch+QeBSTDy+/62jft38IY+YTudumWUi5HJzAhC8G1/N54W7C7s0V7U7yaKgW4LGCEnOwnTN8z0zgVfKbymsybUDM8+w2E4umuzCmfc0pLLhh0X+cPs404c4weY++0gjMLQJop5ILQK6SZGn66nniCseyz8TsDtudA0FsaimqJWPVH3ifvKZzRfQ7KajAkResNb7uCfOLlu3lDN++p91J92BmXjdpfGr55+Iz6xXUj0tvht9hJ+0xkfm7rifO/siBnrevlcWUO+TOG26rxoYHx7DeCTL+ZdpOOniQN/ngYKSccmvDfJTgSJ2Ub6atpIHoKDd2vfOpPlOYbx4T438H7VWeu2YoOeOg4yCIyMUGM8taqLx4Zlb4IzGnOSEa+sKknVjjxfb8lCvW8nduY9fbsGeJur69GgSk2gxtH20U5q7fOXJ798CNnuc/1AE1pYduTjKm6kDlObVNq+8rPfN+sD7JysP6lM2pPBzsPGK61ls7B8++4Oitfb+WG6xM7yz4eRhss1IxqjKagW9KZZR8YxhpSMawyb5TkTH79kw4HVBCVjeHJWXYe/cDpJPGvAko3iFV4mBBmFYRj7rvUJxVWVR5UDIPFuo29VJ537tyyeDqa8Pl4qoxKrEm5jh/TukZtpRlI7JKW4+6qRfGPFkuApYwHW5TR4QS7z7hW9eU3HyG7D1VGfRZI1AvBNDmSps76BZzJGeeA1Oqde124pgJH+oJH2EsQussfG4tfWDf/ui7WOx2KBzB7eQzUH18aclg79dVvaT++ukBk8Lgi8v7F+V943/Pc9Kn7XWzczKLVc+dzVnVkfgovoEu3Jjw3JKagnjjd8mT+3tWxYTMDBQp02lI1rS+DvvDs+GiUprE4dcyqbKWF7e/QlbzPYFRz5YgYUrEUTjnFbK+5X9iyRN9/8D8FDjqzO92LO//n5hAXdQRS78eg81kvWTV5D2lvJm+1kOWCzfLlycHsuAlcRs2zOSyeKN/Zwrnps5tq57nM8JlrPWZ+j6NgEKA7YnXihy292w4wzbMi9NWamUOsY+Vp8diGilsqT6l8qjkPH07980OO22OuYE5KATfWzqHznuJ+U1t52pdJfCh7N8BAj9/AmoNROIrI+ZaylZJ+StJs08dIWTBXa8z4eZzKNclWCO6dbq67S/vqghZZlz0b8pr+Af+HLZKXpO04w6AkvoSsLL0fcHfDzZQBIfPlCABGE6z2q0URuHMk9B/X0DJc+pLZznDeltO2YRhfxyCwWdRr/lcgINVxJzozNXLVFhRXQJJ3UGQAAPSwG+B5W2IInCrirKgBkSm14dGoFoE2PaVAyDeu2PF3a/BwH8VLLJ62+yURSuqqRIx09XSj9m21X1s18jEpp4YToa4XrMBUTKuWTR41i+Yf3jnHz+HD0XK/A67hz/lmd4XoDJNQxAs8Q1/Cz+Pn+f6UH03zDfsu0krQX37M+DFjx092LtZYo7CIN2MkrEqb9WEzBvDBDbcs+lU7Bq+JWUlehBbg97PMMPwY6WCBoWp6TmqkAc6l4FDNQAaA1aFnayXg8W68Y1kIn6Z9KYUGkymyzNsgkZH9NhedzXyWo2ROQ77QWkXOVcDDusQYDZ1G3ZhG17lGtqEs8wso45WMt3b09/NhECY9Pac3H/4WMH8FIjyQkhzHdhdypZVpqZjW5wpv5l+m2zLgRlbwozH6Bmx4LlPII77ms6tZz/A+6VqYv06kNX60saI6fItI2UuNgpxK1zgnswCouzgG3jpwdqMeu50edTzu+n5JuXAAg0aH/H37Y75ObXpA89lv66IjFnG2YCOe9fhra0Xz628MxkbTV8MqfKCBU5bJ5y4g16oH530D1xPgi4DhE+ShxSMBacL/Jhxc4/Yvn9t6eWHPFIF6af/i7wlJgrE4Z7+t2OP4hWwv3wrAxFCYpajPe9WdeJ5+tyq+1Y1KFm/4uoznJDIvPPC24ANk19UQVfDg2J1T9Gpo4aAais8v3DfwF+B/a7ELOw1GZHj7A9WDmjBRUIjNrW057K2y0zQfpGtDfWEsbcw/ixi53158dCq25G3JN8wyTL5gY5wv+RMceQ540IsX/3NPCd19BispLCTZFq+qaUuU8si+yO+ZF7qWqYBxyWsuENdcbaQfQyWgNd3bV39Pf5Wbf1kfvgzayIhUCioJEVMKU6EVPlBjBIfxwtvp6MRkpgkZz6xSNCqYtWApYBQ9zIzzlOIEvRfFkHhP0iyW/HdbV3jxnc41VeNUVW4mrO6l1LpyNiuD6Ael2Pr4wmyXrIBSCauq99oVc/Jcgb1nG+n7d1uZi/A/pYTt69f9NhZLzJNrS9+Mn991YoIoB3Jvo3uIfvm9p6BlbDfuSLpxP+cX0CwKBGY6lM814IF26zKQxExI4NQjwpWvjUVE18+8vG+YebNcqky1fis0v3w3X6sYXofwcMvaHNSR3BfAflGmrDKzLnPZJJIq61fWb1CfINMwTeWAT8/4Jvsz1GlW00j+Z3OoXdnFGfUUjfeU9MLmO5h+0z3Df/9eE8fxhO6oPPhii2nF6wW/sDmBcMJzriafjGQYJQ/h8TkC+hp4L3Eh6GM7dA+EgsQUJO4BWzveAy53ZFIxn9A9QTvDU/TyvOq/FM4D+qXfSP+WWH6f9Nmx9tIzCjLnOiXZfmLDZ3XAKoAR/gxbmMfd/O/AZDXd2X8O7V+ufJ3GZWU4b5I0hK2uxZd7a+gJ44HllFoT3VY61F9lESnhC4uoAd6YvE933LWLNly1pPEPVymeryHcH7S9adrniss/6Oo2bEwNpDsQUsR9hs+bzq+CRO0qstk2cr5xgbfsO9hIxkDH8Olnb8Vsv5tKS92/2E/e+9u3hcu02Q+1V2hvPU7ODoYxe2WzHWk+3tpw8jCltHohZnLH0FWPv5wp8NyMY5xsaz44mjjSMdFsiwkW95L4uUZf8jMDmygrTgAwRSeemoDdry7kfA5mIk9DGC/3TW0aivT8+CUxihGuQ2+md1fvKyyxZAX/qT/dYh+ejWeexZUJIHR/BTfr+GXPZunq4bC/ICDXMiIW7aNBmLkCrnHgPg6bMV8kM+oR4OYTVn1vYcWAbQV2riisQbhk7Km8VE0m8uwmHZYMXp6XYSH8japtjs7MfRxI+vmtkE9cRWsC/6FaMi+sxalKPpNridCU/mGqtPEWMc7ISOfi87yx+gvxx8em+d44AsKg3m5oCiq4BvHAHZgdPANrELARL9BjR72fec7yjRV1rGOfCPJr54gyQIGUi/wmDzomGQib56CxrIMgJ2IlvNqJDgGQf46SLKBagOvjxSMA+lIyhCjLWO3O47f3Z1QPj0Hrcf/Ay/93BL24OJXeY8qR/C8R7784N6yZ/O3ehxT82dMPdPyL2mPp0/BhhnER+C20mBACQg0mMrV6dnsaHLYBjqyfkEYKa5ae9+2jNiNpVXrafCvRxl0Ho2JwNR2OdLdj/h1MN900kszYgJ9B2Jd0CZkf0d62ZaqrQ3v4z3l7dA358GMbbSQGUaHvaXT8e9gfDimY7mQdk76IvNXx3TP2XnKPa+AIcab0SWXwln5a1HxV6P0x8EnTwdJthK+QUV/A9EfdtLWzzE3H+oyjv2xOQTbheLB5/KynnWcE0JWBeZZjmJPg0mKDq3ld9jw8PsdA4smPOdIuJI4DDrgIyD6HYn33YbItDGkhlYAriYssRcrwS9aprUb3/yhLS5eVC4s1TOoUjjYzt/liyiO+jv/+IE2N7bn/Xgta7Hb76hcyaB+0t8Hy8pGrMpc6xnPLTVu2SnkwqnBDmGNFsZ/j6b/taRp3Hj4UN8ePkObydWKdHPcVyQEkh4IF2ZsyzadZJreOtOyTk9BhwvnPGWWE6pWtbRFtj3Z5tgG0e5oUkpBCmo79FX/DkzZbl60pe85PuNQtjsUzjJ6p/JNP/jG2D/foMzQ4GTJN6Zn/R6Gu78n38AV2EvKRlphx1noXFo5zZokVEEPdJaNZ+Vm6aaP7j0PlH5/v8t8uocc44RnRVg63l/6ufw+rCLY1b1pMTbff87HIgNWltNjMIFB28WaRuCtiuWopSNMV35gUCapcFspVBjwkGVhZ1AeK9rGmhHj5YGeoY8VZANdi2fPwZRxurLp7w4OAuG2x9lnLm9dASr8nyknkYJUjNcekCZLw/ZSa9srb2uBSSbN2KhuhD71QcsyLy9Z/swxWVWDLMptGnXmm3qqQfdXl4NGyOECSLBgMmesXWcY2CJpvK7Xp+6ZadBwOASrclF3G1wX0/D3cF6H+lqVVZWrKKVc4djOu5yiC0EOv1PLWWsHCeeDZyvMgkUVZIqt39LiZMLNPQC/q9dht9/DvOdQSi3hMuvr2SEg21txdsY1Gt/PnA958DJYGXQFZmyB+RfbV7h9VPtU3qvykGcQPN0PwL7fGHUzP8fM9aYlQ2f/o8p3ttYFKp+5OEvMmDFwm5lvwEm9rz+kfKOIby5wiFye4UY5vKz/bLToz82LtS2FaUxRj8cBJzBgJzhs6PUAKdx5ZH6wAW2DsyRujMHlP6IjXVeaTs6B3qseddB5zIyAIhW0GTkIw8T0TGGKi2BeeuqEx/jOWGaehVmpejrbEq8VGeMKn7Hd2cJ2Zyykwzjqix0x8dXixgfZflWZVB76XDsCdSGE2h/feneGLTzoRzoTcz+MVbdLMZVEAEiuB5TviCIC9SRmlR8kGLkNu+jA5Xcwlr51ccK/ubTgoh0XEaqGPyQR92K5rLgGwxiNUBasx1h+Jn2fQD0BPTHXK2a/U00N7Jyr4lpaZKTg+iorVSD2Pxq2+4UlW855hqCFVSYND2ITFVAT8hy9rDL7ZWUL6lvndMRSqb0uQ6QjWgmMSEqdoE7lYH7MKpBw5K4cAXNBh0bf8Dz1n9AvX14ySToEC6J1qmYksgmrmbhGAZv7T3qW/78wyKZpY8tBF6+1FCxCvfdawFHtkGeuSTC4MayhjJznPoJHrF0ytOrfmW9garYOj515u3MtZdD3sN/qY84QQOOW+Kop3Y6ld51mWvbFSSdxOjfKwEn+PtNMFqYeEnO4gyFHSdJxuPkkMcP37L9gMebGrid6H+Pz9G4/otBYh1J/+d2DsWHzuQ/ivV3cYadeuVdkKMCWzNj4nlnyWtpMeRuRubDBWvOstLHHG0ckG/MW5RZzaltuLLRapzSakA/Su1QSM6WeF54zzoMcciX8Y7yGG2SCMFJSoVxXiVl1VtnV5CJPsLGE27DR4cagcvynmCWuesUTfTuZRpHAQYJEP2YKAhwY4R+Gi2mSZOlHBTvM1qSdxJvhc6LkR4Xkq95trUTMR5fyKVpkwEEYtwJnbGHejMXhOxYOrXqB6fSATRQOzqEJ+eDgLJ8S1rs9/6ffP8yZyH4aveJTiCpwGFfI8TJgpmbEmFhJL/UqnsqPZ05JuQ2bW8+z7sQwrv92cVx8c1K/3G8fapPCetW7WfIJt43ty/pfZZk+mNk8D24HTGw6qpunwTCRQ7aW+TJaDp5Bqfu7iOLw+cU/7XuauIXL1Cw4Nns5NSEf5DeIDlGK0sBH0yet79nrsCGmFzurHIR72UcvyHS1SEK8b+oxScyBtBzDNmwZJcXLb4Ht3FUlN58NvOgnMQybTU6tJD9LM8l1uJiUOPl1ox1BXeT7leGThBn/GDQSl2JLfjtnT1OdsbP81bYFvvN96g0yxoDsYNMVtv7nHrdc84aun/Xeq9LhHkRkDzacqO/0ee4R0IQ89xjv9wnhqeDIsv6/gKe8yxF09c1SjVGM7gs5hTux5BS12o443YNV51R5yjSwjUvZcbsAP/xwY1ju5pMDCA6k37dTT/eAOn6nyKqez1d5Hor6hKFhOcJlKEWrcdpej4CYdIbD4J8K+1m9f77zyfctbeMshGAzRj0EQTD8GzszxjekZ8QpKpNwefX1wUFAE/LBwXm/T5EEUTT0/9Wr7k+kF4z9DwgnaxO2czQX/rAjqkxiZsfab2ZV/sCOyltkZ+X0FRdY0LFGvfHd6LZ/j62jX1BbR5UOvMpH1JRcruRP2W7PjFBea2T53V2IRnyiMK3jLN/vwtdHwt1rh+dD/4IDu+4n8PteOEL/HQhthxD2r9qE9UvlkYtp1MEp+Vxug1XPCZ/D75vfDy8fOAWnq7HL8s9ilgM98b7xHGt953y/8t3yPRf1xPTjAAuNPLYG3x6Piy+V3GJibUOrqcJv6tBc161zH5rit85Tw/o6RnQYx1ZYOIX5cIeTnBdsw5YiVd3DY7HTEkXVcalfhkOnWBzkkPHyv8WkdV1nwr+b+uXA5Emmhb6x/sdUIqafECM+fjy8dZ2EafxKbBQ7CaZeS8AymGozaC1KSjmz+B9LROaR7IPBrOhABtGKzRwI+j+hPX8UouZDEDz/Y/G2syAdBlL/wSLm8Dumy0hXWJeixB+C3wk76+dksVEmB0E/S++kFpSRUel+XMC3DuK8WYnYOBxgAYf7heVcXnKLWUdPZbWUVd9TjoAm5HI8DukndCT5PhRR7FhxzxsNz73CsexeSk8wV9vHTA5p6/IO2YmZV9CZA6Kiy9Ng5T2zGRPoGzq39v2AANXbGmNqveXmB999B4rzF3jcaYgKYcFEUBIsrQ2QHv9J8sUpKCvLNXmUcCzRNV1D0qm4g//2epmXLEPcjzo9CAfnPyjNAiqMKjP5nMquwvXbdeq9Hflc7gIU/GL4J15Ib2wkTdSGZZX41/pO8ZzQO0TZoIpCnREtLwH1RGYrPl+/ZKh3QJWa5cKzCKU+GgSBunTmBqlLSxUjvClgeNnGdxuW+HzaTvUwKkLg5pOSan23YbND7wMiprogDgeRWODVS9zl2/5Vpd1as9Q5hnXofC7jMyL6wMdMS7x9gdOB8O8FA3HKUCyqU8CmIJB9ylfxF+Q6ch/C3SLgA7YCSx+58Ij2C0sY98YTxldL0/fic2ZLVnhc2cIY3WLipV2E97iU/nmhs5fqqKlVqJaQ8Rz53nifvAYRcwbBqB1YsHsJdH9tIhX/lowrOct3NrWs+nN9EZhFA69vQXRu+yIQJmVO30Vs9EOQDy/HAtxR0rm/IcrcK1bbkfd94uQ37NgqP7UNO2UlEatw4g9Yb7olkUzeUorMAl1stR78wtN3ORMQ7hqoEs6Av9qUJCvfzeO53MdSt51orB2ewaUyOY1nMAQONtKBucjvxPO+aRnerSWJuUa9KrAz6WlMYTLcs3EpHnkNojD89zYraWJwAxFjp2YdBtQyMi7u3INEbHI2BVXNP8DO/NqSH5Ma3tNki9BXBwMBTcgHA+VZPEN27t4B+DLokzajdLWIJZkrIa5+AG4+U3D44oJjyjo3H6fIdBaPpkAZkrwgZ+ELToHpBxf65Wfg9/zzna80NrJs4cHjQM9UKg86ES/kxUW26X+GLh0Z0QHkyG3lKL6ULmc1hZ+uHOV1Qv2K0nfMsC2qhRDC/XmI4msWD/b+bxaimnrxeapuvB5eftfRQjifgk3xpxAePj7dduda39PUelD3L7c7o0rYavRvEM4/3zW46lFZJikVs03o7c7Eo5EPTciN/HamlA2dsKTzC6b33iUIWvmXZEqQWXGhTaapK5Gx85M4FAlQzuQ2bOpkEcjyPleIvz1m29kPs7gsI88kM57DR1n5oYZByhsWOOnX7hZjSMv0pXvrWv5wGcLXZfXi2IPwL3RfGoeeGbHn/gWVufjorX2/Rroy1UM4D3Udrrfc7uw/90lA9un5Tuq4em935jMn30dgxkYVzF53/CmU40blFjNcJlVOfW5sBCAM6KNZECDJsZPRBI3ST9fW3vdisWt1wSs8hd1+kO/gqgISH6gFs+OAQJEeH2d3qLxULpxqcwCAlOylneQ7Ldv8wY6eDX9PiZBllOXEdF8RAu+TkibLj2nz9u6BG33LuzdpO6/dK8bpAg8EAwOA0MFnhj7OyWVZvTjUoQxw4COgt3Y7nNSZCC7w45GejavwixzsUJ+yMrJQlIhZT6SR9X6hu/+dI8azj6Sc+M0wXTxuVGQYJIAjjbw3uEbOVdaP96l75XPpzQ82Jikzbgnhj+7xsleahruyRMYolyrTnICnM50TBOa80c9JqXWmRlgHK8NIxUc/Ax7+NPzjLgShsPsymKNDqMIduR7Qqfx4VmZynO7DKf7vwf7XJZKJb5b0yyAGOgWnWiOIbGF8C87UTx8TWdweRLVgPixXtSRVj7qE85haL8d0Yh7CJCJm4dquob6rmDaskih7B3CLCTO7K6Ff78PgaGYELGJwgHnrYqpYKhtVLMAL79kZ87IuqH7AtL11pYVWrScm7E17aEJu2lcniVa+P0pCrAZ9IEBIvhQLSNAvp7ANO1uXVfzpIAqTKB4uJUjYBcNMLm6Mu9knoda+unNw9SZ1LyN1C8+4G4tofyRD0QfsK50pMc2hJmNVTkV8GCz4P2LHGTAbo7XCxJ1d7a/4KBfqwkT84vL+RXnhfwKBMC9stxNtgVUIJOqQDrzW+smyQPhWdskcwGAf7mCggCvVic1AfdIUcVLdI9uCqo8+NxcCmpCb633tt7ThxSe6+TRs53OIGvJ2LpRxGs4b8bLLps37zazCH8pJuagaAWnAD4PDbdhCiPss074Uc2vbEN6/wjrkGEQxkZK7ujcoF2ivgQ5VNg4ScrBB1SCRWpBI7ym0j//V8ZvPpy2eNdw98DGA+qn5dtuJoyJb8juh6sR8ahlo9n0+ldimjTIYewvjz/qWdf2ScfGPcrtzjZYgDQS3LkoIgYbqCKFy6csaECBJIG6YDGjKhaUXzGfPAQevhROZV3JbBSwY5tRMjkWWJCbNr0z61bW4CQOaYzNux47Iwf+zmsLXQlQ1QDKrWxShSoKEbW+7nbSx220DqvN1bCi5Go7/T6VdHuylC9iw4tDYJUymtTxcPZPiObCS3v8CCT0/DjO2ryRM8aWSu1StnqgF4oa+RxNyQ7+e2goXlpblzrCJwuWY9n4YfpCP3CMy0nxNEaN6Qr0IUhFKQGKGB92yQ3KBlC7JmM9TadSzG/msyirrAz0ErTBgv2xID3l+Hl9z08qkrXQtOAZ5ByjIAQ0qIExlPEQGiUG9g9mN/y+G5WBDzllPMhXf78GIgNzI76VVy6YJuVXfLDtucfWfVZTbkYW4xLKN9xV3cElnQkgFbp40aauFUKZCSIKZzDPQb6MwdDvRVGSs6lVen+IsQOrNZ4/d1LyRux9sWYcuvpB9DKZ4N5ZCbmk9sXolLXuWOsWWrV3EKwZShGwKEsTUdtHgWb9YsnX1+31fvAM7xR5PWjE7DmkPfZwCHzx/ki4DwuR5Noci4yBPWnyBuJqUjIlDeX0URpNkzN+DulaHWhkZ4x3YELTTVtyCamnnWCHz14aZejvJeKppXXVP0ambCQHZCZupwLqstSEQVmOoOG3I6XIQwDF5mD8Ic+70y7WVuHXvIhGzdpLoi/r2NtiRY9EwA9viO2Omf43WE7fu+5+pZpqQZ0KnBX8L29Fy67KXK1wJWe98RCtpH3WzUo2BRlEyRyMEtUh/LQjdrKpURsJFQqb+mRYpLgZEV7gPwO3RuiVbV/2ED0J62TeBvSTvWT1c39w0CGhCbppXVd+CosOXtgNv7+lfgYZwCXTLq+Z6G3Z9a9EcuZWTsbLZNouuTbM/x5B3Xddg792sTXjAbI7a6VLWEwFNyPVEs8nyklJYLxbbBky5q0y6+TTFF2Ci9nqKZXlRqJtXsiaDpm7FJRlL1QTO3NXI4LLwA8KoHS/DUPuGlGF+7fChvj18YFitVLcC6IyaCgFNyE31uuamsGEieG7lncn4ePtfY5fDZ9qddNd4sOGhbDOHVmEc+D3sIxVjNbW43bmAldS7DM/5fOe2Vc8zJ/omMQak/xGtnjgwtC2dQhNyS7/e6ipHiVnpLEeWbjrWs8XFtmF8FHpOhv+hDwXugyhZHTB3Tc7lGIclYvkLrFjiiOzNSCXYVv3DmGf+7aJtvQ/xN+LNs8Kc1/qINgKakKP9/qetfTigKYNwYqfdFQkrcQb2+mFXGrZhB0xiKx8LmpQluU5aTtBGGRjZMmpHAk79c8+Yvnf1YvOVG8yhnkJ4RjLtC9BfRhYBTciRffUzV5yLS0xhroedMnaGDT9rnoUF/6sQjeLE6bZhy7RFW+aZc269XykVq/pLm27s3IPHN2PMze3FyunN7TH/1vmP9/2BacKOiVoPCV2j2SKgCXm2CLb4/eFVf7r59OJ7LwbpXDDfSR9V3IZNGpZmclGXlMHKIgHH/QhBBY2xebfj+Ncs/mnf02wiIG0OcFzg03riFu8zs6meJuTZoBehe6mlUGQiXWm65mfgS+cjgcVAAQ7xyx3MRwgakq0kWQc77Vzh/8byxcfnKkJ3lHCNYl01IUfxrc+izuEp9/aegZW28K/FmtUpjIYXVQk5IGTTh1c2C076n4Qz+zeFVT6zgFvfGjEENCFH7IXXo7rUKStvYzu6N6yBFcZVWT/qUrIh6BQIu+5GLWG/CyZtD1NNgUFK+qKuB+46j9ZHQDsXav13XPcaqgjYMmPTPJ0mBVE+AgnZN+mSP2HHOnzLPVnisXKz7l9Rbhg11F03mBpA07cEtrP0tYz4Qq8NCDmwqY0iNkpVg85EH8bQptt/HEUcdJ1nj4Am5NljGLkcIBFKVVc+55J4UvTfGfWDpAwczAJCZsHE4lhapMj4e0Wsoo6Prn9lCGhCrgwnnSqMwFru1+PhnehbfhJxmYOPEf5bXNgzGcMQ84fFbvLlLglHCasIg6OrXjECmpArhkonLCHwdEDIWK46Pm7Ce2/R7Kv0ewQvpNoCf1zfo0b9KFPEFkoYnh7QC+cRbA+1VlkTcq3IRfm+XZslyQjDOoax5TAr1yKybA8y/IqXsOw2OGc6XH61a6Em5Cj3lSrrrgm5SsB0csMYGn1GkoxliSNsErKWkEvNAnZuos2CU01TdJS+1BcagQoR0IRcIVA62SQC3Sd8VErE2LsHk4LgUJYG6nMUz8TAh0I9bjHQtpmOIga6zrNDQBPy7PCL6N0Dst7wAof2E1hYaD0ykYC5CRyU0uoE/8UkSAtXahOUiPaSWqqtCbkW1PQ9GoEZELDg9YM6C5mkqG+fIbn+SSNQQkATcgkKfVExAsWFKjCOh40h8jatsiiiV9y2CDrOV4ynTqgRKCKgCVk3haoRUIt6MD8eV/vztMoigNG0DCvnFej7Lls1sPqGyCOgCTnyTaB6ALo7XhPoRS3/97S75fy8+lxa8w7MGuwxxCG0fH9U1lDrkFvzRc9RrZw5yldn28oILNylVvJ2uNyZZgbRRVq5ypXVzUS0UtPyfLHH9+3fB/cEC6CV3a9TRR0BLSFHvQXUUv/X9UpCBg8/lxcutBZaQpYqG/xx5EYZ/0Xf8F6S0A4EWNUCs74neghoQo7eO599jdcHtm7C8p8CB2WhNp19nk2eQzAo+T62ksP4zRxx543vKFZJm701+bs9mMXXPelgot0izwL5SJJZEjN+jnB6GURXbpGa1V4NSsgwd4OEjOHJEs8fv/n8CRldRcfQqx3UCN6pCTmCL71eVTYf74Mlgf8kCBpZYptIRLdQq3rD4s0Z9QiJPVQvjHU+0UJAE3K03nfda2v55kMWpEIeUdUlB/U2sTXPMT1DvGzYxmMSkM0rg80h8oP+oxE4MAKakA+MkU4xDQKQCqWeAnuFH0AcOZmCkqKSFqe5pWW/UnW2OTAJ/7edW1YPEh8QtSbkln3rc1MxTchzg2vL5wqykXrkeNL5VcFzn0iYjhVtN5z0QUpIrP8TvPx1WrHe8r2g/hXUhFx/TCOTI6XAhY++ZxRrWZvaEEuOridB05FyWK+kY6otEC1EQEr+ZzYA01ivpePI9IT6VVQTcv2wjF5OvQNB+zHtH77sju4GKcUwURckJ0VUrQwK68i6YlzyEzB3g4D80FGD732qleus6za3CGhCnlt8Wzp3c6DP89f6Vtfg6m3gpvva4ZgdDUrGMGrpiocqR1LGzMBzsJJnCeNrIGjo0dfqfhXCSF9WjoBuOJVjpVNOh0AxZpwtrDv3upks7JIhJbd+1NNJ6djwUlYyNiqyj8dS8QcDiNbpzSDTtRX93QER0IR8QIh0gpkQUFLyom29D0E4/BGjZaijldUWJbWMaVoF+POA4uIb1KfrzSDq7etzLQjoleBaUNP3lCEA4qWJl79jxT1vNH1vC36Mh8lY6lnL7mjuD6W6wbCizU7Y44Xc/+3auvptxKC5a6ZLf6gR0BLyoX4DLfB8RURLtpz1JBSod0iLC8N0W42Ip74qjEJ2VuQKhu9eTQyoT5+aRn/WCFSDgG5A1aCl0+4XAUrJ/NHyC9eNedlnEmY8hm0ikpRLEuV+726OH1gP/pMDDdy5tcPUzxfia0u2nfsQF/LM9XojSHO8ycYtpSbkxn03TVUyKSH29tudQ+e9ZPvGhVkxAesDy8EcviXM4NSgQjLmQNNmJ51RN7stZZhr+KK03XFTNdeGLawm5IZ9Nc1XMLXAt3io7z5LmNclLGmbW9pOrUit+WoWlDggY8OzTdsZdydGISpfcPhQ3x6tqmjWN9p45daLeo33TlqmRMM9/f/aZqfeDRWGa5ompGVwMw455W+iWio1RVB+uNiEg03PEx/s2tp7p49ZAQeiJqqOLmoDI6Al5AZ+Oc1aNBCXHOjTbuz94152sN1OOfiiQCKWUmaRmBu9fiTgqWSMBUvLFe7VkoypN9Zk3OivsanKpyXkpnpdzVNYEBk2sJliePldR/si9kC7k3htRkwU6DNYkTLPjVyjSTLGRhd8mOek7L2FiS8vGVr9mUYuty5b8yKgJeTmfXcNXXKSMafzXU+cu92xxTvH3exT3NFmwRxukugCFUYjVqRURlhTsHxYxLNHC+O3KTLG7w09mDQiprpMB0ZAN6oDY6RTzAIBLnjRHOylk/u7sgVjYJ6dPhlRNTyY7VKCLjkhahRpmUTM6sqygYwRnsrGIp7huoVrO7f2XcnfSMb4XW8CIRj6qCsCmpDrCqfObDoEQGBSfbHr1Hs78rnCN1N2/OwJkYcvd79hiLmMiEnK2IWHctoZbyID/xwXLhns/fp0ddPfaQTqiYBWWdQTTZ3XtAhAmhSUlOnrAZ7hzsm62UuFLwpJK2ZDFuXKmUeJVEqlB3nBj0TMf3w2C08bY163Q0WRdQv/iSHjv5OMtQe3aV+t/rLOCGhCrjOgOrvpEaDaQtnrdg2dfQPod2VO5AdTZtxKWA6I2cgf7E0kZVIxdcX4xw0fvjC8cZH5u464+NNjtp39sDRt0w7np3+x+tu6IqBVFnWFU2d2IASoC2AaSKH+cyvvTMbH2i/Fd59YYLcv3CPGpYSKH0nQ8lBSs5Jg1fe1nBUBF1XAJR0wFxrjZizmQFcMFcUWOG+7rutnvffyGXJLtCbjWuDW99SAgCbkGkDTt8weARIzSZk5vdS98cSc4X0Ce6w/NN9pT8N2ObAzw7br4EklEpeLgNWQsyJhRexUkXBVjiMCpocWSThpxY3RQuYpjAZfNc30nZ1D784gidR7z76mOgeNQOUIaEKuHCudcg4QkP6DN7/NZdYv/En/64Rnvh9k+EHEplvIrdceNLw5Pw83aqaLRUC0V/I4/gsIXRI07yXh8ox7S5IvPysCBrsK3o98nTjyhQ4b+RZ8UP7PcNeXLcO7j344eIff62P3nal33xEMfRxUBDQhH1S49cOmQ4A6WmOgl06IJJn+obt/PkKPrAa79iL9GyBLdx3utBsFrLCBRHGGQ3js/ENiydDT5onfQM0wWTPtmOkYSTMuBeM9XmYcP233DetR2zO/vXjbWY+o504tx3T56u80AnOJgCbkuURX510VApBuS2oMdePOFf3Hu57/FjTUbmGa/83yreNAqMfOc9IJRifxIOlC8lXJISfDSE3mYhrjImvAvG43mPh5MPevQdFP4/wT209vplpC3cTn8loRs/penzUCBxsBTcgHG3H9vIoQAElaRu+AGfYVwUXA1FhHpyvMV9imdwTMIo5EssNgVdeBSEpyIRAyds73xV74//k9iBv/rJfivrlz4dCqF8IP1tJwGA193SgI/H+PJuOko6gofAAAAABJRU5ErkJggg==;" parent="1" vertex="1">
          <mxGeometry x="280" y="335.38" width="84" height="94.62" as="geometry" />
        </mxCell>
        <mxCell id="0s4_oxN7NKguhPvinldg-7" value="Account Enquiry&amp;nbsp;&lt;div&gt;(Rest Api)&lt;/div&gt;" style="image;aspect=fixed;perimeter=ellipsePerimeter;html=1;align=center;shadow=0;dashed=0;spacingTop=3;image=img/lib/active_directory/web_server.svg;" parent="1" vertex="1">
          <mxGeometry x="905.6" y="270" width="64" height="80" as="geometry" />
        </mxCell>
        <mxCell id="0s4_oxN7NKguhPvinldg-8" value="Transaction Enquiry&lt;div&gt;(Rest Api)&lt;/div&gt;" style="image;aspect=fixed;perimeter=ellipsePerimeter;html=1;align=center;shadow=0;dashed=0;spacingTop=3;image=img/lib/active_directory/web_server.svg;" parent="1" vertex="1">
          <mxGeometry x="905.6" y="410" width="64" height="80" as="geometry" />
        </mxCell>
        <mxCell id="0s4_oxN7NKguhPvinldg-14" value="" style="edgeStyle=orthogonalEdgeStyle;rounded=0;orthogonalLoop=1;jettySize=auto;html=1;exitX=1;exitY=0.5;exitDx=0;exitDy=0;entryX=0;entryY=0.5;entryDx=0;entryDy=0;entryPerimeter=0;" parent="1" source="0s4_oxN7NKguhPvinldg-6" target="0s4_oxN7NKguhPvinldg-11" edge="1">
          <mxGeometry relative="1" as="geometry">
            <mxPoint x="344" y="127" as="sourcePoint" />
            <mxPoint x="710" y="177.30999999999995" as="targetPoint" />
          </mxGeometry>
        </mxCell>
        <mxCell id="0s4_oxN7NKguhPvinldg-11" value="Customer Data&lt;div&gt;(H2 Database)&lt;/div&gt;" style="image;aspect=fixed;perimeter=ellipsePerimeter;html=1;align=center;shadow=0;dashed=0;spacingTop=3;image=img/lib/active_directory/database_server.svg;" parent="1" vertex="1">
          <mxGeometry x="905.6" y="130" width="65.6" height="80" as="geometry" />
        </mxCell>
        <mxCell id="0s4_oxN7NKguhPvinldg-20" value="&lt;div style=&quot;background-color: rgb(30, 31, 34); color: rgb(188, 190, 196); font-size: 8px;&quot;&gt;&lt;pre style=&quot;font-family: &amp;quot;JetBrains Mono&amp;quot;, monospace;&quot;&gt;&lt;span style=&quot;color:#cf8e6d;&quot;&gt;type &lt;/span&gt;CustomerContext {&lt;br&gt;    &lt;span style=&quot;color:#c77dbb;&quot;&gt;id&lt;/span&gt;: ID&lt;span style=&quot;color:#cc7832;&quot;&gt;!&lt;br&gt;&lt;/span&gt;&lt;span style=&quot;color:#cc7832;&quot;&gt;    &lt;/span&gt;&lt;span style=&quot;color:#c77dbb;&quot;&gt;name&lt;/span&gt;: String&lt;span style=&quot;color:#cc7832;&quot;&gt;!&lt;br&gt;&lt;/span&gt;&lt;span style=&quot;color:#cc7832;&quot;&gt;    &lt;/span&gt;&lt;span style=&quot;color:#c77dbb;&quot;&gt;phoneNumber&lt;/span&gt;: String&lt;span style=&quot;color:#cc7832;&quot;&gt;!&lt;br&gt;&lt;/span&gt;&lt;span style=&quot;color:#cc7832;&quot;&gt;    &lt;/span&gt;&lt;span style=&quot;color:#c77dbb;&quot;&gt;dateRegistered&lt;/span&gt;: String&lt;span style=&quot;color:#cc7832;&quot;&gt;!&lt;br&gt;&lt;/span&gt;&lt;span style=&quot;color:#cc7832;&quot;&gt;    &lt;/span&gt;&lt;span style=&quot;color:#c77dbb;&quot;&gt;status&lt;/span&gt;: String&lt;span style=&quot;color:#cc7832;&quot;&gt;!&lt;br&gt;&lt;/span&gt;&lt;span style=&quot;color:#cc7832;&quot;&gt;    &lt;/span&gt;&lt;span style=&quot;color:#c77dbb;&quot;&gt;accounts&lt;/span&gt;: [Account]  &lt;span style=&quot;color:#7a7e85;&quot;&gt;&lt;br&gt;&lt;/span&gt;&lt;span style=&quot;color:#7a7e85;&quot;&gt;    &lt;/span&gt;&lt;span style=&quot;color:#c77dbb;&quot;&gt;auditLogs&lt;/span&gt;: [AuditLog]&lt;span style=&quot;color:#7a7e85;&quot;&gt;&lt;br&gt;&lt;/span&gt;}&lt;/pre&gt;&lt;/div&gt;" style="text;whiteSpace=wrap;html=1;" parent="1" vertex="1">
          <mxGeometry x="430" y="330" width="130" height="100" as="geometry" />
        </mxCell>
        <mxCell id="0s4_oxN7NKguhPvinldg-25" value="&lt;div style=&quot;background-color: rgb(30, 31, 34); color: rgb(188, 190, 196); font-size: 8px;&quot;&gt;&lt;pre style=&quot;font-family: &amp;quot;JetBrains Mono&amp;quot;, monospace;&quot;&gt;&lt;span style=&quot;color:#cf8e6d;&quot;&gt;type &lt;/span&gt;Account {&lt;br&gt;    &lt;span style=&quot;color:#c77dbb;&quot;&gt;id&lt;/span&gt;: ID&lt;span style=&quot;color:#cc7832;&quot;&gt;!&lt;br&gt;&lt;/span&gt;&lt;span style=&quot;color:#cc7832;&quot;&gt;    &lt;/span&gt;&lt;span style=&quot;color:#c77dbb;&quot;&gt;accountNumber&lt;/span&gt;: String&lt;span style=&quot;color:#cc7832;&quot;&gt;!&lt;br&gt;&lt;/span&gt;&lt;span style=&quot;color:#cc7832;&quot;&gt;    &lt;/span&gt;&lt;span style=&quot;color:#c77dbb;&quot;&gt;accountType&lt;/span&gt;: String&lt;span style=&quot;color:#cc7832;&quot;&gt;!&lt;br&gt;&lt;/span&gt;&lt;span style=&quot;color:#cc7832;&quot;&gt;    &lt;/span&gt;&lt;span style=&quot;color:#c77dbb;&quot;&gt;customerID&lt;/span&gt;: String&lt;span style=&quot;color:#cc7832;&quot;&gt;!&lt;br&gt;&lt;/span&gt;&lt;span style=&quot;color:#cc7832;&quot;&gt;    &lt;/span&gt;&lt;span style=&quot;color:#c77dbb;&quot;&gt;dateOpened&lt;/span&gt;: String&lt;span style=&quot;color:#cc7832;&quot;&gt;!&lt;br&gt;&lt;/span&gt;&lt;span style=&quot;color:#cc7832;&quot;&gt;    &lt;/span&gt;&lt;span style=&quot;color:#c77dbb;&quot;&gt;balance&lt;/span&gt;: Float&lt;span style=&quot;color:#cc7832;&quot;&gt;!&lt;br&gt;&lt;/span&gt;&lt;span style=&quot;color:#cc7832;&quot;&gt;    &lt;/span&gt;&lt;span style=&quot;color:#c77dbb;&quot;&gt;status&lt;/span&gt;: String&lt;span style=&quot;color:#cc7832;&quot;&gt;!&lt;br&gt;&lt;/span&gt;&lt;span style=&quot;color:#cc7832;&quot;&gt;    &lt;/span&gt;&lt;span style=&quot;color:#c77dbb;&quot;&gt;transactions&lt;/span&gt;: [Transaction]&lt;span style=&quot;color:#7a7e85;&quot;&gt;&lt;br&gt;&lt;/span&gt;}&lt;/pre&gt;&lt;/div&gt;" style="text;whiteSpace=wrap;html=1;" parent="1" vertex="1">
          <mxGeometry x="690" y="250" width="150" height="120" as="geometry" />
        </mxCell>
        <mxCell id="0s4_oxN7NKguhPvinldg-29" value="&lt;div style=&quot;background-color: rgb(30, 31, 34); color: rgb(188, 190, 196); font-size: 8px;&quot;&gt;&lt;pre style=&quot;font-family: &amp;quot;JetBrains Mono&amp;quot;, monospace;&quot;&gt;&lt;span style=&quot;color:#cf8e6d;&quot;&gt;type &lt;/span&gt;Transaction {&lt;br&gt;    &lt;span style=&quot;color:#c77dbb;&quot;&gt;id&lt;/span&gt;: ID&lt;span style=&quot;color:#cc7832;&quot;&gt;!&lt;br&gt;&lt;/span&gt;&lt;span style=&quot;color:#cc7832;&quot;&gt;    &lt;/span&gt;&lt;span style=&quot;color:#c77dbb;&quot;&gt;account&lt;/span&gt;: String&lt;span style=&quot;color:#cc7832;&quot;&gt;!&lt;br&gt;&lt;/span&gt;&lt;span style=&quot;color:#cc7832;&quot;&gt;    &lt;/span&gt;&lt;span style=&quot;color:#c77dbb;&quot;&gt;transactionType&lt;/span&gt;: String&lt;span style=&quot;color:#cc7832;&quot;&gt;!&lt;br&gt;&lt;/span&gt;&lt;span style=&quot;color:#cc7832;&quot;&gt;    &lt;/span&gt;&lt;span style=&quot;color:#c77dbb;&quot;&gt;dateTransacted&lt;/span&gt;: String&lt;span style=&quot;color:#cc7832;&quot;&gt;!&lt;br&gt;&lt;/span&gt;&lt;span style=&quot;color:#cc7832;&quot;&gt;    &lt;/span&gt;&lt;span style=&quot;color:#c77dbb;&quot;&gt;amount&lt;/span&gt;: Float&lt;span style=&quot;color:#cc7832;&quot;&gt;!&lt;br&gt;&lt;/span&gt;&lt;span style=&quot;color:#cc7832;&quot;&gt;    &lt;/span&gt;&lt;span style=&quot;color:#c77dbb;&quot;&gt;status&lt;/span&gt;: String&lt;span style=&quot;color:#cc7832;&quot;&gt;!&lt;br&gt;&lt;/span&gt;&lt;span style=&quot;color:#cc7832;&quot;&gt;&lt;br&gt;&lt;/span&gt;}&lt;/pre&gt;&lt;/div&gt;" style="text;whiteSpace=wrap;html=1;" parent="1" vertex="1">
          <mxGeometry x="690" y="390" width="150" height="110" as="geometry" />
        </mxCell>
        <mxCell id="0s4_oxN7NKguhPvinldg-31" value="Audit Log Stream&#xa;( Kafka Topic)" style="shape=image;verticalLabelPosition=bottom;labelBackgroundColor=default;verticalAlign=top;aspect=fixed;imageAspect=0;image=data:image/png,iVBORw0KGgoAAAANSUhEUgAAAdoAAAIECAYAAAC+OO9tAAAAAXNSR0IArs4c6QAAAERlWElmTU0AKgAAAAgAAYdpAAQAAAABAAAAGgAAAAAAA6ABAAMAAAABAAEAAKACAAQAAAABAAAB2qADAAQAAAABAAACBAAAAADWSSYfAABAAElEQVR4Ae2dvY4cR5a2yQ+8iAFEyVhndAMUMDLkiMBAg3HGolwaor3AWDKWBHsMWQLWJg26or/QYAHSkSEB0g1onM+gKGDuQvueVmR3dbF+IjPPiZ+MJ4HsrsqKjDjnich84zfz9p//86+32CAAAQhAAAIQiCHw/2KiJVYIQAACEIAABIwAQks5gAAEIAABCAQSQGgD4RI1BCAAAQhAAKGlDEAAAhCAAAQCCSC0gXCJGgIQgAAEIIDQUgYgAAEIQAACgQQQ2kC4RA0BCEAAAhBAaCkDEIAABCAAgUACCG0gXKKGAAQgAAEIILSUAQhAAAIQgEAgAYQ2EC5RQwACEIAABBBaygAEIAABCEAgkABCGwiXqCEAAQhAAAIILWUAAhCAAAQgEEgAoQ2ES9QQgAAEIAABhJYyAAEIQAACEAgkgNAGwiVqCEAAAhCAAEJLGYAABCAAAQgEEkBoA+ESNQQgAAEIQAChpQxAAAIQgAAEAgkgtIFwiRoCEIAABCCA0FIGIAABCEAAAoEEENpAuEQNAQhAAAIQQGgpAxCAAAQgAIFAAghtIFyihgAEIAABCCC0lAEIQAACEIBAIAGENhAuUUMAAhCAAAQQWsoABCAAAQhAIJAAQhsIl6ghAAEIQAACCC1lAAIQgAAEIBBIAKENhEvUEIAABCAAAYSWMgABCEAAAhAIJIDQBsIlaghAAAIQgABCSxmAAAQgAAEIBBJAaAPhEjUEIAABCEAAoaUMQAACEIAABAIJILSBcIkaAhCAAAQggNBSBiAAAQhAAAKBBBDaQLhEDQEIQAACEEBoKQMQgAAEIACBQAIIbSBcooYABCAAAQggtJQBCEAAAhCAQCABhDYQLlFDAAIQgAAE7oAAAhB4l8D//vf/vDcd/fN//vXX6TP/IQABCMwlcFs3kbnnEB4CmyCQxPSRnPlM+x+0v5/p2C8K90L7d7p+XmeeQzAIQGBQAgjtoBk/qtsS1y/k+39pzxXVXFQvJbqf5wYmHAQgMA4BhHacvB7WU4nrp3LeWqDe4nqM6YVE98mxHzkOAQiMRQChHSu/h/JWAvtUDj+u6DSt3IrwSRoCrRBAaFvJCexwI5BasK/cIlwfEYK7niExQKBbAghtt1mH4YcISGR/O3S8kWP3mTzVSE5gBgQKEmAdbUHYJBVHwLqJGxdZc/6VbPwxjgIxQwACLRJAaFvMFWyaRUDi9UYn1ByLnWPvvQ4qBHP8ISwEIHCGAEJ7BhA/t00giVap2cRuMMxu7TYbmg0CENg4AYR24xm8Zfc20DK0rmSbGc0GAQhsmABCu+HM3aprEqcvNiCyU/Y8li/fTF/4DwEIbI8AQru9PB3Bo2cbc/IBLduN5SjuQGCHAEK7A4OP7RPYUEt2H7a1bBmz3afCdwhsgABCu4FMHMWFDYvslIU2Znv11qDpIP8hAIG+CSC0feffMNZLgN4M4uzbQfzETQgMQwChHSar+3VUImszc7tbwrOU+ECViqWIOA8CXRFAaLvKrmGN7eVhFF4Z9L7E1l7nxwYBCGyAAEK7gUzcsgsDt+62NrN6y8UU3yBwkgBCexIPP9YkIJG1WbjDdBnvs5b/rK/dh8J3CHRIAKHtMNMGMrnmq+5+Eedpr4X8Qa2ESRcCEPAjcMcvKmKCgB+B1Jr1i/B8TC8V5Pmp19jJJlt687X2YgKoNH+UTR+dN58QEIBAqwQQ2lZzBrtKtWaz3xErwftV2fK57Ul0f9Dn6K7texQFCECgbwK8+L3v/Nuk9ak1Gy20FxLOJ2sBJsGNXvv6UraawLNBAAIdEqBF22GmDWDyV8E+3k2t09XJpHhuS3B/Wx3Z8QisqxqhPc6HXyDQNAEmQzWdPcMaF9ZdKmG0XhzrAnbdLF5FaOO8IVtq5YfETaQQgEAsAYQ2li+xzyQQKShJDGdalB9c8Vur02YqR2zRrfwIm4kTAhAQAYSWYtAagRBBiRbZCaLS+WD67Pw/rJXvbCfRQQACewQQ2j0gfK1OIEJQLgp7dTcivTTxKiJq4oQABAIJILSBcIl6HoEoIVErc/Xs4jmeKD0bA44Yr300xw7CQgACbRBAaNvIB6z4ncBfAkDcD4jzbJQS24hZwg/PJkwACECgOQIIbXNZMrRB9mxj102C99o1wnmR/TQv+NnQ0Q/HOGsAASAAgfkEENr5zDgjjsDHzlFHdN/OMfHLOYEJCwEIbJMAQrvNfO3VK+8W2/OaICq3pmu6TtoQgMAOAYR2BwYft0Vgi0IXNWFsWzmPNxBoiwBC21Z+YM32CHiP026PEB5BYOMEENqNZ/DA7kU9oWku0n/OPeFM+A/P/M7PEIBAYwQQ2sYyBHMgcIbAJ2d+52cIQKAxAghtYxmCORA4QyD6lXxnkudnCEBgLgGEdi4xwvdCwHsG81K//7j0xCPnfXvkOIchAIFGCSC0jWYMZm2GgPfa4M2AwREIjEIAoR0lpwf0s5GlMK20rAcsAbgMgTYIILRt5ANW/E7Ae6bw5h7Cr7XB7i+tp/BBAAKxBBDaWL7EPo/Av+cFPxv68dkQgQHUov4mMHqihgAEOiGA0HaSUYOY6b3m9Fbl7uMHzvnm3eJ3No/oIACBQwQQ2kNUOFaLwHcBCf8QEOfZKCXwX5wNND/A9/NP4QwIQKA2AYS2dg6Q/hWBoGcTv1+pVfvsyjG/D1VfkuDnBjFBYCwCCO1Y+T2qt0Uf8iBh/zECdFBFJMJU4oQABHYIILQ7MPjYBIGQd8hGid8+sdRlfG//ON8hAIFxCSC04+Z9k56r1fZ5kGH3JIKhs4AV/6eyPaLL2JBsbqlSUD4TLQSaI4DQNpclGBRI4EGU2CaRfRVluyogjM9GwSVeCAQTuBMcP9FDYAkBa71FtQxNbB9IuG4vMezQOYrPxmQju4s3taxHvN7b56j84EEc+1D4vhkCt1XAN+MMjmyHgG7GvxXw5kLl/8nSdGSjdRWHtWJ37LovO1/vfO/iY+Jjr/V7qH3OoyitYmFLmZ736LfsZoPADQII7Q0cfGmFgG7SNp7q/cCHY+7ZBKy/66ae1aqSbU8VvthTp2SXW+v7GACv42Jj64cjeiMsjxBer4winqIEENqiuElsDgHdtEu0avdNstbUi/2D+j63VXYgikWHmm/NKp9KtewngC9V+YiaNDelwX8IuBFAaN1QEpE3Ad3AS7Zqvc13ia/l1qzyp2jL/gBQBPcAFA61RwChbS9PsGiHQKVW7Y4FVT/eze3OLmllhRbsOfcQ3HOE+L0qAZb3VMVP4hkE7meE2WKQnxoVWevOLzEBbE6e2kzy37RHPF96jh2EhcBBArRoD2LhYEsEdAN9I3vmzFptyfxFtrTWZaw8qN1NnMvxF7H7IDcw4SBQggAt2hKUSWMVgQFvnHdXAXM+OVV0is2yXmm+vUTCWrc2QYsNAk0QQGibyAaMyCDQlPhk2Ls0iK3tzVpmtDSBOeeZaCl8j70Jr2S7tcLZIFCdAF3H1bMAA3IJpFZKa+ODuebnhLNx2Y9yAkaHEWt7elPRtx4F+cREqSCwRJtPgBZtPitCViYgEbKnI4W83aeya5fJNySyNqloCyJrXMOeb32ZafyBQAYBhDYDEkHaISAxsgcVbE5s5dftdiiHPNmppnuIbU36pH0LoaUQdEdga2LbksimMdnuykSGwSa2jNlmgCKIPwGE1p8pMRYgkMT2okBSkUnYUpRmWrIbFtkpDx/LR2YjTzT4X4wAQlsMNQl5E5BIPVGcvT7QwibpNLPeUwL0xjt/Go1vy5PpGkWOWQgtZaBrAhKr1y21CjNh2osCmnkofupS7XEJTybum8EGaLnfdJhv1QkgtNWzAAM8CCSxvfCIKzCOy65iqxwEprEk6l4eRrHEt4PnpMrFwd84CAFvAgitN1Hiq0ZAAvYkCa696q61zVqxzXQVT3AG6jKeXJ7+D1e5mBznf3kCCG155qQYTCAJWitPkrInPdmDYVprxd6SyNrEoGG6jPeL3cCVjH0UfA8mwJOhggETfV0CupnaE45+0F5aUHp4Ybs9XrHWttvrUDpvdn1u8lWEuwbyuX8Cd/p3AQ8gcJyAWpL23ODLLluJrq2jjOwytAdp/D2ledyoBn5JrdmSlhib56da9qlS9BeFe1bQMKuENdelX9B/kipAgBZtAcgk0R4B3dTtMYPWdfpghXXWKnsh8bBlRl1t8r9Ua3ZRyz6JbqmeCFq1XZXe/oxFaPvLMyx2JLBGcCSwzTxsYg4S+WwVjOj1pDY2vboCkgQ3+rnLvHhgTgEi7GwCTIaajYwTIPA7gSQCPeL4KtJoq4B4iKzZqHh+tfj0cXdM19v8Nb0a3rYQ3wYJILQbzFRcgsAZAvfO/L7057BHSkpsbRw17GUSqZW/1G/Og8BJAgjtSTz8CIFtEYgUlCSGYcAUf+Sbm0Jb+WFQiLgLAghtF9mEkRBwIxAlKEXWLSexdYOxE1FUK38nCT6OSgChHTXn8XtUAhGCYhOfbBlVkU1phUxCi2ztFwFDIs0SQGibzRoMg0AfBCR8q2cXL/A0Yrz2kwV2cAoEzhJAaM8iIgAEtkEgqMVW5TWFQV3ID7eR03jRGgGEtrUcwR4IxBGwh3S4bhK8ms9w9m7V1nwUpGu+EFlbBBDatvIDayAQSeBj58i9hW6uec/nnkB4CNQggNDWoE6aEKhDwLvFVlXoIlrT6l63l1CwQcCVAELripPIIDAOgQihW0Av8olRC8zhFAi8SwChfZcJRyAAgX4IvHA29UPn+IgOArcQWgoBBCAAgWsCLPG5ZsEnJwIIrRNIooHAYATosh0sw3F3OQGEdjk7zoQABCAAAQicJYDQnkVEAAhA4AAB7xnMB5Kocui7KqmS6KYJILSbzl6cg8DmCXg/zennzRPDweIEENriyElwKwS0vKXYg/RbZNbImtOttqxbzHJsWkjgzsLzOA0CXRJI4vBIxn+mfdWbbBTXb4rDJgV9r/15I+tKZcrRzWz1FKavFZ+9I3Yz2+iVp81kZGOOILSNZQjm+BOQINozfm1fJaxHLDPhemC70pmC2GvjarzRZkr/2H+rEJitXpvFVU1oxfsbL0eIBwKRBBDaSLrEXY2AbsKfKnF7mIFnCy7Xn8dK/3EK/EiiW/VRhTtG/2vns8tH41yxJe9ZaTAeLFlyKRVEsk+AMdp9InzvmoBu/E+1W5fuK+01RHaf3zOzR3sLra9n+8Y5fLfKTPFNPN3fRCQnrMXPBgF3AgitO1IirEHAhMwETWlPLckaZpxK07qWTXDfnAoU+VvQ+OP78sl6D0pvEZWGVnoeSrMkvWACdB0HAyb6WAK6yT9VCq2K6yHnTZisQvBSwldjfNN7QpT5aL0Ht+1DiU38foxIp2IXeIQ7xNkQAVq0DWUGpuQT0M32vSRYPYnsroNTC9cqCiU373Wnl7anvAj3Q+lETWoLt50ExiWA0I6b9916rputjXe+7daBm4bbxClr4YZvSse6eK31GbIp/pCW5mRssj+iy9iSuJjS4T8EvAncVneJd5zEB4EwAqVEKcyB0xGHzFAWM3uZebGKie4p7t3I8sFaslEieyvC5tNZza8jEaBFO1Jud+yrtWY2LrKWOzZD2XV2coqvmMiaE5ZP2k3cXTbFZS3lMJFV3CzrcckpIjlGAKE9RobjzRBIYhHW5dmMo78bcjl2u9YmMZuWOXmvNc017W3Kt9zw74TT+V9ot271iAeN7KYXMm69mwCfxyZA1/HY+d+897rRWmsm+kbbJIcl3ZniFToOuxDUTzrvS/nzOud8+WCt+mIVhCWcc/wgDAQmAgjtRIL/zRFIrZnm7Cpp0BwREK83sq2Fh3ScQ/RSAfafUmWtyhq238+tAJxzit8hcIwAQnuMDMerEkBkr/GfE9vSLcBry/r/dI5t/x7iQQsEGKNtIRew4QYBRPYGjsvJRTeP/P5NnKYxzGLdrIfs6PjY/Y5tx/SOCNzpyFZMHYCAxMO6P9n2CFjlY2p96XPR5Tp7pmzl6090GW8lK9v3A6FtP4+GsVACYpNgaozTdcE4VUK8X3XXhe/eRkpkP/KOk/ggcIwAXcfHyHC8KAGJiM2WpQv0NHWrhMDoNKOcX+kyzqFEGDcCCK0bSiJaSWCUdbIrMXH6SgL2MofXK+PgdAjMIoDQzsJF4AgCas0WedZvhO3E2RWBXySyNd6Y1BUkjPUngND6MyXGGQTSuOyMMwgaTMDWuG5yk8h+sEnHcKp5Aght81m0XQMlsjZ7ljHHNrL4QkJk6+qtxbc5sTXf2sCMFSMSYNbxiLnejs9v2zHlUlxs7O5b3ZR/3bcrVQo+1HF7i8yWKge2zOXGDFwTW/lrCDbhJyJrWclWkwBPhqpJf+C0dSNv4Zm8q15Ll3x4oWzsdUnS3UOViqlYNpJHkzlL/tuYLN3FS8hxjisBhNYVJ5HlEtBNvNYEKHsl2kPdgF1nnsqfog/Cz+V8JFx2BUN+9fpwDJtdzMSnIwWAw2UJILRleZOaCOjm/VT/HleAEfoA+SRKP8ivVlu4i8VHvtWqGC0pJqH5vMQgzhmbAEI7dv5X8b7CTfudcchIx+WfjeNGvqh8rvkuXajyq1YFKdffovmcaxThIIDQUgaKEtDNuvTYbLXWTYUKxaG8dPdffr1RQq212t39PASTYxBYQoDlPUuocc4aAiWfAGWTfVzHYuc4rrRrLimZluu4+y+/bILRXe023l17C/OztmOkvx0CtGi3k5fNe6KWULGJNZVF7kZeFG7ZLh6HvWF05peUp18reOmlQLRgM/OIYPUJsI62fh6MZIHdkEts1tpqZjPRLyW2SqvoTFulZ2uOLU1bexs9Nl20EtFMAcKQ7gkgtN1nYVcOlGj12NIVu/k3tZUU21qOy8fnStt2m1luY/EmvB9rXzqea0+oep3i1Uc2CPRJgK7jPvOtO6vTjTd6fLbpWacFWnxWLppt9cl/Gzqw7dHv/278/U7ffm6xknTDSr5AYAEBhHYBNE6ZT0A32fAHOlircb5lZc8Qh/AZuz1wKEud1CBQlwCzjuvyHyn16G7jQ62k5vhKBHkkYHO5gkEQiCWA0MbyJfZCBCRgl2ODhZJbm0zo23HUarbxUTYIQKARAghtIxmxZTMK3Pjv98RPlYLomcE2CYkNAhBohABC20hGbNyM0Bu/hMv9oQwF8uOnwDSiu+kDTSdqCGyPAEK7vTxt0SNb4hG1hXbDRhmteL8MjJuoIQCBhgggtA1lxoZNWbqOMgdJT2OzV/502gq/sp8PEIBAPgGENp8VIRsk0LlghXUfa1x8WrPaYK5hEgTGIoDQjpXfW/O2hYfar2H6zzUnnzm3i+VOZ3zgZwhsggBCu4lsbNeJ4JbV9+16nmVZS++szTKYQBCAwHwCCO18ZpzRDoEeZxtf0VO3d3PPZL4yjg8QgIAbAYTWDSURHSHw4ZHjHoe/9Yhko3E83KhfuAWB7gggtN1lWXcGf9KdxRgMAQhAwJEAQusIk6ggAAEIQAAC+wQQ2n0ifIcABCAAAQg4EkBoHWES1UECbw8e5SAEIACBQQggtINkdEU3IycsRU60qojMJekXLrEQCQQgsJoAQrsaIRFUJND1RKvgNcYVs4WkIQCBXQII7S4NPvdGoPclLH/pDTj2QgAC8wkgtPOZccYMAsEPZYh8WcEMLxcHjXx94HeLreJECEDAlQBC64qTyCAwi8C9WaHnBf55XnBCQwACUQQQ2iiyxLtLIOzh/xrn/GY3oV4+R4/PBvck9IIZOyHQBAGEtols2LwRkQ//f9Apva87tRuzIQCBmQQQ2pnACL6IQOjL2dU6/HSRVXVPiqwghL3nti4yUodAnwQQ2j7zrSurC7ycvas1o6oYPA3OwNCKTbDtRA+BzRFAaDeXpUM69H70mKcz1cfO8d2IThUbhPYGEb5AoC4BhLYu/5FSfxnsbBePeizQmg3GTPQQgMBcAnfmnkB4CCwkYK2syHHJWyZias09WWhf+Gmp1R3ampUT0RWa1ZyO9T4wU3o1WiJolMBtFe5GTcOsrRHQDfa3Aj7dbfWGXcj/+/L/dQHOZ5OQvzZJzR7K8bH2uQ8XsQldVjn7ttX8lG1sEMgiQIs2CxOBnAjYzTPyIQ1mpnUh37YPLW2FRPZWbZGVn7au2aPnwsrJZVlRnJaVVna+rO2fGcIGgbkEaNHOJUb4xQRSC+fV4ghmnKgbcjNi6yg+OQSKt2jln7Van+UY5xTmpfL3c6e4iAYC4QQQ2nDEJLBLQDflEt3Hl0m2ILaFRXZCbU/i+pP8/3U6EPFfvtkypegx51OmF/HzlAH8BoEcAsw6zqFEGE8CF56RnYqrpKgfskPpv9Fxj27UQ9GfOmbjoW+TyJ8Kt+g3E9jEtqbImu2hfi6Cw0kQOECAFu0BKByKJZBu0rGJ3Iz9kVp3xdaWyr/3lHxLy40u5P/q2dgN+nUzl2/dcvFzP1K+Q2AtAVq0awly/hICpZegPJNIWOsyfFM61p3aksiaz49l12/aFz+qUufaJKfW/DLfdrdLP3cP8BkCLRCgRdtCLgxog934K7kdMpFG/tQer8zF+Ytatx/kBrZwFfNqjpn7YYtPCts3gO8QmAggtBMJ/hcl0IAwWav6uURn1ZpT+eG1nKUofyV2tsIh31rrAp/L6KyPcyMkPASWEEBol1DjHBcCDbWUTHRNcM8+HEE2W/frJ9prTwSSCS7bwXHN5GeRpVguXhyPBLE9zoZfChFAaAuBJpl3CXRwM7flIzazdYTt6olaHeTL3PxAbOcSI7wrAYTWFSeRzSWgm/qPOif6aVFzzRo1vFUsHmrfQkt2Pw8R230ifC9GgFnHxVCT0CECGiP96NBxjlUhYK33LYqswXygSp2Np7NBoDgBhLY4chI8QOD+gWMcgoA3ARPbxUucvI0hvnEIILTj5HWznqaZv6XX1jbLA8NCCWy1xR4KjcjXEUBo1/HjbCcCElt7SLyNEbJBIJSAWrW11nCH+kXk7RJAaNvNm+Esk9jOepDCaIDExyYv3pbfF6P57u0v47XeRInvFAGE9hQdfitOIAlJ8XQ7SPBqHFuMniRO9o5WtmUEarzsYZmlnNU9AYS2+yzcngOI7Tt5evBxguJkM7bvvhOaA1kE1Kp9kxWQQBBYSYB1tCsBcnocAcbSLtkeFNl96mJls2l7muizPx5f68EgVw/q2GfKdwh4EUBovUgSTwiBwcU2S2R3wYtXq89etlnlf1cr/OTL6FOF4YXClhLe2S9Z2OXNZwjkEEBocygRpiqBEcV2bfe5mFm3aCmxOlU+ZlcWpsgKVhpo1U7Q+R9CgDHaEKxE6kkgic4w62zXiqyxVxw2g7vm+O0j80P766VlQefakq8SPny91EbOg0AOAVq0OZQI0wQBtXC+kCHPmjAmxoiQ5/GKW9F35ZrAeuOJbt1G2OzNgPj6JYDQ9pt3w1qum+4WHziwuIs1tyBEi5XZESlYwfaH88/NJ8JtjwBdx9vL0817lG7mFxtx9CfzR/viLtZcDkrDumKv1uPmnpcbLuVLbvDZ4ZL9UUMIX802iBMgkEkAoc0ERbC2COimOz20YX+ZSFuGnrbGJuGUfntRiKBEi+yEMYnt9NXzP69q9KRJXDcIILQ3cPClNwK68U6TfnoSXOumtFbsyaUuQXkRIShFexeMXQQbdU3bWmQ2CLgTuOMeIxFCoDCBJFgf6Eb5npL+QXsLy1oOUdjkOKD4PznkbPAxE/fHzml8ovjCu/CdbSa6DgjQou0gkzAxj4AJrvYPtFuLJ2osL8+Y61Bmh3URFxmHvU723U+qiNisbe8tbMz3lKHiGSHuD0+lyW8QWEqAFu1ScpzXNAHdiG3iz+epO9AEpuRD5O1h/1/KhtZaR+5do5V9tEqMZ7622hMiN9l6JoDQ9px72H6WQBICEzwT3lupVWfC6zlWaePD9tjAZ0qvxrirks7aPs4KlR+odq/Bc5nqKbT5nhMSAjMIsI52BiyCbo+AhHfxmlyJasiknCjKa3w9YlP1MecAn3gc45HM5vByAozRLmfHmYMT0E3eJl8Nu1XuNp649zTbfLKZ/4MRQGgHy3DchcDGCFiXvef2oWdkxAUBI4DQUg4gAAEIXBOwJT5sEHAlgNC64iQyCAxDgC7bYbIaR9cSQGjXEuR8CEAAAhCAwAkCCO0JOPwEAQgcJbDVNaffHfWYHyCwkABCuxAcp0EAAk0Q8H6a089NeIURmyKA0G4qO3EGAuUIaHmT+5OmFli/1Zb1AhSc0ioBhLbVnMEuCPgT8J7AtLkZuo0/2cu/RBBjEQIIbRHMJAKBJgh872yF99tzZpmnFvU3s04gMAQqEUBoK4EnWQhUIGDPfHbdKncfez/n2LvF78qayPolgND2m3dYDoG5BL6de0JG+FcZYdyDSOAjXvnn3eJ395sI+ySA0PaZb1gNgdkEosYfg0TvnH/PzgVY8Lu9DYgNAu4EEFp3pEQIgaYJ2LtyvbcI0Ttqo4T9x6M/rvihkZckrPCAU1slgNC2mjPYBYEYAiGtNonf4tcNznEztZ493yU8J3nCQmARAYR2ETZOgkCfBNRqCxFaoxEttorf1u1GtZ4f9ZmjWN0DAYS2h1zCRgj4EgibXRsltqklGzbxKrIC4pt1xNYjAYS2x1zD5iYIRE0uKuCc92MLb5hsYqv9vRsHV3xRXDYmG9WSNcvCKh4r3ObUDRFAaDeUmbgyj4Bu4NYVuXjT+U89BWWxITNPLDTp563YrHqgROJrY7/RY7KhFY+Z2UPwDRK4rYtug27hEgTeJaAbtwmrrb/0ftCBJWazeb8sJGKW3qrNREwRlHqyUzYb2WUt4a+1R+TRQWbKs9sHf+AgBJwIILROIImmXQKFRcVAvNTN+/N2ifxumbgUmSl8gIMJ7z93jn+mz3/QXuMFAfd7qRzt8OJjZwQQ2s4yDHPzCUhIrOuyWMvogGU29vcn3ch/PfBb9UMVKiDVfd43gNbsPhG+RxBgjDaCKnFWJWACklprNUXWGFgLzcYq31QFciRxicyTIz+NcvjuKI7iZ10Cd+omT+oQ8CMgQbMx2LAlICssfT8J/0WD4mZi83aFb72eat37TfY09AoUu48ToEV7nA2/dERAQmbdxC2K7C7Fx0lwd49V/ZzE5mVVIyokLr+bH0OvgIUkgwggtEFgibYcgSRetbuJsx02e7WvWlqUnVhGwAFFhy7jjHJBED8CCK0fS2IqTMDEKols4ZRdknsl21etM3WxIkUisR1liYt139Nl7Fl4iOssAYT2LCICtEggtQhb7yo+h+5BS2IrY++fM7jz321cdvQJYJ1nYZ/mI7R95tvQVm9EZKc8bEZsJUKvZdRmxVb+MS47lTr+FyWA0BbFTWJrCWxMZCcciO1EIui/RHaUrvEggkS7hgBCu4Ye5xYlIJG1x/P13l18jJmJrT0Wsfq2tZYtIlu9SA1vAEI7fBHoCsDW13va8p8mZiMnse39Ha02JktLtqtLfJvGIrTbzNfNeSUBqvVc3tIsm2mxS6SedyxUNruYMdnSpZf0DhJAaA9i4WBLBCSyzSyDKcGltUpFElt7EUAv213ZzOziXnJrADsR2gEyuWcXJTo2LtvNwyi8WMvvJsZrJ38kXB/pc+szkn+ySoF21slOGcf/JgggtE1kA0acILD1cdljrpd6V+yx9N85LgF7bUKmH1ps3Vor1ioDbBBojgBC21yWYNBEQK26L6bPI/6X/29a9DsJmj3G0F4DWHuz98nSiq2dC6R/kgDvoz2Jhx9rEpDQ1JoAdUhAaryU3PBbS63prlDlU+n3/lr+PBQXe8AGGwSaJ3CneQsxcEgCunmXHqN8pBv383OwZZctv/lK+71zYZ1+/0HxfOAUV0g04mazez8vwMaW6zCTOCQXiTSSAC3aSLrEvZiAbtolWrPWMvqTbt6LWoyysVRLrvlW7X5GJ9H9RMcfal/aG2Cv77MlRrRc9wHzvSsCCG1X2TWGsekmHb2eNKsFm0O8QKVgEy05cbIZ5LZ9qN1EeNpswtu39mVppWeKiP8QaJEAQttirgxuU7Rw6WZuM2ddN9kc2rqNsNkVAJFBAAJHCTDr+CgaftgigSjBUrw2dmhdnSGbhNzGhtkgAIEOCSC0HWbalk2WoIQt6YkS2Sk/gsXWJmCxQQACHRJAaDvMtI2b/F8R/kWL7GRzEtvpq+f/UrOcPW0mLghAQAQQWopBawSWzlA95UfRt9BEiTrdx6eymN8g0C4BhLbdvBnOMgnJNCvV1XcJ39n1sa4J/h7ZRUCcuzN1A6InSghAIIIAQhtBlTiXEohoeVZ5EL7EPeLtMbYmlQ0CEOiMAELbWYZt3Nw/evsnwav5sAPvWcgR3ereyIkPAhDYI4DQ7gHha1UCHzun7i10c82r0WU910bCQwACwQQQ2mDARD+LgHeLrarQRbSmo8axZ+USgSEAgVkEENpZuAjcE4EIoVvgvz1PmQ0CEBiYAEI7cObjehEC/y6SColAAALNEkBom80aDFtJoJWW5D9X+rF/uj2Qnw0CEOiIAELbUWZhKgREgLW0FAMIdEYAoe0swzB3eALfDU8AABDojABC21mGYW42Ae8ZzNkJ7wX0Xhv88178fIUABBongNA2nkGY1z0B77XB3QPBAQiMRgChHS3HB/K3kTWnrbSsB8p5XIVAWwQQ2rbyY3RrvGcKf10TaMTbdrQ2+NeaPpE2BCAwnwBCO58ZZ8QR8F5z+iDO1KyYw15in5U6gSAAgSYIILRNZANGJALea05vRbQqZ+SWt9B7t/hnuEJQCEBgKQGEdik5zosg8Cwg0hcBcZ6NUgL/9Gyg+QG+n38KZ0AAArUJILS1c4D0rwgEjT++X6lV+/jKMb8PVV+S4OcGMUFgLAII7Vj5Paq3r0o6LmH/LSK9Rl6SEOEacUJg0wQQ2k1nb5fOPYqwOkr89m1VOt/sH3P6zvisE0iigUBpAghtaeKkd5KAWm1h3aPRYqv4bVzWewLUxOsf0wf+QwACfRFAaPvKL6xdSSBKbFNLNmJc9tLjyArISqScDgEInCGA0J4BxM9VCNyPTNXEVvunXmkk8Y5qyZqZP3nZSjwQgEB5AghteeakeIZAoUk/rySQP54x5eTPOv9pEtmT4Rx+/JtDHEQBAQhUInCnUrokC4FzBC4UIKwrNiV+LwmlTTR6mCPwCm8tYXviU2QLNpl3+e8X2cVjF3eJ8BkCnRG4rYu4M5MxdxQChVqLh3Ca8O4+6OKhvtd6OcBdhPZQFnEMAv0QoEXbT16NaGmJVu0hriaq0a3pQ+nuH6M1u0+E7xDokABjtB1m2igmqyX3ZBRfD/kp/z84dJxjEIBAXwQQ2r7ya0Rr747otHx+OajfuA2BzRFAaDeXpdtyKI1PDic68vvzbeUk3kBgXAII7bh5343no4mO/L3dTeZgKAQgcJYAQnsWEQFaIDCQ+IQ+rKOFvMQGCIxGAKEdLcf79nfrIvRSFYrXfWcR1kMAAvsEENp9InxvlkASoa2KrYks47LNlj4Mg8ByAgjtcnacWYFAEtuLCklHJmnrZRHZSMLEDYGKBBDaivBJehkBiZKtrw15b+0yi1adZSLLetlVCDkZAm0TQGjbzh+sO0JA4mTvre29G9m6ixHZI3nMYQhshQBCu5WcHNAPiZRNHOr1gRaPZD/dxQOWW1wejwAvFRgvzzfpsV5A8EaO1Xrw/1ymvChgLjHCQ6BjArRoO848TL8mkLpgWx+3ta5iq9zy2rvrrOMTBDZPgBbt5rN4PAfVuv1GXpd6X2wOYHvt3p8Q2BxUhIHA9gggtNvLUzwSAYnte/r3g/ba3cn3JbA8hIJSCYGBCSC0A2f+KK5XaOH+JLZ/owU7SgnDTwicJoDQnubDrxsiIMH9VO58pf1ekFs2k9iWHbFBAAIQuCKA0F6h4MNIBFLXsk2eeqh9Sfeyjbt+r/05XcOiwAYBCBwlgNAeRcMPoxFI4ju5vTuD+Tsd/Nl+oDt4wsN/CEAglwBCm0uKcBCAAAQgAIEFBFhHuwAap0AAAhCAAARyCSC0uaQIBwEIQAACEFhAAKFdAI1TIAABCEAAArkEENpcUoSDAAQgAAEILCCA0C6AxikQgAAEIACBXAIIbS4pwkEAAhCAAAQWEEBoF0DjFAhAAAIQgEAuAYQ2lxThIAABCEAAAgsIILQLoHEKBCAAAQhAIJcAQptLinAQgAAEIACBBQQQ2gXQOAUCEIAABCCQSwChzSVFOAhAAAIQgMACAgjtAmicAgEIQAACEMglgNDmkiIcBCAAAQhAYAEBhHYBNE6BAAQgAAEI5BJAaHNJEQ4CEIAABCCwgABCuwAap0AAAhCAAARyCSC0uaQIBwEIQAACEFhAAKFdAI1TIAABCEAAArkEENpcUoSDAAQgAAEILCCA0C6AxikQgAAEIACBXAIIbS4pwkEAAhCAAAQWEEBoF0DjFAhAAAIQgEAuAYQ2lxThIAABCEAAAgsIILQLoHEKBCAAAQhAIJcAQptLinAQgAAEIACBBQQQ2gXQOAUCEIAABCCQSwChzSVFOAhAAAIQgMACAgjtAmicAgEIQAACEMglgNDmkiIcBCAAAQhAYAEBhHYBNE6BAAQgAAEI5BJAaHNJEQ4CEIAABCCwgABCuwAap0AAAhCAAARyCSC0uaQIBwEIQAACEFhAAKFdAI1TIAABCEAAArkE7uQGJBwEINAngf/97/95L1n+of5/csCLP+rYf/z5P//60YHfOAQBCKwkgNCuBMjpEGiJgET1U9nzhfaPtb8/w7ZfZoQlKAQgMINA90KrG8s38vdfM3w+FvStavTPj/3IcQi0SiBdAw9K26d0TdDvOqX7na6/105xEQ0EmiLQtdDqQrcuMc8bDELbVPHEmGMEUtn/Qb/PabUei27p8WdLTzxw3oWOIbQHwHCofwJdC60zfrrOnIESnT+BRgR2csyumZpCP9nBfwg0TYBZx01nD8ZB4JqARNaGSd5qR9yusfAJAs0ToEXbfBZhIARu3ZLI/gYHCECgTwK0aPvMN6weiAAiO1Bm4+omCSC0m8xWnNoKAUR2KzmJHyMTQGhHzn18b5qARPbHpg3EOAhAIIsAQpuFiUAQKEtAImsPnrhXNlVSgwAEIgggtBFUiRMC6wm8Wh8FMUAAAi0QQGhbyAVsgMAOAbVmn+585SMEINA5AYS28wzE/E0SeLxJr3AKAoMSQGgHzXjcbpNAGputYRwPwahBnTSHIMADK4bIZpzsiMBXBWy9UBr2hKlvC6RFEhAYngBCO3wRAEBjBKJmGr/U23E+b8xXzIHAEAQQ2iGyGSd7IKBu4+kF7d7m3ucVdN5IiQ8C+QQQ2nxWhIRANIFHAQnclcj+GhAvUUIAApkEmAyVCYpgEChA4I/OaVh3MSLrDJXoIDCXAEI7lxjhIRBH4GPPqBmT9aRJXBBYTgChXc6OMyHgTcBzic1P3sYRHwQgsIwAQruMG2dBoHUC/2zdQOyDwCgEENpRcho/RyPwbDSH8RcCrRJAaFvNGeyCAAQgAIFNEEBoN5GNOAGBmwSYbXyTB98gUJMAQluTPmlDAAIQgMDmCfDAis1ncTsO7jz56ENZ9cmeZd/p+892jNbYHhm+QsCBwM719xdFd3cnyrf6fPnca669HSqOHxFaR5hEdU0gvYXmCx2xtaGzlq3o3CmiX/ThhfZn3AAmJPyHwGkCSVDtKWOfaZ/17Oyda88Sean9ua691/aFbTkBhHY5O87cI6CL9BsderB3eM1XE2h7N+vjdAPgwl9Dk3M3S0DXx6dyzt78NEtYzwCxa/nBjvg+kug+P3MOPx8ggNAegBJ9KECQdk3+SRfDR7sHIj/Ll6eKv9SLyncv/FkXvTdzMb6dy1Vp/5Yb1ivckjTn+ORlZ414lrCZYWexZ0vLD3sJxdfaPSu3p1x9pjRt2Zg9DOVvKi/Zj/d0Zt7dSzIQ2lPFKuA3FTireUZdGMVehSY/vFuvc2lPF32u4P5rbgInwluX9ta2Lfr0Th453/BvxF+qopLuIa9uJF72i7Wa38qOX+TzB2WTvkztci5HhXQXJ4nQLkY3/8TgC8RasuHvG5UPtQV2H/wkuMVaEvsG8L0PAiq7kT0L96MpyH5rwb6NTmdG/O8npsUq+DNsayooy3vKZkdYLVQiG9pdrAvqi3RRRbXG1+aE1bCtG5sNAu8QUNmwCmLUFt6VKfvfyPiWRHaXpY3jRlZidtPq8jNCWyjbIgtidJdVush7eKSfTZqyGxIbBK4IqExE9sKEiqxsnyq4s2buXzlf8INs/U27DY2x7RFAaPeARHy1AhgRr8UZKbJ20STbm7/Id/hO3Vk7h/g4KgGVX+vliOqFiRbZH2V7DxXc3eL1KjHfPTb8Z4Q2uAgkoQpJJVhkrRUQ1tUdAmQn0kjuO8nwsWECKgPWuoqaEW/jkmHrS1P59VyqUzKnrGfJKglsiQBCG1gUIm/2wSJrF0lUKyCQ+M2oI/nfTIlvrRFQ3pvIRlUUQyf/bKTc3pMf9sAaNhFAaIOKgQrZm6Coo7uLrZu715r0O8gj8+GdxDjQEoHuRFZldRqqaYnjGltsRQBjtiKI0K4pRkfOVeGybteQcc3glmzYWPIRVCUO25it1axbnbFZgsFQaSi/o8pxWEs2ldGoykHN/N+iT7N5IrSzkZ0+IYlsSLcrInua/YlfbULJ3RO/89NGCASKrD2cIXKdem+TnrJLTLonZoffYkCE1jFXVaCsmyREZBVv2IL4QS6EqEkxjiWIqNYQCBRZG64JewJSpN1reDqeG3VPdDQxNiqE1olvEtmobpKwZQSy27pVh78QnIoB0VQiEClW9CRVytQNJYvQOmSmLnJ7NFp3Iptc32yXlUPWEkUHBHT9hS0lCRbZMLs7yLahTERofbI7aqJNWEvW3I5sBfhgJZaCBEIm70XbrzJsEw9DZskHi6wNM4XYHc2c+OcTuDP/FM7YJRAoVtEL4u0GVXP7RYn/W/s/DxjxRx37WHuXN/99f3Jv2J5lKTfNfVt7+p5ENmTYowC/qB6w3Cy06+/FkcAPdXwT194R/4ofRmhXIPe8Me6ZEbaMwNKR3dbVHXKD2vNj/+uFDjzTTSz7PZYWgey12r/3S60tarZOCaQyEVKGo0VWttfoMn6prH4u315nZPmTKUy6VzzSdyYTTlAW/EdoF0CzU1QAu1urt+PqDzufoz+urjSkm8Pl24nSDbZ2ayCaGfGfIBBZBgqIrFVyS3YZrxp+Eg+rFJvwXoqv2FtPWEgFR/FudkNoF2StCtubBaflnLJalM4lkm5SJbqF7P247q/uS6J7O/Jme44hv1cnEFLRihbZRK1UJXeVwB7LYTGytcSfI7jHCB0+zmSow1yOHk0FLESoUiE+mrbTDyE3qT3b7CJ3F9ndNBT/a+23dcy6xNgGIaDrL6on6X40wlQ5DLl37NhuFdzbdn3sHHP/qPhNcO+6R7zRCBHaGRkbWYtLojHDmvlB04U+/8QZZ5S4yHfNSRd8+E1yN00+1yEQKbIqR6HClIi9CCb3SH6EVnB37Vdav2q3yu5Pu8f5/C4BhPZdJgeP6CIPe7BDKqwH03U+GHmhW7e3XXTFN6U7tW6Lp02CZQj0LrKy38ZmI1uz1ov0vExu3ExF6Zq407N0E8uNbwjtDRyHv+gisVmvIQ92KCxOURd6+Njy4Zy5ebQwy5uJ8y2MQO8im8B8HQXIyr32Ei3yoy4ofetKRmyPEEJoj4CZDieRDRnXLCkM8iNs3Wy6yCZkVf+XZFrV0UESV7mNWgpjlcOS4hQ1U7eZYZN0H0BsD1ybCO0BKHuHuhfZ5E/Ihd6osDVz89krS3ydQSBVDiOWwhTtgUmV9RmeZwe9KFxZOGtYEtuz4UYLgNCeyHFdICEzHEuLU+CF3uSsw3TzYYLGibLd+k9JZCMqh0VFNnG2h624byrnT9wjdYiw9P3NweTwKBDaI4i3IrLJvU+OuLnmsN2wZj3haU1ic8+VbcVmX861jfCnCaSK4VZE1px1b5V3IGYXp3N5rF8R2gP5HSWySqpWC9D98Wm60CNfgn0gVxYdskfHsXVEIIls1HBN8TKb/PHOgebHQXV/aLK17Z0RufEhtNek7AH3kY9WtOn3zbYArzFkfeqitireVZY7ZBEk0D6Bt+lAlMhWWXomn2xZoOvWSSXXfGauRMp5hPb6Evj/qn0+vf7q+inkcWg5FkbUqDurrXKx5xSU+mHuqqxuYk7EHkp7C5Xn1nxrdnJW94mSs7qnZJv8j9BeZ4uNCbl3sSrOaiKbXPMen+3mQjf/udhTKWj/X8S1Z/lfqyU7EXdduy5/ind/T44s/M/wjcAhtAtLT+Zp9ki02rW6h5m25gbrsTu2q8pBbkYQ7jSBBkT2tIED/Ko86PF+4Z4zCK070qsIbVZuC4XMu0Zdu+JwBXjGhxbyYYa5BF1LoAWRVVf4e2v92Duf1uEekF6+IrQxOVVjrV6MJzdj7bJlqJtuj5WDm+T5lk2gBZFNxroKYyMV9+x82Al4sfN5yI8IrX+2b1VkjVTPgvWLf1YTY2sEGhLZ1tDUtCfkOfE1HZqbNkI7l9iZ8LrQm5msENB19e0Z91v++UXLxmGbC4HWngb2mYtXv0fSbUVR98StLGtcnJ0I7WJ0h0+MWqJwOLWyR7lgyvImtdkE7un6i1qiN9sYnfCHJScdOYeK4hEwPRxGaANySRd71BtHAqwdJsrhu68GyenHAT05g6ALdbPbFrkHFYTWg+K7cVjN2v2JMO8mU/TI0BdKUdIktpbA9JSptfG0dP53LRmDLfMIILTzeM0JTQtqDi3CQsCRgCq6bxyjayGqn1swAhuWEUBor7m5t9h0sYc8Uu7aZD5BAAJHCLyv66+l8dojZnJ4BAII7XUu/ztiaYAudsZrrxnX/PRhzcRJ+ywBeya1d2V3S+O1lN+zRajdAAjtdd5MMwS9H8qwlfFa1ydMXWMv9sn7mc/FDB8kof9QRfeDAF+3Ml7be/nt/f6xqmgitHv4dLFHrINlvHaPc4Wvf6yQJknmE5je1ez+tiV6lfIzgZAxBBDaA1yDupC7H6/VDcv72a0H6IcdsrczsTVOQNeePX3M+8ETtXqVvnfE7f1yEEfTTkfV+X3jtHOZvyK0x0FdHP9p2S+la9a6aXk/keUvyzznLAjkE1C5/Sg/dHbIGr1K/8q27nzAnrteXZ/5fB5VeyEQ2iN5oov9iX7ynpxRq2Z9xMvZh7tcG6wKzqezPeWE2gSmrmQ3O1QOSvcqfedmfN8Rddsa98KO0J4gKbGNmJxRumbtWVm4dwJXyz/1PpGkZbYhtqXemN57lVzXvqqi8E0I7PhIe26Nu9BBaM9jjJicUbJm7TlOdKvT1uHj89lMiNYIpF4lb7OK9SqlyoKn/d3NM+j0fuGZZ5dxIbRnkOpisckZ3kt+TLBK1U7Nfs/tK8/IouPiQo8mHBu/rr/bASmU7lVyc0HlubcJia/cnO84IoQ2I/N0sUcs+XlQSAS8X23XW/fxi4wsJkjbBHruVfKeQf1121l1bV2HlYJr450/IbSZQINq1uG1PdntPfO4ZGs8M3cOB0sX+vDjQ4fp9HNUZTiqV6nEU9ueO5Puqfv4B2ffu40OoZ2Xde7T1CUGJcZrPSdEGbFeLnYu9Hnlu9nQQb1K4eO1sttbaK2iW6KCsKosUMm9iQ+hvcnj5Ld00XiLVokW4j9OOrbgR11IbxacVuwU2fepEqM1W4x4fEK6/hiv/R2zVRBaH6vdyqMvXQo2QjsToy72iCU/oeO1EbVqYbO3o7S8rja8W35m0SG4D4ELn2iuY1E5ju5Vcp9MKeubFTLxfHpNl09GAKFdVg7cJ2fIjB6FocnZm7rQm25tLytynGUEVGl8on+99Sq5dx8bC5Xz5rqQZZO1tFlOZxm0syG0OzByP+pij5qcEVmzdh9fNl66sCJtzs2Sq3Cyx5ZN0WV8RWR7H3rrVUr3i4iMsC7k1lqPzba0IzIgN06ENpfUXjhdPBFLfsLGa2VvSK3asLQitrLDxmV7mai1V6L4OpNAb71KEd3HhszeuWvlvvrWyn2gOogDBiC0B6DkHpJ4RUzOiByvjbrYq4utLnKr2ffY/Z5b3Ai3QyC1Et3Lc5RYRFXME5JXsrvqfIkobjtZ3vVHhHZ99kV0yUYJxt/Xu3s8BrvYtBefDak0rbuYcaHjWbPJX6LEK5WnCGbuFYMdI58F2r2TzM2Pdr1rb2r46KaFbXxDaFfmgy5265KNmJzhXnhlqz28wt3WPYRvdeEVGTfaucjpLt7LhFG+qkz31KsUWtFVnltvWLHKbrrOGZPNuNgQ2gxI54LoYo9Y8hM1Xvunc/44/G7jRnbBh40dKW5rxXKRO2TWBqK4CPDBvVepUEXXUFhlN+xZ6nZda7eGAL1ImQUPoc0ElREsYnKG+3htwYvdkNnYkQmuy/iR4rFuqm8sTsVNKzajUI4QRGX6ifx076lJ5cwVYVSl/ICRU+vWrheX4RzFMwmseyXkgP2bOnRnU95UdEYX0GsVRKtZe9fyrFC7do/ZxR5xEzmB38aPbM2t3QxfaH8mG6wb++xmF7cCmVAjrGdpjRsgqkyr/H2juL1XGNhYbanybOmY6FrhsHSfyx9bnnh20zkm0DYH5aF2lsydJXY8AEJ7nM3sX1SAn6hwegvt5Yxexe0qtnIuolJwjpldrMbHupansIdaIlzUEx3+zyFgvUrerS0TqWxxyjHWhFtxlhLaXZN2RXc6zvU3kQj8T9exM9wAQby0UBem65iLVQqcXV8anYnq/r40Ls4bmIDK9Gu5HzGz11u8LZcihpqW5P7+tWff2ZwJILTOQFN0EUt+IsZrvVvJMTSJFQKZBKy1mBl0VjBVdG1egNsWWClws5GI/AggtH4sr2LSRWRLfrxf+Gzxb7lmfcWPDxBYQ0DXX0gFMqBXKaRSsIYd58YQQGhjuNrDzz+KiJqadQRV4twgAXqVNpipvbqE0Mbm3N2I6CW2Tz3jVaXAatYRLXBPM9fGFXHjXWsT5wcRSL1Khyb6rE3RvVcpqgW+1lHH8y8c4+oyKoQ2MNt0AdkSlojJGTZr12Vt3OS+bA1pgU/xV/6PyFbOgBrJq0x/EJGud69SsrGVyVHuyJQPrUy8dPctN0KENpfUwnAqZFHjMG8XmnT0NNkaMrZ1NMEyP/wiv2zMPKR3oYwLpLKCQIiASWy9VwHYjOktVgi57pSxCO2KKzj31CgB08X+JteG3HDJ1ohWeK4JruHkT0irxtVIIgsjoPyPWvITsQrA1utuqbJ7X/5kPZgmrAA0EjFCWy4jImqr70tsXcdrDYcuDmuFdy+2G7tplSupG0splecIr9zHa83IjZTbl/LDKjlsIoDQFioGKnRRS37cx2sNSbo5hXS7lUC+kZtVCVRDpBFVHiJ6lSxDkr29TlB8lO4fQ5StHCcR2hxKTmFU+KImHLmP15rLsvd1uuAjZm86UX0nGhuT3VL32zsOcmAxgW56lczDdL+IsHkxwIwTrbvYGhVsOwQQ2h0YhT6GTA6IqlkbE104Ns7ZwwV/kWwtlJUk0xOBJAARlcaQXiVjazZrt4pj861bs1M73cUHLgqE9gCUyEMqiFFLfkLGaycWsnu64C+mYw39v2zFysbhlxE0lCdNmqIyEjU5LqRXaYIou603zCrpERWFKZml/62CSy/SCXoI7Qk4UT+pUEYt+QmrWU8sZPuTdFG1IrjWVRV185zc5v+2CITMPVCvkuvzkPeRq5z/msp6K4JrE56sFUsFdz+z9r7f2fve61ePWt6/CztvF4vVgj1sn0x/P8UZXrtMF5e9FvBTpflqMqDQf+tG+5tsmLN0YGpxePCOLCse9lk5KLF5cZjKbQmbL+ceqNzarPqPnRO0XqUvVC5DsvuluwAAAvdJREFUxyhTub+sXCo9W89b+pV71oJdIq49lW3XomG1EdcIiWxcAnaTkfe23wugYBfpP6JvYgF2EyUEwgno2ntPiXytPUp0rWLi+l7ecCgNJYDQNpQZWzNFF/+n8smE11oOc1pZJqrfa/+X9mepBq+PbBCAQA6BJLw2gfEz7X/QvuT6Q1hzYGeEQWgzIBHEn0C6EVxFjJheoeADBMIJ7F5/XHvhuG8htPGMSQECEIAABAYmwKzjgTMf1yEAAQhAIJ4AQhvPmBQgAAEIQGBgAgjtwJmP6xCAAAQgEE8AoY1nTAoQgAAEIDAwAYR24MzHdQhAAAIQiCeA0MYzJgUIQAACEBiYAEI7cObjOgQgAAEIxBNAaOMZkwIEIAABCAxMAKEdOPNxHQIQgAAE4gkgtPGMSQECEIAABAYmgNAOnPm4DgEIQAAC8QQQ2njGpAABCEAAAgMTQGgHznxchwAEIACBeAIIbTxjUoAABCAAgYEJILQDZz6uQwACEIBAPAGENp4xKUAAAhCAwMAEENqBMx/XIQABCEAgngBCG8+YFCAAAQhAYGACCO3AmY/rEIAABCAQTwChjWdMChCAAAQgMDABhHbgzMd1CEAAAhCIJ4DQxjMmBQhAAAIQGJgAQjtw5uM6BCAAAQjEE0Bo4xmTAgQgAAEIDEwAoR0483EdAhCAAATiCSC08YxJAQIQgAAEBiaA0A6c+bgOAQhAAALxBBDaeMakAAEIQAACAxNAaAfOfFyHAAQgAIF4AghtPGNSgAAEIACBgQkgtANnPq5DAAIQgEA8AYQ2njEpQAACEIDAwAQQ2oEzH9chAAEIQCCeAEIbz5gUIAABCEBgYAII7cCZj+sQgAAEIBBPAKGNZ0wKEIAABCAwMAGEduDMx3UIQAACEIgngNDGMyYFCEAAAhAYmABCO3Dm4zoEIAABCMQTQGjjGZMCBCAAAQgMTAChHTjzcR0CEIAABOIJILTxjEkBAhCAAAQGJoDQDpz5uA4BCEAAAvEE/g9XPP7KB/umnAAAAABJRU5ErkJggg==;imageBackground=none;imageBorder=none;" parent="1" vertex="1">
          <mxGeometry x="889.67" y="570" width="91.86" height="100" as="geometry" />
        </mxCell>
        <mxCell id="0s4_oxN7NKguhPvinldg-34" value="&lt;div style=&quot;background-color: rgb(30, 31, 34); color: rgb(188, 190, 196); font-size: 8px;&quot;&gt;&lt;pre style=&quot;font-family: &amp;quot;JetBrains Mono&amp;quot;, monospace;&quot;&gt;&lt;span style=&quot;color:#cf8e6d;&quot;&gt;type &lt;/span&gt;AuditLog {&lt;br&gt;    &lt;span style=&quot;color:#c77dbb;&quot;&gt;id&lt;/span&gt;: ID&lt;br&gt;    &lt;span style=&quot;color:#c77dbb;&quot;&gt;source&lt;/span&gt;: String&lt;br&gt;    &lt;span style=&quot;color:#c77dbb;&quot;&gt;timestamp&lt;/span&gt;: String&lt;br&gt;    &lt;span style=&quot;color:#c77dbb;&quot;&gt;action&lt;/span&gt;: String&lt;br&gt;    &lt;span style=&quot;color:#c77dbb;&quot;&gt;auditDetails&lt;/span&gt;: String&lt;br&gt;}&lt;/pre&gt;&lt;/div&gt;" style="text;whiteSpace=wrap;html=1;" parent="1" vertex="1">
          <mxGeometry x="690.67" y="572" width="120.33" height="87" as="geometry" />
        </mxCell>
      </root>
    </mxGraphModel>
  </diagram>
</mxfile>
